<svg xmlns="http://www.w3.org/2000/svg" xmlns:v="https://svgstorm.com"
viewBox = "0 0 750 252"
width="750"
height="252">
<g fill="None" fill-opacity="0.0" stroke="#FFFFFF" stroke-opacity="1.00" stroke-width="0.3"><path d="
M 0.00 252.00 
L 1.00 252.00
C 1.00 251.50 1.00 251.00 1.00 251.00
C 1.00 250.00 1.00 249.00 1.00 248.00
C 1.00 239.00 1.00 230.00 1.00 221.00
C 1.00 219.33 1.00 217.67 1.00 216.00
C 1.00 212.33 1.00 208.67 1.00 205.00
C 1.00 190.00 1.00 175.00 1.00 160.00
C 1.00 148.33 1.00 136.67 1.00 125.00
C 1.00 110.00 1.00 95.00 1.00 80.00
C 1.00 76.33 1.00 72.67 1.00 69.00
C 1.00 62.05 0.52 52.72 1.00 46.00 C 1.48 39.28 -0.27 28.84 1.00 23.00 C 2.27 17.16 -2.38 4.07 2.00 1.00
C 6.73 -2.31 16.98 2.48 23.00 1.00 C 29.02 -0.48 37.33 1.64 44.00 1.00 C 50.67 0.36 59.09 1.30 66.00 1.00 C 72.91 0.70 80.00 1.14 87.00 1.00 C 94.00 0.86 100.91 1.06 108.00 1.00 C 115.09 0.94 122.89 1.03 130.00 1.00 C 137.11 0.97 143.90 1.01 151.00 1.00 C 158.10 0.99 164.86 1.01 172.00 1.00 C 179.14 0.99 186.85 1.00 194.00 1.00 C 201.15 1.00 207.84 1.00 215.00 1.00 C 222.16 1.00 229.86 1.00 237.00 1.00 C 244.14 1.00 250.90 1.00 258.00 1.00 C 265.10 1.00 271.87 1.00 279.00 1.00 C 286.13 1.00 293.86 1.00 301.00 1.00 C 308.14 1.00 314.90 1.00 322.00 1.00 C 329.10 1.00 335.86 1.00 343.00 1.00 C 350.14 1.00 357.84 1.00 365.00 1.00 C 372.16 1.00 378.84 1.00 386.00 1.00 C 393.16 1.00 400.86 1.00 408.00 1.00 C 415.14 1.00 421.90 1.00 429.00 1.00 C 436.10 1.00 442.87 1.00 450.00 1.00 C 457.13 1.00 464.86 1.00 472.00 1.00 C 479.14 1.00 485.90 1.00 493.00 1.00 C 500.10 1.00 506.86 1.00 514.00 1.00 C 521.14 1.00 528.84 1.00 536.00 1.00 C 543.16 1.00 549.84 1.00 557.00 1.00 C 564.16 1.00 571.86 1.00 579.00 1.00 C 586.14 1.00 592.90 1.00 600.00 1.00 C 607.11 1.00 613.86 1.00 621.00 1.00 C 628.14 1.00 635.86 1.00 643.00 1.00 C 650.14 1.00 656.89 1.00 664.00 1.00 C 671.11 1.00 677.85 1.00 685.00 1.00 C 692.15 1.00 699.83 1.00 707.00 1.00 C 714.17 1.00 720.80 1.00 728.00 1.00 C 735.20 1.00 742.77 1.00 750.00 1.00
L 750.00 0.00
L 0.00 0.00
L 0.00 252.00 Z"/>
</g>
<g fill="None" fill-opacity="0.0" stroke="#825D72" stroke-opacity="1.00" stroke-width="0.3"><path d="
M 1.00 69.00 
C 1.00 68.96 2.00 69.00 2.00 69.00
C 2.00 46.33 2.00 23.67 2.00 1.00
C -2.38 4.07 2.27 17.16 1.00 23.00 C -0.27 28.84 1.48 39.28 1.00 46.00 C 0.52 52.72 1.00 62.05 1.00 69.00 Z"/>
</g>
<g fill="None" fill-opacity="0.0" stroke="#2B2354" stroke-opacity="1.00" stroke-width="0.3"><path d="
M 2.00 69.00 
C 2.00 72.67 2.00 76.33 2.00 80.00
C 2.00 95.00 2.00 110.00 2.00 125.00
C 2.00 136.67 2.00 148.33 2.00 160.00
C 2.00 175.00 2.00 190.00 2.00 205.00
C 2.00 208.77 1.32 212.96 1.00 216.00
C 1.00 217.67 1.00 219.33 1.00 221.00
C 1.88 229.26 2.80 239.80 1.00 248.00
C 1.00 249.00 1.00 250.00 1.00 251.00
C 23.15 249.00 45.87 253.14 68.00 251.00
C 79.21 249.91 92.85 249.48 104.00 251.00
C 105.33 251.00 106.67 251.00 108.00 251.00
C 112.51 250.39 117.60 250.57 122.00 251.00
C 159.67 251.00 197.33 251.00 235.00 251.00
C 242.01 250.32 250.30 250.00 258.00 250.00
C 267.00 250.00 276.76 250.20 285.00 251.00
C 311.83 248.57 340.04 251.00 367.00 251.00
C 368.75 250.83 371.60 250.05 374.00 250.00
C 377.13 249.94 380.62 250.77 383.00 251.00
C 385.67 251.00 388.33 251.00 391.00 251.00
C 401.93 249.94 414.36 250.00 426.00 250.00
C 453.67 250.00 481.33 250.00 509.00 250.00
C 520.67 250.00 532.33 250.00 544.00 250.00
C 553.67 250.00 563.33 250.00 573.00 250.00
C 584.67 250.00 596.33 250.00 608.00 250.00
C 655.33 250.00 702.67 250.00 750.00 250.00
L 750.00 1.00
C 742.77 1.00 735.20 1.00 728.00 1.00 C 720.80 1.00 714.17 1.00 707.00 1.00 C 699.83 1.00 692.15 1.00 685.00 1.00 C 677.85 1.00 671.11 1.00 664.00 1.00 C 656.89 1.00 650.14 1.00 643.00 1.00 C 635.86 1.00 628.14 1.00 621.00 1.00 C 613.86 1.00 607.11 1.00 600.00 1.00 C 592.90 1.00 586.14 1.00 579.00 1.00 C 571.86 1.00 564.16 1.00 557.00 1.00 C 549.84 1.00 543.16 1.00 536.00 1.00 C 528.84 1.00 521.14 1.00 514.00 1.00 C 506.86 1.00 500.10 1.00 493.00 1.00 C 485.90 1.00 479.14 1.00 472.00 1.00 C 464.86 1.00 457.13 1.00 450.00 1.00 C 442.87 1.00 436.10 1.00 429.00 1.00 C 421.90 1.00 415.14 1.00 408.00 1.00 C 400.86 1.00 393.16 1.00 386.00 1.00 C 378.84 1.00 372.16 1.00 365.00 1.00 C 357.84 1.00 350.14 1.00 343.00 1.00 C 335.86 1.00 329.10 1.00 322.00 1.00 C 314.90 1.00 308.14 1.00 301.00 1.00 C 293.86 1.00 286.13 1.00 279.00 1.00 C 271.87 1.00 265.10 1.00 258.00 1.00 C 250.90 1.00 244.14 1.00 237.00 1.00 C 229.86 1.00 222.16 1.00 215.00 1.00 C 207.84 1.00 201.15 1.00 194.00 1.00 C 186.85 1.00 179.14 0.99 172.00 1.00 C 164.86 1.01 158.10 0.99 151.00 1.00 C 143.90 1.01 137.11 0.97 130.00 1.00 C 122.89 1.03 115.09 0.94 108.00 1.00 C 100.91 1.06 94.00 0.86 87.00 1.00 C 80.00 1.14 72.91 0.70 66.00 1.00 C 59.09 1.30 50.67 0.36 44.00 1.00 C 37.33 1.64 29.02 -0.48 23.00 1.00 C 16.98 2.48 6.73 -2.31 2.00 1.00
C 2.00 23.67 2.00 46.33 2.00 69.00
M 95.00 157.00 
C 95.20 161.61 86.19 163.90 83.00 159.00
C 81.66 156.94 82.72 152.39 82.00 150.00
C 81.67 149.26 80.37 148.33 81.00 147.00
C 75.67 147.00 70.33 147.00 65.00 147.00
C 62.71 149.43 64.92 156.18 63.00 159.00
C 60.08 163.30 51.16 161.62 51.00 158.00
C 50.49 146.51 57.33 134.81 58.33 123.33 C 59.32 111.84 63.49 100.19 66.00 89.00
C 78.49 84.96 82.75 93.25 83.93 103.07 C 85.10 112.90 87.48 120.58 89.00 130.00 C 90.52 139.42 94.29 147.42 95.00 157.00
M 116.00 148.00 
C 121.45 150.04 132.83 144.83 137.00 149.00
C 138.78 150.78 138.74 158.26 137.00 160.00
C 134.41 162.59 124.89 161.13 121.00 161.00 C 117.11 160.87 106.64 162.73 104.00 160.00
C 103.75 159.74 104.00 159.00 104.00 159.00
C 100.47 154.23 103.51 142.16 103.00 136.00 C 102.49 129.84 102.31 117.74 103.00 112.00 C 103.69 106.26 99.87 91.54 105.00 89.00
C 120.18 81.49 115.61 105.87 116.00 113.00 C 116.39 120.13 114.63 124.32 116.00 130.00 C 117.37 135.68 112.95 143.65 116.00 148.00
M 160.00 148.00 
C 164.32 147.61 178.17 146.17 181.00 149.00
C 182.78 150.78 182.74 158.26 181.00 160.00
C 174.79 166.21 163.97 157.65 155.00 161.00 C 146.03 164.35 145.62 148.96 147.00 142.00 C 148.38 135.04 145.26 121.47 147.00 115.00 C 148.74 108.53 142.92 92.01 149.00 89.00
C 150.10 88.45 156.90 88.45 158.00 89.00
C 162.90 91.42 159.14 101.65 160.00 107.00 C 160.86 112.35 159.70 120.88 160.00 127.00 C 160.30 133.12 160.00 141.66 160.00 148.00
M 226.00 103.00 
C 222.87 109.33 227.74 123.35 226.00 130.00 C 224.26 136.65 224.56 153.16 235.00 148.00
C 238.86 145.22 235.25 141.55 237.00 138.00
C 238.59 134.78 247.42 134.80 249.00 138.00
C 253.33 146.76 247.15 157.98 239.00 160.00
C 234.02 161.23 227.92 161.22 223.00 160.00
C 207.41 156.14 213.90 135.92 213.00 123.00 C 212.10 110.08 209.57 91.15 226.01 89.01 C 242.44 86.86 253.21 95.59 249.00 113.00
C 245.00 113.00 241.00 113.00 237.00 113.00
C 240.20 105.28 232.68 96.12 226.00 103.00
M 284.00 160.00 
C 278.78 161.29 272.16 161.28 267.00 160.00
C 254.68 156.95 257.36 140.19 258.00 130.00 C 258.64 119.81 255.16 101.01 260.31 93.31 C 265.45 85.60 285.52 85.72 290.75 93.25 C 295.98 100.78 292.25 119.91 293.00 130.00 C 293.75 140.09 296.15 156.99 284.00 160.00
M 353.00 159.00 
C 351.41 162.22 342.58 162.20 341.00 159.00
C 338.46 153.86 342.49 145.68 341.00 140.00 C 339.51 134.32 342.94 125.98 340.00 121.00
C 339.39 132.73 334.36 136.52 334.01 149.01 C 333.65 161.49 322.05 163.96 321.22 150.78 C 320.40 137.59 316.63 134.14 315.00 122.00
C 312.68 133.43 314.66 146.82 314.00 159.00
C 312.41 162.22 303.58 162.20 302.00 159.00
C 298.18 151.27 304.42 140.63 302.00 132.00 C 299.58 123.37 304.70 113.10 302.00 104.00 C 299.30 94.90 304.74 85.21 314.00 89.00 C 323.26 92.79 318.23 101.98 321.93 109.07 C 325.62 116.17 324.08 124.68 327.00 132.00
C 332.26 126.22 328.65 117.50 332.98 110.98 C 337.30 104.45 330.44 94.28 339.25 89.25 C 348.05 84.22 355.87 93.45 353.00 103.00 C 350.13 112.55 354.50 121.55 353.00 131.00 C 351.50 140.45 354.12 149.58 353.00 159.00
M 397.00 101.00 
C 398.51 108.28 398.29 117.79 397.00 125.00
C 396.55 131.63 394.29 134.44 388.00 136.00
C 383.94 137.01 378.74 137.33 374.00 137.00
C 370.31 142.27 377.80 155.20 373.00 160.00
C 371.27 161.73 364.69 161.69 363.00 160.00
C 359.16 156.16 362.43 144.01 362.00 138.00 C 361.57 131.99 361.00 120.23 362.00 114.00 C 363.00 107.77 358.73 95.51 362.33 90.33 C 365.93 85.15 378.49 90.91 385.00 89.00 C 391.51 87.09 395.94 95.88 397.00 101.00
M 436.00 120.00 
C 437.73 121.73 437.69 128.31 436.00 130.00
C 432.32 133.68 422.78 129.32 418.00 131.00
C 418.00 136.67 418.00 142.33 418.00 148.00
C 421.46 148.40 427.83 147.46 431.00 148.00 C 434.17 148.54 441.17 146.11 442.00 150.00
C 442.89 159.86 436.89 163.52 429.00 161.00 C 421.11 158.48 409.38 165.84 406.00 159.00
C 401.81 150.52 408.81 140.58 406.00 131.00 C 403.19 121.42 409.29 113.83 406.00 103.00 C 402.71 92.17 411.09 86.37 421.00 89.00 C 430.91 91.63 442.27 84.19 442.00 96.00 C 441.73 107.81 424.76 97.47 418.00 101.00
C 418.00 107.00 418.00 113.00 418.00 119.00
C 423.83 119.66 430.99 117.68 436.00 120.00
M 484.00 100.00 
C 481.54 102.46 476.29 100.22 473.00 101.00
C 473.00 120.33 473.00 139.67 473.00 159.00
C 471.66 161.71 462.63 162.33 461.00 160.00
C 457.95 155.65 462.34 146.60 461.00 141.00 C 459.66 135.40 461.70 127.11 461.00 121.00 C 460.30 114.89 461.52 107.25 461.00 101.00
C 457.00 101.00 453.00 101.00 449.00 101.00
C 446.23 91.31 451.49 87.67 460.00 89.00 C 468.51 90.33 474.70 88.00 483.00 89.00
C 485.94 90.45 485.98 98.02 484.00 100.00
M 493.00 89.00 
C 494.10 88.45 500.90 88.45 502.00 89.00
C 507.48 91.71 503.23 106.38 504.00 113.00 C 504.77 119.62 504.33 132.45 504.00 140.00 C 503.67 147.55 508.12 160.38 498.00 161.00 C 487.88 161.61 490.71 148.61 491.00 141.00 C 491.29 133.39 489.83 120.67 491.00 114.00 C 492.17 107.33 487.24 91.85 493.00 89.00
M 535.00 159.00 
C 533.53 161.97 524.98 162.04 523.00 160.00
C 522.75 159.74 523.00 159.00 523.00 159.00
C 518.09 152.37 523.74 139.55 522.00 131.00 C 520.26 122.45 523.31 109.91 522.00 101.00
C 519.54 99.28 513.76 102.29 511.00 101.00
C 508.33 91.25 513.36 87.75 522.00 89.00 C 530.64 90.25 537.52 88.07 546.00 89.00
C 546.00 93.00 546.00 97.00 546.00 101.00
C 542.33 101.00 538.67 101.00 535.00 101.00
C 535.00 120.33 535.00 139.67 535.00 159.00
M 566.00 159.00 
C 563.12 164.83 550.57 160.99 553.00 154.00 C 555.44 147.01 551.48 138.65 553.00 132.00 C 554.52 125.35 551.38 115.84 553.00 110.00 C 554.62 104.16 549.37 91.78 555.00 89.00
C 566.31 83.41 567.54 97.21 566.00 105.00 C 564.46 112.79 567.89 124.17 566.00 132.00 C 564.11 139.83 569.51 151.91 566.00 159.00
M 601.00 160.00 
C 595.95 161.60 588.98 161.23 584.00 160.00
C 577.68 158.43 576.29 156.21 575.00 150.00
C 572.16 136.31 571.64 112.54 575.00 99.00
C 579.88 79.30 614.54 89.42 610.00 106.00 C 605.46 122.58 620.34 153.89 601.00 160.00
M 643.00 125.00 
C 642.60 121.13 644.19 111.49 644.00 107.00 C 643.81 102.51 641.97 91.00 646.00 89.00
C 657.31 83.41 658.54 97.21 657.00 105.00 C 655.46 112.79 658.89 124.17 657.00 132.00 C 655.11 139.83 660.51 151.91 657.00 159.00
C 655.39 162.26 648.28 161.57 646.00 160.00
C 641.04 156.60 641.88 147.08 639.02 141.98 C 636.17 136.87 634.74 129.33 632.00 124.00
C 629.02 134.93 632.99 149.14 630.00 160.00
C 628.27 161.73 621.69 161.69 620.00 160.00
C 615.28 155.28 620.45 141.98 619.00 135.00 C 617.55 128.02 619.62 116.50 619.00 109.00 C 618.38 101.50 616.53 87.90 626.00 89.00 C 635.47 90.10 631.97 98.87 635.93 105.07 C 639.88 111.28 639.79 118.60 643.00 125.00
M 690.00 112.00 
C 687.90 109.90 689.89 106.65 689.00 104.00
C 683.25 92.88 673.18 109.50 678.00 117.00
C 685.37 120.80 702.36 120.14 702.00 131.00 C 701.64 141.86 705.16 157.46 692.00 160.00
C 686.91 161.26 680.02 161.52 675.00 160.00
C 664.66 156.86 665.37 146.59 666.00 137.00
C 670.00 137.00 674.00 137.00 678.00 137.00
C 678.77 140.50 676.14 146.02 680.00 148.00
C 681.08 148.54 686.86 148.45 688.00 148.00
C 688.84 147.27 688.85 147.23 689.00 146.00
C 689.30 143.56 690.13 136.11 689.00 134.00
C 685.04 128.88 665.74 130.69 666.01 121.99 C 666.27 113.29 662.48 96.94 670.25 91.25 C 678.02 85.56 691.21 88.39 698.75 93.25 C 706.29 98.11 701.14 123.14 690.00 112.00 Z"/>
</g>
<g fill="None" fill-opacity="0.0" stroke="#7E8598" stroke-opacity="1.00" stroke-width="0.3"><path d="
M 1.00 80.00 
C 1.00 79.96 2.00 80.00 2.00 80.00
C 2.00 76.33 2.00 72.67 2.00 69.00
C 2.00 69.00 1.00 68.96 1.00 69.00
C 1.00 72.67 1.00 76.33 1.00 80.00 Z"/>
</g>
<g fill="None" fill-opacity="0.0" stroke="#546B74" stroke-opacity="1.00" stroke-width="0.3"><path d="
M 1.00 125.00 
C 1.00 124.96 2.00 125.00 2.00 125.00
C 2.00 110.00 2.00 95.00 2.00 80.00
C 2.00 80.00 1.00 79.96 1.00 80.00
C 1.00 95.00 1.00 110.00 1.00 125.00 Z"/>
</g>
<g fill="None" fill-opacity="0.0" stroke="#F6F6F8" stroke-opacity="1.00" stroke-width="0.3"><path d="
M 51.00 158.00 
C 52.05 160.44 60.53 161.59 63.00 159.00
C 64.92 156.18 62.71 149.43 65.00 147.00
C 68.76 143.01 80.67 145.61 82.00 150.00
C 82.72 152.39 81.66 156.94 83.00 159.00
C 85.62 161.86 91.75 158.91 95.00 160.00
C 95.00 159.00 95.00 158.00 95.00 157.00
C 94.29 147.42 90.52 139.42 89.00 130.00 C 87.48 120.58 85.10 112.90 83.93 103.07 C 82.75 93.25 78.49 84.96 66.00 89.00
C 63.49 100.19 59.32 111.84 58.33 123.33 C 57.33 134.81 50.49 146.51 51.00 158.00
M 74.00 110.00 
C 76.79 118.10 76.45 127.51 78.00 136.00
C 74.67 136.00 71.33 136.00 68.00 136.00
C 68.51 127.47 71.20 119.49 72.00 111.00
C 72.32 109.75 71.76 108.27 72.00 107.00
C 74.03 106.36 74.06 108.69 74.00 110.00 Z"/>
</g>
<g fill="None" fill-opacity="0.0" stroke="#85819C" stroke-opacity="1.00" stroke-width="0.3"><path d="
M 104.00 159.00 
C 104.00 153.44 103.81 147.53 104.00 142.00 C 104.19 136.47 103.54 129.31 104.00 124.00 C 104.46 118.69 102.96 110.62 104.00 106.00 C 105.04 101.38 101.22 91.68 105.00 89.00
C 99.87 91.54 103.69 106.26 103.00 112.00 C 102.31 117.74 102.49 129.84 103.00 136.00 C 103.51 142.16 100.47 154.23 104.00 159.00 Z"/>
</g>
<g fill="None" fill-opacity="0.0" stroke="#F9F9FA" stroke-opacity="1.00" stroke-width="0.3"><path d="
M 104.00 159.00 
C 104.00 159.00 103.75 159.74 104.00 160.00
C 108.46 160.40 115.71 160.83 120.00 160.00 C 124.29 159.17 133.59 162.38 137.00 160.00
C 138.74 158.26 138.78 150.78 137.00 149.00
C 132.61 145.93 119.31 152.73 116.00 148.00
C 112.95 143.65 117.37 135.68 116.00 130.00 C 114.63 124.32 116.39 120.13 116.00 113.00 C 115.61 105.87 120.18 81.49 105.00 89.00
C 101.22 91.68 105.04 101.38 104.00 106.00 C 102.96 110.62 104.46 118.69 104.00 124.00 C 103.54 129.31 104.19 136.47 104.00 142.00 C 103.81 147.53 104.00 153.44 104.00 159.00 Z"/>
</g>
<g fill="None" fill-opacity="0.0" stroke="#9B97AD" stroke-opacity="1.00" stroke-width="0.3"><path d="
M 181.00 160.00 
C 177.33 162.57 169.63 158.73 165.00 160.00 C 160.37 161.27 152.89 159.05 148.00 160.00
C 148.66 136.42 146.67 112.13 149.00 89.00
C 142.92 92.01 148.74 108.53 147.00 115.00 C 145.26 121.47 148.38 135.04 147.00 142.00 C 145.62 148.96 146.03 164.35 155.00 161.00 C 163.97 157.65 174.79 166.21 181.00 160.00 Z"/>
</g>
<g fill="None" fill-opacity="0.0" stroke="#FCFCFD" stroke-opacity="1.00" stroke-width="0.3"><path d="
M 181.00 160.00 
C 182.74 158.26 182.78 150.78 181.00 149.00
C 177.35 146.45 164.62 149.42 160.00 149.00
C 156.12 145.27 160.51 135.22 159.00 130.00 C 157.49 124.78 160.64 113.98 159.00 109.00 C 157.36 104.02 162.34 92.07 158.00 89.00
C 156.90 88.45 150.10 88.45 149.00 89.00
C 146.67 112.13 148.66 136.42 148.00 160.00
C 152.89 159.05 160.37 161.27 165.00 160.00 C 169.63 158.73 177.33 162.57 181.00 160.00 Z"/>
</g>
<g fill="None" fill-opacity="0.0" stroke="#9D99AF" stroke-opacity="1.00" stroke-width="0.3"><path d="
M 160.00 149.00 
C 159.96 149.00 160.00 148.00 160.00 148.00
C 160.00 141.66 160.30 133.12 160.00 127.00 C 159.70 120.88 160.86 112.35 160.00 107.00 C 159.14 101.65 162.90 91.42 158.00 89.00
C 162.34 92.07 157.36 104.02 159.00 109.00 C 160.64 113.98 157.49 124.78 159.00 130.00 C 160.51 135.22 156.12 145.27 160.00 149.00 Z"/>
</g>
<g fill="None" fill-opacity="0.0" stroke="#F7F7F8" stroke-opacity="1.00" stroke-width="0.3"><path d="
M 223.00 160.00 
C 227.82 160.60 234.18 160.60 239.00 160.00
C 247.15 157.98 253.33 146.76 249.00 138.00
C 247.70 136.17 238.28 136.19 237.00 138.00
C 235.25 141.55 238.86 145.22 235.00 148.00
C 224.96 155.24 222.95 137.99 225.00 131.00 C 227.05 124.01 221.66 109.01 226.00 103.00
C 232.68 96.12 240.20 105.28 237.00 113.00
C 241.00 113.00 245.00 113.00 249.00 113.00
C 253.21 95.59 242.44 86.86 226.01 89.01 C 209.57 91.15 212.10 110.08 213.00 123.00 C 213.90 135.92 207.41 156.14 223.00 160.00 Z"/>
</g>
<g fill="None" fill-opacity="0.0" stroke="#FBFBFC" stroke-opacity="1.00" stroke-width="0.3"><path d="
M 267.00 160.00 
C 272.12 160.63 278.88 160.63 284.00 160.00
C 296.15 156.99 293.75 140.09 293.00 130.00 C 292.25 119.91 295.98 100.78 290.75 93.25 C 285.52 85.72 265.45 85.60 260.31 93.31 C 255.16 101.01 258.64 119.81 258.00 130.00 C 257.36 140.19 254.68 156.95 267.00 160.00
M 270.00 146.00 
C 267.35 140.88 269.01 131.12 269.00 125.00 C 268.99 118.88 267.38 109.07 270.00 104.00
C 274.84 94.63 283.36 104.12 282.00 112.00 C 280.64 119.88 280.64 130.12 282.00 138.00 C 283.36 145.88 274.85 155.38 270.00 146.00 Z"/>
</g>
<g fill="None" fill-opacity="0.0" stroke="#F5F5F7" stroke-opacity="1.00" stroke-width="0.3"><path d="
M 302.00 159.00 
C 303.30 160.83 312.72 160.81 314.00 159.00
C 314.66 146.82 312.68 133.43 315.00 122.00
C 316.63 134.14 320.40 137.59 321.22 150.78 C 322.05 163.96 333.65 161.49 334.01 149.01 C 334.36 136.52 339.39 132.73 340.00 121.00
C 342.94 125.98 339.51 134.32 341.00 140.00 C 342.49 145.68 338.46 153.86 341.00 159.00
C 342.30 160.83 351.72 160.81 353.00 159.00
C 354.12 149.58 351.50 140.45 353.00 131.00 C 354.50 121.55 350.13 112.55 353.00 103.00 C 355.87 93.45 348.05 84.22 339.25 89.25 C 330.44 94.28 337.30 104.45 332.98 110.98 C 328.65 117.50 332.26 126.22 327.00 132.00
C 324.08 124.68 325.62 116.17 321.93 109.07 C 318.23 101.98 323.26 92.79 314.00 89.00 C 304.74 85.21 299.30 94.90 302.00 104.00 C 304.70 113.10 299.58 123.37 302.00 132.00 C 304.42 140.63 298.18 151.27 302.00 159.00 Z"/>
</g>
<g fill="None" fill-opacity="0.0" stroke="#F9F9FA" stroke-opacity="1.00" stroke-width="0.3"><path d="
M 363.00 160.00 
C 363.75 160.53 372.25 160.53 373.00 160.00
C 377.80 155.20 370.31 142.27 374.00 137.00
C 375.88 134.31 384.83 136.39 388.00 136.00
C 394.29 134.44 396.55 131.63 397.00 125.00
C 397.52 117.33 397.70 108.65 397.00 101.00
C 395.94 95.88 391.51 87.09 385.00 89.00 C 378.49 90.91 365.93 85.15 362.33 90.33 C 358.73 95.51 363.00 107.77 362.00 114.00 C 361.00 120.23 361.57 131.99 362.00 138.00 C 362.43 144.01 359.16 156.16 363.00 160.00
M 374.00 125.00 
C 374.00 117.00 374.00 109.00 374.00 101.00
C 384.98 98.08 384.97 104.62 385.00 113.00 C 385.03 121.38 384.46 127.45 374.00 125.00 Z"/>
</g>
<g fill="None" fill-opacity="0.0" stroke="#F9F8FA" stroke-opacity="1.00" stroke-width="0.3"><path d="
M 406.00 159.00 
C 408.70 162.83 418.56 158.77 423.00 160.00 C 427.44 161.23 436.17 159.07 441.00 160.00
C 441.00 156.67 441.00 153.33 441.00 150.00
C 436.31 146.52 421.25 152.65 418.00 148.00
C 418.00 142.33 418.00 136.67 418.00 131.00
C 422.78 129.32 432.32 133.68 436.00 130.00
C 436.53 129.25 436.53 120.75 436.00 120.00
C 430.99 117.68 423.83 119.66 418.00 119.00
C 418.00 113.00 418.00 107.00 418.00 101.00
C 424.76 97.47 441.73 107.81 442.00 96.00 C 442.27 84.19 430.91 91.63 421.00 89.00 C 411.09 86.37 402.71 92.17 406.00 103.00 C 409.29 113.83 403.19 121.42 406.00 131.00 C 408.81 140.58 401.81 150.52 406.00 159.00 Z"/>
</g>
<g fill="None" fill-opacity="0.0" stroke="#F9F9FA" stroke-opacity="1.00" stroke-width="0.3"><path d="
M 461.00 160.00 
C 463.89 158.81 470.88 162.00 473.00 159.00
C 473.00 139.67 473.00 120.33 473.00 101.00
C 476.29 100.22 481.54 102.46 484.00 100.00
C 484.92 98.68 484.39 89.98 483.00 89.00
C 474.70 88.00 468.51 90.33 460.00 89.00 C 451.49 87.67 446.23 91.31 449.00 101.00
C 453.00 101.00 457.00 101.00 461.00 101.00
C 461.52 107.25 460.30 114.89 461.00 121.00 C 461.70 127.11 459.66 135.40 461.00 141.00 C 462.34 146.60 457.95 155.65 461.00 160.00 Z"/>
</g>
<g fill="None" fill-opacity="0.0" stroke="#918EA7" stroke-opacity="1.00" stroke-width="0.3"><path d="
M 484.00 100.00 
C 485.98 98.02 485.94 90.45 483.00 89.00
C 484.39 89.98 484.92 98.68 484.00 100.00 Z"/>
</g>
<g fill="None" fill-opacity="0.0" stroke="#9C98AE" stroke-opacity="1.00" stroke-width="0.3"><path d="
M 502.00 89.00 
C 505.81 91.70 501.94 101.36 503.00 106.00 C 504.06 110.64 502.50 118.63 503.00 124.00 C 503.50 129.37 502.74 136.33 503.00 142.00 C 503.26 147.67 502.81 154.25 503.00 160.00
C 499.33 160.00 495.67 160.00 492.00 160.00
C 492.66 136.42 490.67 112.13 493.00 89.00
C 487.24 91.85 492.17 107.33 491.00 114.00 C 489.83 120.67 491.29 133.39 491.00 141.00 C 490.71 148.61 487.88 161.61 498.00 161.00 C 508.12 160.38 503.67 147.55 504.00 140.00 C 504.33 132.45 504.77 119.62 504.00 113.00 C 503.23 106.38 507.48 91.71 502.00 89.00 Z"/>
</g>
<g fill="None" fill-opacity="0.0" stroke="#FDFDFD" stroke-opacity="1.00" stroke-width="0.3"><path d="
M 502.00 89.00 
C 500.90 88.45 494.10 88.45 493.00 89.00
C 490.67 112.13 492.66 136.42 492.00 160.00
C 495.67 160.00 499.33 160.00 503.00 160.00
C 502.81 154.25 503.26 147.67 503.00 142.00 C 502.74 136.33 503.50 129.37 503.00 124.00 C 502.50 118.63 504.06 110.64 503.00 106.00 C 501.94 101.36 505.81 91.70 502.00 89.00 Z"/>
</g>
<g fill="None" fill-opacity="0.0" stroke="#F7F7F9" stroke-opacity="1.00" stroke-width="0.3"><path d="
M 522.00 101.00 
C 525.85 103.69 522.03 113.85 523.00 119.00 C 523.97 124.15 522.63 133.13 523.00 139.00 C 523.37 144.87 523.00 152.93 523.00 159.00
C 523.00 159.00 522.75 159.74 523.00 160.00
C 525.37 160.21 533.48 161.14 535.00 159.00
C 535.00 139.67 535.00 120.33 535.00 101.00
C 538.67 101.00 542.33 101.00 546.00 101.00
C 546.00 97.00 546.00 93.00 546.00 89.00
C 537.52 88.07 530.64 90.25 522.00 89.00 C 513.36 87.75 508.33 91.25 511.00 101.00
C 513.76 102.29 519.54 99.28 522.00 101.00 Z"/>
</g>
<g fill="None" fill-opacity="0.0" stroke="#8A85A0" stroke-opacity="1.00" stroke-width="0.3"><path d="
M 566.00 159.00 
C 563.87 162.02 556.88 158.79 554.00 160.00
C 554.66 136.42 552.67 112.13 555.00 89.00
C 549.37 91.78 554.62 104.16 553.00 110.00 C 551.38 115.84 554.52 125.35 553.00 132.00 C 551.48 138.65 555.44 147.01 553.00 154.00 C 550.57 160.99 563.12 164.83 566.00 159.00 Z"/>
</g>
<g fill="None" fill-opacity="0.0" stroke="#F6F6F8" stroke-opacity="1.00" stroke-width="0.3"><path d="
M 566.00 159.00 
C 569.51 151.91 564.11 139.83 566.00 132.00 C 567.89 124.17 564.46 112.79 566.00 105.00 C 567.54 97.21 566.31 83.41 555.00 89.00
C 552.67 112.13 554.66 136.42 554.00 160.00
C 556.88 158.79 563.87 162.02 566.00 159.00 Z"/>
</g>
<g fill="None" fill-opacity="0.0" stroke="#FBFBFC" stroke-opacity="1.00" stroke-width="0.3"><path d="
M 575.00 99.00 
C 573.05 114.69 573.57 134.24 575.00 150.00
C 576.29 156.21 577.68 158.43 584.00 160.00
C 588.90 160.61 596.14 160.87 601.00 160.00
C 620.34 153.89 605.46 122.58 610.00 106.00 C 614.54 89.42 579.88 79.30 575.00 99.00
M 598.00 104.00 
C 600.65 109.12 598.99 118.88 599.00 125.00 C 599.01 131.12 600.62 140.93 598.00 146.00
C 593.20 155.30 584.79 145.86 586.00 138.00 C 587.21 130.14 587.42 119.88 586.00 112.00 C 584.58 104.12 593.16 94.64 598.00 104.00 Z"/>
</g>
<g fill="None" fill-opacity="0.0" stroke="#F7F7F8" stroke-opacity="1.00" stroke-width="0.3"><path d="
M 620.00 160.00 
C 620.75 160.53 629.25 160.53 630.00 160.00
C 632.99 149.14 629.02 134.93 632.00 124.00
C 634.74 129.33 636.17 136.87 639.02 141.98 C 641.88 147.08 641.04 156.60 646.00 160.00
C 647.63 160.76 655.89 160.58 657.00 159.00
C 660.51 151.91 655.11 139.83 657.00 132.00 C 658.89 124.17 655.46 112.79 657.00 105.00 C 658.54 97.21 657.31 83.41 646.00 89.00
C 641.85 91.94 646.40 103.12 645.00 108.00 C 643.60 112.88 646.05 122.67 645.00 128.00
C 643.71 127.56 642.79 126.42 643.00 125.00
C 639.79 118.60 639.88 111.28 635.93 105.07 C 631.97 98.87 635.47 90.10 626.00 89.00 C 616.53 87.90 618.38 101.50 619.00 109.00 C 619.62 116.50 617.55 128.02 619.00 135.00 C 620.45 141.98 615.28 155.28 620.00 160.00 Z"/>
</g>
<g fill="None" fill-opacity="0.0" stroke="#736E8F" stroke-opacity="1.00" stroke-width="0.3"><path d="
M 643.00 125.00 
C 642.79 126.42 643.71 127.56 645.00 128.00
C 646.05 122.67 643.60 112.88 645.00 108.00 C 646.40 103.12 641.85 91.94 646.00 89.00
C 641.97 91.00 643.81 102.51 644.00 107.00 C 644.19 111.49 642.60 121.13 643.00 125.00 Z"/>
</g>
<g fill="None" fill-opacity="0.0" stroke="#F6F6F8" stroke-opacity="1.00" stroke-width="0.3"><path d="
M 689.00 134.00 
C 691.15 136.77 690.14 143.20 689.00 146.00
C 688.85 147.23 688.84 147.27 688.00 148.00
C 686.06 149.69 681.93 149.39 680.00 148.00
C 676.14 146.02 678.77 140.50 678.00 137.00
C 674.00 137.00 670.00 137.00 666.00 137.00
C 665.37 146.59 664.66 156.86 675.00 160.00
C 679.91 160.83 687.06 160.61 692.00 160.00
C 705.16 157.46 701.64 141.86 702.00 131.00 C 702.36 120.14 685.37 120.80 678.00 117.00
C 673.18 109.50 683.25 92.88 689.00 104.00
C 689.98 105.89 688.88 110.40 690.00 112.00
C 701.14 123.14 706.29 98.11 698.75 93.25 C 691.21 88.39 678.02 85.56 670.25 91.25 C 662.48 96.94 666.27 113.29 666.01 121.99 C 665.74 130.69 685.04 128.88 689.00 134.00 Z"/>
</g>
<g fill="None" fill-opacity="0.0" stroke="#9592AA" stroke-opacity="1.00" stroke-width="0.3"><path d="
M 575.00 150.00 
C 573.57 134.24 573.05 114.69 575.00 99.00
C 571.64 112.54 572.16 136.31 575.00 150.00 Z"/>
</g>
<g fill="None" fill-opacity="0.0" stroke="#2F2757" stroke-opacity="1.00" stroke-width="0.3"><path d="
M 270.00 104.00 
C 268.12 109.55 270.00 119.09 270.00 125.00 C 270.00 130.91 268.12 140.45 270.00 146.00
C 274.85 155.38 283.36 145.88 282.00 138.00 C 280.64 130.12 280.64 119.88 282.00 112.00 C 283.36 104.12 274.84 94.63 270.00 104.00 Z"/>
</g>
<g fill="None" fill-opacity="0.0" stroke="#302959" stroke-opacity="1.00" stroke-width="0.3"><path d="
M 374.00 125.00 
C 384.46 127.45 385.03 121.38 385.00 113.00 C 384.97 104.62 384.98 98.08 374.00 101.00
C 374.00 109.00 374.00 117.00 374.00 125.00 Z"/>
</g>
<g fill="None" fill-opacity="0.0" stroke="#777291" stroke-opacity="1.00" stroke-width="0.3"><path d="
M 397.00 125.00 
C 398.29 117.79 398.51 108.28 397.00 101.00
C 397.70 108.65 397.52 117.33 397.00 125.00 Z"/>
</g>
<g fill="None" fill-opacity="0.0" stroke="#8B87A2" stroke-opacity="1.00" stroke-width="0.3"><path d="
M 523.00 159.00 
C 523.00 152.93 523.37 144.87 523.00 139.00 C 522.63 133.13 523.97 124.15 523.00 119.00 C 522.03 113.85 525.85 103.69 522.00 101.00
C 523.31 109.91 520.26 122.45 522.00 131.00 C 523.74 139.55 518.09 152.37 523.00 159.00 Z"/>
</g>
<g fill="None" fill-opacity="0.0" stroke="#302958" stroke-opacity="1.00" stroke-width="0.3"><path d="
M 598.00 146.00 
C 599.88 140.45 598.00 130.91 598.00 125.00 C 598.00 119.09 599.88 109.55 598.00 104.00
C 593.16 94.64 584.58 104.12 586.00 112.00 C 587.42 119.88 587.21 130.14 586.00 138.00 C 584.79 145.86 593.20 155.30 598.00 146.00 Z"/>
</g>
<g fill="None" fill-opacity="0.0" stroke="#807B98" stroke-opacity="1.00" stroke-width="0.3"><path d="
M 235.00 148.00 
C 224.56 153.16 224.26 136.65 226.00 130.00 C 227.74 123.35 222.87 109.33 226.00 103.00
C 221.66 109.01 227.05 124.01 225.00 131.00 C 222.95 137.99 224.96 155.24 235.00 148.00 Z"/>
</g>
<g fill="None" fill-opacity="0.0" stroke="#9A97AE" stroke-opacity="1.00" stroke-width="0.3"><path d="
M 270.00 146.00 
C 268.12 140.45 270.00 130.91 270.00 125.00 C 270.00 119.09 268.12 109.55 270.00 104.00
C 267.38 109.07 268.99 118.88 269.00 125.00 C 269.01 131.12 267.35 140.88 270.00 146.00 Z"/>
</g>
<g fill="None" fill-opacity="0.0" stroke="#88839F" stroke-opacity="1.00" stroke-width="0.3"><path d="
M 598.00 146.00 
C 600.62 140.93 599.01 131.12 599.00 125.00 C 598.99 118.88 600.65 109.12 598.00 104.00
C 599.88 109.55 598.00 119.09 598.00 125.00 C 598.00 130.91 599.88 140.45 598.00 146.00 Z"/>
</g>
<g fill="None" fill-opacity="0.0" stroke="#8F8BA5" stroke-opacity="1.00" stroke-width="0.3"><path d="
M 690.00 112.00 
C 688.88 110.40 689.98 105.89 689.00 104.00
C 689.89 106.65 687.90 109.90 690.00 112.00 Z"/>
</g>
<g fill="None" fill-opacity="0.0" stroke="#7F7B98" stroke-opacity="1.00" stroke-width="0.3"><path d="
M 72.00 111.00 
C 72.16 110.71 73.96 110.14 74.00 110.00
C 74.06 108.69 74.03 106.36 72.00 107.00
C 71.76 108.27 72.32 109.75 72.00 111.00 Z"/>
</g>
<g fill="None" fill-opacity="0.0" stroke="#332C5B" stroke-opacity="1.00" stroke-width="0.3"><path d="
M 72.00 111.00 
C 71.20 119.49 68.51 127.47 68.00 136.00
C 71.33 136.00 74.67 136.00 78.00 136.00
C 76.45 127.51 76.79 118.10 74.00 110.00
C 73.96 110.14 72.16 110.71 72.00 111.00 Z"/>
</g>
<g fill="None" fill-opacity="0.0" stroke="#9793AA" stroke-opacity="1.00" stroke-width="0.3"><path d="
M 436.00 130.00 
C 437.69 128.31 437.73 121.73 436.00 120.00
C 436.53 120.75 436.53 129.25 436.00 130.00 Z"/>
</g>
<g fill="None" fill-opacity="0.0" stroke="#8B7869" stroke-opacity="1.00" stroke-width="0.3"><path d="
M 1.00 160.00 
C 1.00 159.96 2.00 160.00 2.00 160.00
C 2.00 148.33 2.00 136.67 2.00 125.00
C 2.00 125.00 1.00 124.96 1.00 125.00
C 1.00 136.67 1.00 148.33 1.00 160.00 Z"/>
</g>
<g fill="None" fill-opacity="0.0" stroke="#908CA6" stroke-opacity="1.00" stroke-width="0.3"><path d="
M 689.00 146.00 
C 690.14 143.20 691.15 136.77 689.00 134.00
C 690.13 136.11 689.30 143.56 689.00 146.00 Z"/>
</g>
<g fill="None" fill-opacity="0.0" stroke="#857F9C" stroke-opacity="1.00" stroke-width="0.3"><path d="
M 237.00 138.00 
C 238.28 136.19 247.70 136.17 249.00 138.00
C 247.42 134.80 238.59 134.78 237.00 138.00 Z"/>
</g>
<g fill="None" fill-opacity="0.0" stroke="#A09CB2" stroke-opacity="1.00" stroke-width="0.3"><path d="
M 374.00 137.00 
C 378.74 137.33 383.94 137.01 388.00 136.00
C 384.83 136.39 375.88 134.31 374.00 137.00 Z"/>
</g>
<g fill="None" fill-opacity="0.0" stroke="#837E9B" stroke-opacity="1.00" stroke-width="0.3"><path d="
M 65.00 147.00 
C 70.33 147.00 75.67 147.00 81.00 147.00
C 80.37 148.33 81.67 149.26 82.00 150.00
C 80.67 145.61 68.76 143.01 65.00 147.00 Z"/>
</g>
<g fill="None" fill-opacity="0.0" stroke="#757090" stroke-opacity="1.00" stroke-width="0.3"><path d="
M 137.00 149.00 
C 132.83 144.83 121.45 150.04 116.00 148.00
C 119.31 152.73 132.61 145.93 137.00 149.00 Z"/>
</g>
<g fill="None" fill-opacity="0.0" stroke="#757090" stroke-opacity="1.00" stroke-width="0.3"><path d="
M 160.00 149.00 
C 164.62 149.42 177.35 146.45 181.00 149.00
C 178.17 146.17 164.32 147.61 160.00 148.00
C 160.00 148.00 159.96 149.00 160.00 149.00 Z"/>
</g>
<g fill="None" fill-opacity="0.0" stroke="#767190" stroke-opacity="1.00" stroke-width="0.3"><path d="
M 441.00 150.00 
C 441.32 150.24 442.00 150.00 442.00 150.00
C 441.17 146.11 434.17 148.54 431.00 148.00 C 427.83 147.46 421.46 148.40 418.00 148.00
C 421.25 152.65 436.31 146.52 441.00 150.00 Z"/>
</g>
<g fill="None" fill-opacity="0.0" stroke="#7F7A97" stroke-opacity="1.00" stroke-width="0.3"><path d="
M 688.00 148.00 
C 686.86 148.45 681.08 148.54 680.00 148.00
C 681.93 149.39 686.06 149.69 688.00 148.00 Z"/>
</g>
<g fill="None" fill-opacity="0.0" stroke="#9B98AE" stroke-opacity="1.00" stroke-width="0.3"><path d="
M 406.00 159.00 
C 409.38 165.84 421.11 158.48 429.00 161.00 C 436.89 163.52 442.89 159.86 442.00 150.00
C 442.00 150.00 441.32 150.24 441.00 150.00
C 441.00 153.33 441.00 156.67 441.00 160.00
C 436.17 159.07 427.44 161.23 423.00 160.00 C 418.56 158.77 408.70 162.83 406.00 159.00 Z"/>
</g>
<g fill="None" fill-opacity="0.0" stroke="#928EA7" stroke-opacity="1.00" stroke-width="0.3"><path d="
M 83.00 159.00 
C 86.19 163.90 95.20 161.61 95.00 157.00
C 95.00 158.00 95.00 159.00 95.00 160.00
C 91.75 158.91 85.62 161.86 83.00 159.00 Z"/>
</g>
<g fill="None" fill-opacity="0.0" stroke="#918DA6" stroke-opacity="1.00" stroke-width="0.3"><path d="
M 63.00 159.00 
C 60.53 161.59 52.05 160.44 51.00 158.00
C 51.16 161.62 60.08 163.30 63.00 159.00 Z"/>
</g>
<g fill="None" fill-opacity="0.0" stroke="#9592AA" stroke-opacity="1.00" stroke-width="0.3"><path d="
M 314.00 159.00 
C 312.72 160.81 303.30 160.83 302.00 159.00
C 303.58 162.20 312.41 162.22 314.00 159.00 Z"/>
</g>
<g fill="None" fill-opacity="0.0" stroke="#9793AB" stroke-opacity="1.00" stroke-width="0.3"><path d="
M 353.00 159.00 
C 351.72 160.81 342.30 160.83 341.00 159.00
C 342.58 162.20 351.41 162.22 353.00 159.00 Z"/>
</g>
<g fill="None" fill-opacity="0.0" stroke="#9794AB" stroke-opacity="1.00" stroke-width="0.3"><path d="
M 461.00 160.00 
C 462.63 162.33 471.66 161.71 473.00 159.00
C 470.88 162.00 463.89 158.81 461.00 160.00 Z"/>
</g>
<g fill="None" fill-opacity="0.0" stroke="#9491A9" stroke-opacity="1.00" stroke-width="0.3"><path d="
M 523.00 160.00 
C 524.98 162.04 533.53 161.97 535.00 159.00
C 533.48 161.14 525.37 160.21 523.00 160.00 Z"/>
</g>
<g fill="None" fill-opacity="0.0" stroke="#9894AC" stroke-opacity="1.00" stroke-width="0.3"><path d="
M 646.00 160.00 
C 648.28 161.57 655.39 162.26 657.00 159.00
C 655.89 160.58 647.63 160.76 646.00 160.00 Z"/>
</g>
<g fill="None" fill-opacity="0.0" stroke="#546B74" stroke-opacity="1.00" stroke-width="0.3"><path d="
M 1.00 205.00 
C 1.00 204.96 2.00 205.00 2.00 205.00
C 2.00 190.00 2.00 175.00 2.00 160.00
C 2.00 160.00 1.00 159.96 1.00 160.00
C 1.00 175.00 1.00 190.00 1.00 205.00 Z"/>
</g>
<g fill="None" fill-opacity="0.0" stroke="#9895AC" stroke-opacity="1.00" stroke-width="0.3"><path d="
M 137.00 160.00 
C 133.59 162.38 124.29 159.17 120.00 160.00 C 115.71 160.83 108.46 160.40 104.00 160.00
C 106.64 162.73 117.11 160.87 121.00 161.00 C 124.89 161.13 134.41 162.59 137.00 160.00 Z"/>
</g>
<g fill="None" fill-opacity="0.0" stroke="#9490A9" stroke-opacity="1.00" stroke-width="0.3"><path d="
M 239.00 160.00 
C 234.18 160.60 227.82 160.60 223.00 160.00
C 227.92 161.22 234.02 161.23 239.00 160.00 Z"/>
</g>
<g fill="None" fill-opacity="0.0" stroke="#928EA7" stroke-opacity="1.00" stroke-width="0.3"><path d="
M 284.00 160.00 
C 278.88 160.63 272.12 160.63 267.00 160.00
C 272.16 161.28 278.78 161.29 284.00 160.00 Z"/>
</g>
<g fill="None" fill-opacity="0.0" stroke="#9794AB" stroke-opacity="1.00" stroke-width="0.3"><path d="
M 373.00 160.00 
C 372.25 160.53 363.75 160.53 363.00 160.00
C 364.69 161.69 371.27 161.73 373.00 160.00 Z"/>
</g>
<g fill="None" fill-opacity="0.0" stroke="#928EA7" stroke-opacity="1.00" stroke-width="0.3"><path d="
M 601.00 160.00 
C 596.14 160.87 588.90 160.61 584.00 160.00
C 588.98 161.23 595.95 161.60 601.00 160.00 Z"/>
</g>
<g fill="None" fill-opacity="0.0" stroke="#9794AB" stroke-opacity="1.00" stroke-width="0.3"><path d="
M 630.00 160.00 
C 629.25 160.53 620.75 160.53 620.00 160.00
C 621.69 161.69 628.27 161.73 630.00 160.00 Z"/>
</g>
<g fill="None" fill-opacity="0.0" stroke="#928EA7" stroke-opacity="1.00" stroke-width="0.3"><path d="
M 692.00 160.00 
C 687.06 160.61 679.91 160.83 675.00 160.00
C 680.02 161.52 686.91 161.26 692.00 160.00 Z"/>
</g>
<g fill="None" fill-opacity="0.0" stroke="#7C8497" stroke-opacity="1.00" stroke-width="0.3"><path d="
M 1.00 216.00 
C 1.32 212.96 2.00 208.77 2.00 205.00
C 2.00 205.00 1.00 204.96 1.00 205.00
C 1.00 208.67 1.00 212.33 1.00 216.00 Z"/>
</g>
<g fill="None" fill-opacity="0.0" stroke="#815C72" stroke-opacity="1.00" stroke-width="0.3"><path d="
M 1.00 248.00 
C 2.80 239.80 1.88 229.26 1.00 221.00
C 1.00 230.00 1.00 239.00 1.00 248.00 Z"/>
</g>
<g fill="None" fill-opacity="0.0" stroke="#4A506F" stroke-opacity="1.00" stroke-width="0.3"><path d="
M 68.00 251.00 
C 79.78 249.94 92.16 251.00 104.00 251.00
C 92.85 249.48 79.21 249.91 68.00 251.00 Z"/>
</g>
<g fill="None" fill-opacity="0.0" stroke="#544142" stroke-opacity="1.00" stroke-width="0.3"><path d="
M 108.00 251.00 
C 112.67 251.00 117.33 251.00 122.00 251.00
C 117.60 250.57 112.51 250.39 108.00 251.00 Z"/>
</g>
<g fill="None" fill-opacity="0.0" stroke="#554142" stroke-opacity="1.00" stroke-width="0.3"><path d="
M 235.00 251.00 
C 242.56 251.00 250.47 251.68 258.00 251.00
C 257.96 251.00 258.00 250.00 258.00 250.00
C 250.30 250.00 242.01 250.32 235.00 251.00 Z"/>
</g>
<g fill="None" fill-opacity="0.0" stroke="#4D284A" stroke-opacity="1.00" stroke-width="0.3"><path d="
M 258.00 251.00 
C 266.51 250.23 276.49 250.23 285.00 251.00
C 276.76 250.20 267.00 250.00 258.00 250.00
C 258.00 250.00 257.96 251.00 258.00 251.00 Z"/>
</g>
<g fill="None" fill-opacity="0.0" stroke="#534043" stroke-opacity="1.00" stroke-width="0.3"><path d="
M 367.00 251.00 
C 369.26 251.00 371.76 251.30 374.00 251.00
C 374.07 250.99 374.00 250.00 374.00 250.00
C 371.60 250.05 368.75 250.83 367.00 251.00 Z"/>
</g>
<g fill="None" fill-opacity="0.0" stroke="#534C72" stroke-opacity="1.00" stroke-width="0.3"><path d="
M 374.00 251.00 
C 376.95 250.73 380.04 251.00 383.00 251.00
C 380.62 250.77 377.13 249.94 374.00 250.00
C 374.00 250.00 374.07 250.99 374.00 251.00 Z"/>
</g>
<g fill="None" fill-opacity="0.0" stroke="#4C284A" stroke-opacity="1.00" stroke-width="0.3"><path d="
M 391.00 251.00 
C 402.51 251.00 414.55 252.04 426.00 251.00
C 425.96 251.00 426.00 250.00 426.00 250.00
C 414.36 250.00 401.93 249.94 391.00 251.00 Z"/>
</g>
<g fill="None" fill-opacity="0.0" stroke="#4A4F6F" stroke-opacity="1.00" stroke-width="0.3"><path d="
M 426.00 251.00 
C 453.44 248.52 481.56 253.48 509.00 251.00
C 508.96 251.00 509.00 250.00 509.00 250.00
C 481.33 250.00 453.67 250.00 426.00 250.00
C 426.00 250.00 425.96 251.00 426.00 251.00 Z"/>
</g>
<g fill="None" fill-opacity="0.0" stroke="#554242" stroke-opacity="1.00" stroke-width="0.3"><path d="
M 509.00 251.00 
C 520.57 249.95 532.43 252.05 544.00 251.00
C 543.96 251.00 544.00 250.00 544.00 250.00
C 532.33 250.00 520.67 250.00 509.00 250.00
C 509.00 250.00 508.96 251.00 509.00 251.00 Z"/>
</g>
<g fill="None" fill-opacity="0.0" stroke="#4D2849" stroke-opacity="1.00" stroke-width="0.3"><path d="
M 544.00 251.00 
C 553.59 250.13 563.41 251.87 573.00 251.00
C 572.96 251.00 573.00 250.00 573.00 250.00
C 563.33 250.00 553.67 250.00 544.00 250.00
C 544.00 250.00 543.96 251.00 544.00 251.00 Z"/>
</g>
<g fill="None" fill-opacity="0.0" stroke="#554242" stroke-opacity="1.00" stroke-width="0.3"><path d="
M 573.00 251.00 
C 584.57 249.95 596.43 252.05 608.00 251.00
C 607.96 251.00 608.00 250.00 608.00 250.00
C 596.33 250.00 584.67 250.00 573.00 250.00
C 573.00 250.00 572.96 251.00 573.00 251.00 Z"/>
</g>
<g fill="None" fill-opacity="0.0" stroke="#4A4F6F" stroke-opacity="1.00" stroke-width="0.3"><path d="
M 608.00 251.00 
C 654.95 246.76 702.95 254.18 750.00 251.00
L 750.00 250.00
C 702.67 250.00 655.33 250.00 608.00 250.00
C 608.00 250.00 607.96 251.00 608.00 251.00 Z"/>
</g>
<g fill="None" fill-opacity="0.0" stroke="#BFB4BE" stroke-opacity="1.00" stroke-width="0.3"><path d="
M 1.00 252.00 
L 68.00 252.00
C 68.00 251.50 68.00 251.00 68.00 251.00
C 45.87 253.14 23.15 249.00 1.00 251.00
C 1.00 251.00 1.00 251.50 1.00 252.00 Z"/>
</g>
<g fill="None" fill-opacity="0.0" stroke="#C9CBCF" stroke-opacity="1.00" stroke-width="0.3"><path d="
M 68.00 252.00 
L 258.00 252.00
C 258.00 251.50 258.00 251.00 258.00 251.00
C 250.47 251.68 242.56 251.00 235.00 251.00
C 197.33 251.00 159.67 251.00 122.00 251.00
C 117.33 251.00 112.67 251.00 108.00 251.00
C 106.67 251.00 105.33 251.00 104.00 251.00
C 92.16 251.00 79.78 249.94 68.00 251.00
C 68.00 251.00 68.00 251.50 68.00 252.00 Z"/>
</g>
<g fill="None" fill-opacity="0.0" stroke="#C9B6BE" stroke-opacity="1.00" stroke-width="0.3"><path d="
M 258.00 252.00 
L 285.00 252.00
C 285.00 251.50 285.00 251.00 285.00 251.00
C 276.49 250.23 266.51 250.23 258.00 251.00
C 258.00 251.00 258.00 251.50 258.00 252.00 Z"/>
</g>
<g fill="None" fill-opacity="0.0" stroke="#C7CACF" stroke-opacity="1.00" stroke-width="0.3"><path d="
M 285.00 252.00 
L 374.00 252.00
C 374.00 251.50 374.00 251.00 374.00 251.00
C 371.76 251.30 369.26 251.00 367.00 251.00
C 340.04 251.00 311.83 248.57 285.00 251.00
C 285.00 251.00 285.00 251.50 285.00 252.00 Z"/>
</g>
<g fill="None" fill-opacity="0.0" stroke="#CABAC3" stroke-opacity="1.00" stroke-width="0.3"><path d="
M 374.00 252.00 
L 426.00 252.00
C 426.00 251.50 426.00 251.00 426.00 251.00
C 414.55 252.04 402.51 251.00 391.00 251.00
C 388.33 251.00 385.67 251.00 383.00 251.00
C 380.04 251.00 376.95 250.73 374.00 251.00
C 374.00 251.00 374.00 251.50 374.00 252.00 Z"/>
</g>
<g fill="None" fill-opacity="0.0" stroke="#C9CDD4" stroke-opacity="1.00" stroke-width="0.3"><path d="
M 426.00 252.00 
L 509.00 252.00
C 509.00 251.50 509.00 251.00 509.00 251.00
C 481.56 253.48 453.44 248.52 426.00 251.00
C 426.00 251.00 426.00 251.50 426.00 252.00 Z"/>
</g>
<g fill="None" fill-opacity="0.0" stroke="#CFC6B9" stroke-opacity="1.00" stroke-width="0.3"><path d="
M 509.00 252.00 
L 544.00 252.00
C 544.00 251.50 544.00 251.00 544.00 251.00
C 532.43 252.05 520.57 249.95 509.00 251.00
C 509.00 251.00 509.00 251.50 509.00 252.00 Z"/>
</g>
<g fill="None" fill-opacity="0.0" stroke="#CAB6BD" stroke-opacity="1.00" stroke-width="0.3"><path d="
M 544.00 252.00 
L 573.00 252.00
C 573.00 251.50 573.00 251.00 573.00 251.00
C 563.41 251.87 553.59 250.13 544.00 251.00
C 544.00 251.00 544.00 251.50 544.00 252.00 Z"/>
</g>
<g fill="None" fill-opacity="0.0" stroke="#CFC6B9" stroke-opacity="1.00" stroke-width="0.3"><path d="
M 573.00 252.00 
L 608.00 252.00
C 608.00 251.50 608.00 251.00 608.00 251.00
C 596.43 252.05 584.57 249.95 573.00 251.00
C 573.00 251.00 573.00 251.50 573.00 252.00 Z"/>
</g>
<g fill="None" fill-opacity="0.0" stroke="#C8CED4" stroke-opacity="1.00" stroke-width="0.3"><path d="
M 608.00 252.00 
L 750.00 252.00
L 750.00 251.00
C 702.95 254.18 654.95 246.76 608.00 251.00
C 608.00 251.00 608.00 251.50 608.00 252.00 Z"/>
</g>
<g fill="#FFFFFF" fill-opacity="1.00" stroke="None">
<path d="
M 0.00 252.00 
L 1.00 252.00
C 1.00 251.50 1.00 251.00 1.00 251.00
C 1.00 250.00 1.00 249.00 1.00 248.00
C 1.00 239.00 1.00 230.00 1.00 221.00
C 1.00 219.33 1.00 217.67 1.00 216.00
C 1.00 212.33 1.00 208.67 1.00 205.00
C 1.00 190.00 1.00 175.00 1.00 160.00
C 1.00 148.33 1.00 136.67 1.00 125.00
C 1.00 110.00 1.00 95.00 1.00 80.00
C 1.00 76.33 1.00 72.67 1.00 69.00
C 1.00 62.05 0.52 52.72 1.00 46.00 C 1.48 39.28 -0.27 28.84 1.00 23.00 C 2.27 17.16 -2.38 4.07 2.00 1.00
C 6.73 -2.31 16.98 2.48 23.00 1.00 C 29.02 -0.48 37.33 1.64 44.00 1.00 C 50.67 0.36 59.09 1.30 66.00 1.00 C 72.91 0.70 80.00 1.14 87.00 1.00 C 94.00 0.86 100.91 1.06 108.00 1.00 C 115.09 0.94 122.89 1.03 130.00 1.00 C 137.11 0.97 143.90 1.01 151.00 1.00 C 158.10 0.99 164.86 1.01 172.00 1.00 C 179.14 0.99 186.85 1.00 194.00 1.00 C 201.15 1.00 207.84 1.00 215.00 1.00 C 222.16 1.00 229.86 1.00 237.00 1.00 C 244.14 1.00 250.90 1.00 258.00 1.00 C 265.10 1.00 271.87 1.00 279.00 1.00 C 286.13 1.00 293.86 1.00 301.00 1.00 C 308.14 1.00 314.90 1.00 322.00 1.00 C 329.10 1.00 335.86 1.00 343.00 1.00 C 350.14 1.00 357.84 1.00 365.00 1.00 C 372.16 1.00 378.84 1.00 386.00 1.00 C 393.16 1.00 400.86 1.00 408.00 1.00 C 415.14 1.00 421.90 1.00 429.00 1.00 C 436.10 1.00 442.87 1.00 450.00 1.00 C 457.13 1.00 464.86 1.00 472.00 1.00 C 479.14 1.00 485.90 1.00 493.00 1.00 C 500.10 1.00 506.86 1.00 514.00 1.00 C 521.14 1.00 528.84 1.00 536.00 1.00 C 543.16 1.00 549.84 1.00 557.00 1.00 C 564.16 1.00 571.86 1.00 579.00 1.00 C 586.14 1.00 592.90 1.00 600.00 1.00 C 607.11 1.00 613.86 1.00 621.00 1.00 C 628.14 1.00 635.86 1.00 643.00 1.00 C 650.14 1.00 656.89 1.00 664.00 1.00 C 671.11 1.00 677.85 1.00 685.00 1.00 C 692.15 1.00 699.83 1.00 707.00 1.00 C 714.17 1.00 720.80 1.00 728.00 1.00 C 735.20 1.00 742.77 1.00 750.00 1.00
L 750.00 0.00
L 0.00 0.00
L 0.00 252.00 Z"/>
</g>
<g fill="#825D72" fill-opacity="1.00" stroke="None">
<path d="
M 1.00 69.00 
C 1.00 68.96 2.00 69.00 2.00 69.00
C 2.00 46.33 2.00 23.67 2.00 1.00
C -2.38 4.07 2.27 17.16 1.00 23.00 C -0.27 28.84 1.48 39.28 1.00 46.00 C 0.52 52.72 1.00 62.05 1.00 69.00 Z"/>
</g>
<g fill="#2B2354" fill-opacity="1.00" stroke="None">
<path d="
M 2.00 69.00 
C 2.00 72.67 2.00 76.33 2.00 80.00
C 2.00 95.00 2.00 110.00 2.00 125.00
C 2.00 136.67 2.00 148.33 2.00 160.00
C 2.00 175.00 2.00 190.00 2.00 205.00
C 2.00 208.77 1.32 212.96 1.00 216.00
C 1.00 217.67 1.00 219.33 1.00 221.00
C 1.88 229.26 2.80 239.80 1.00 248.00
C 1.00 249.00 1.00 250.00 1.00 251.00
C 23.15 249.00 45.87 253.14 68.00 251.00
C 79.21 249.91 92.85 249.48 104.00 251.00
C 105.33 251.00 106.67 251.00 108.00 251.00
C 112.51 250.39 117.60 250.57 122.00 251.00
C 159.67 251.00 197.33 251.00 235.00 251.00
C 242.01 250.32 250.30 250.00 258.00 250.00
C 267.00 250.00 276.76 250.20 285.00 251.00
C 311.83 248.57 340.04 251.00 367.00 251.00
C 368.75 250.83 371.60 250.05 374.00 250.00
C 377.13 249.94 380.62 250.77 383.00 251.00
C 385.67 251.00 388.33 251.00 391.00 251.00
C 401.93 249.94 414.36 250.00 426.00 250.00
C 453.67 250.00 481.33 250.00 509.00 250.00
C 520.67 250.00 532.33 250.00 544.00 250.00
C 553.67 250.00 563.33 250.00 573.00 250.00
C 584.67 250.00 596.33 250.00 608.00 250.00
C 655.33 250.00 702.67 250.00 750.00 250.00
L 750.00 1.00
C 742.77 1.00 735.20 1.00 728.00 1.00 C 720.80 1.00 714.17 1.00 707.00 1.00 C 699.83 1.00 692.15 1.00 685.00 1.00 C 677.85 1.00 671.11 1.00 664.00 1.00 C 656.89 1.00 650.14 1.00 643.00 1.00 C 635.86 1.00 628.14 1.00 621.00 1.00 C 613.86 1.00 607.11 1.00 600.00 1.00 C 592.90 1.00 586.14 1.00 579.00 1.00 C 571.86 1.00 564.16 1.00 557.00 1.00 C 549.84 1.00 543.16 1.00 536.00 1.00 C 528.84 1.00 521.14 1.00 514.00 1.00 C 506.86 1.00 500.10 1.00 493.00 1.00 C 485.90 1.00 479.14 1.00 472.00 1.00 C 464.86 1.00 457.13 1.00 450.00 1.00 C 442.87 1.00 436.10 1.00 429.00 1.00 C 421.90 1.00 415.14 1.00 408.00 1.00 C 400.86 1.00 393.16 1.00 386.00 1.00 C 378.84 1.00 372.16 1.00 365.00 1.00 C 357.84 1.00 350.14 1.00 343.00 1.00 C 335.86 1.00 329.10 1.00 322.00 1.00 C 314.90 1.00 308.14 1.00 301.00 1.00 C 293.86 1.00 286.13 1.00 279.00 1.00 C 271.87 1.00 265.10 1.00 258.00 1.00 C 250.90 1.00 244.14 1.00 237.00 1.00 C 229.86 1.00 222.16 1.00 215.00 1.00 C 207.84 1.00 201.15 1.00 194.00 1.00 C 186.85 1.00 179.14 0.99 172.00 1.00 C 164.86 1.01 158.10 0.99 151.00 1.00 C 143.90 1.01 137.11 0.97 130.00 1.00 C 122.89 1.03 115.09 0.94 108.00 1.00 C 100.91 1.06 94.00 0.86 87.00 1.00 C 80.00 1.14 72.91 0.70 66.00 1.00 C 59.09 1.30 50.67 0.36 44.00 1.00 C 37.33 1.64 29.02 -0.48 23.00 1.00 C 16.98 2.48 6.73 -2.31 2.00 1.00
C 2.00 23.67 2.00 46.33 2.00 69.00
M 95.00 157.00 
C 95.20 161.61 86.19 163.90 83.00 159.00
C 81.66 156.94 82.72 152.39 82.00 150.00
C 81.67 149.26 80.37 148.33 81.00 147.00
C 75.67 147.00 70.33 147.00 65.00 147.00
C 62.71 149.43 64.92 156.18 63.00 159.00
C 60.08 163.30 51.16 161.62 51.00 158.00
C 50.49 146.51 57.33 134.81 58.33 123.33 C 59.32 111.84 63.49 100.19 66.00 89.00
C 78.49 84.96 82.75 93.25 83.93 103.07 C 85.10 112.90 87.48 120.58 89.00 130.00 C 90.52 139.42 94.29 147.42 95.00 157.00
M 116.00 148.00 
C 121.45 150.04 132.83 144.83 137.00 149.00
C 138.78 150.78 138.74 158.26 137.00 160.00
C 134.41 162.59 124.89 161.13 121.00 161.00 C 117.11 160.87 106.64 162.73 104.00 160.00
C 103.75 159.74 104.00 159.00 104.00 159.00
C 100.47 154.23 103.51 142.16 103.00 136.00 C 102.49 129.84 102.31 117.74 103.00 112.00 C 103.69 106.26 99.87 91.54 105.00 89.00
C 120.18 81.49 115.61 105.87 116.00 113.00 C 116.39 120.13 114.63 124.32 116.00 130.00 C 117.37 135.68 112.95 143.65 116.00 148.00
M 160.00 148.00 
C 164.32 147.61 178.17 146.17 181.00 149.00
C 182.78 150.78 182.74 158.26 181.00 160.00
C 174.79 166.21 163.97 157.65 155.00 161.00 C 146.03 164.35 145.62 148.96 147.00 142.00 C 148.38 135.04 145.26 121.47 147.00 115.00 C 148.74 108.53 142.92 92.01 149.00 89.00
C 150.10 88.45 156.90 88.45 158.00 89.00
C 162.90 91.42 159.14 101.65 160.00 107.00 C 160.86 112.35 159.70 120.88 160.00 127.00 C 160.30 133.12 160.00 141.66 160.00 148.00
M 226.00 103.00 
C 222.87 109.33 227.74 123.35 226.00 130.00 C 224.26 136.65 224.56 153.16 235.00 148.00
C 238.86 145.22 235.25 141.55 237.00 138.00
C 238.59 134.78 247.42 134.80 249.00 138.00
C 253.33 146.76 247.15 157.98 239.00 160.00
C 234.02 161.23 227.92 161.22 223.00 160.00
C 207.41 156.14 213.90 135.92 213.00 123.00 C 212.10 110.08 209.57 91.15 226.01 89.01 C 242.44 86.86 253.21 95.59 249.00 113.00
C 245.00 113.00 241.00 113.00 237.00 113.00
C 240.20 105.28 232.68 96.12 226.00 103.00
M 284.00 160.00 
C 278.78 161.29 272.16 161.28 267.00 160.00
C 254.68 156.95 257.36 140.19 258.00 130.00 C 258.64 119.81 255.16 101.01 260.31 93.31 C 265.45 85.60 285.52 85.72 290.75 93.25 C 295.98 100.78 292.25 119.91 293.00 130.00 C 293.75 140.09 296.15 156.99 284.00 160.00
M 353.00 159.00 
C 351.41 162.22 342.58 162.20 341.00 159.00
C 338.46 153.86 342.49 145.68 341.00 140.00 C 339.51 134.32 342.94 125.98 340.00 121.00
C 339.39 132.73 334.36 136.52 334.01 149.01 C 333.65 161.49 322.05 163.96 321.22 150.78 C 320.40 137.59 316.63 134.14 315.00 122.00
C 312.68 133.43 314.66 146.82 314.00 159.00
C 312.41 162.22 303.58 162.20 302.00 159.00
C 298.18 151.27 304.42 140.63 302.00 132.00 C 299.58 123.37 304.70 113.10 302.00 104.00 C 299.30 94.90 304.74 85.21 314.00 89.00 C 323.26 92.79 318.23 101.98 321.93 109.07 C 325.62 116.17 324.08 124.68 327.00 132.00
C 332.26 126.22 328.65 117.50 332.98 110.98 C 337.30 104.45 330.44 94.28 339.25 89.25 C 348.05 84.22 355.87 93.45 353.00 103.00 C 350.13 112.55 354.50 121.55 353.00 131.00 C 351.50 140.45 354.12 149.58 353.00 159.00
M 397.00 101.00 
C 398.51 108.28 398.29 117.79 397.00 125.00
C 396.55 131.63 394.29 134.44 388.00 136.00
C 383.94 137.01 378.74 137.33 374.00 137.00
C 370.31 142.27 377.80 155.20 373.00 160.00
C 371.27 161.73 364.69 161.69 363.00 160.00
C 359.16 156.16 362.43 144.01 362.00 138.00 C 361.57 131.99 361.00 120.23 362.00 114.00 C 363.00 107.77 358.73 95.51 362.33 90.33 C 365.93 85.15 378.49 90.91 385.00 89.00 C 391.51 87.09 395.94 95.88 397.00 101.00
M 436.00 120.00 
C 437.73 121.73 437.69 128.31 436.00 130.00
C 432.32 133.68 422.78 129.32 418.00 131.00
C 418.00 136.67 418.00 142.33 418.00 148.00
C 421.46 148.40 427.83 147.46 431.00 148.00 C 434.17 148.54 441.17 146.11 442.00 150.00
C 442.89 159.86 436.89 163.52 429.00 161.00 C 421.11 158.48 409.38 165.84 406.00 159.00
C 401.81 150.52 408.81 140.58 406.00 131.00 C 403.19 121.42 409.29 113.83 406.00 103.00 C 402.71 92.17 411.09 86.37 421.00 89.00 C 430.91 91.63 442.27 84.19 442.00 96.00 C 441.73 107.81 424.76 97.47 418.00 101.00
C 418.00 107.00 418.00 113.00 418.00 119.00
C 423.83 119.66 430.99 117.68 436.00 120.00
M 484.00 100.00 
C 481.54 102.46 476.29 100.22 473.00 101.00
C 473.00 120.33 473.00 139.67 473.00 159.00
C 471.66 161.71 462.63 162.33 461.00 160.00
C 457.95 155.65 462.34 146.60 461.00 141.00 C 459.66 135.40 461.70 127.11 461.00 121.00 C 460.30 114.89 461.52 107.25 461.00 101.00
C 457.00 101.00 453.00 101.00 449.00 101.00
C 446.23 91.31 451.49 87.67 460.00 89.00 C 468.51 90.33 474.70 88.00 483.00 89.00
C 485.94 90.45 485.98 98.02 484.00 100.00
M 493.00 89.00 
C 494.10 88.45 500.90 88.45 502.00 89.00
C 507.48 91.71 503.23 106.38 504.00 113.00 C 504.77 119.62 504.33 132.45 504.00 140.00 C 503.67 147.55 508.12 160.38 498.00 161.00 C 487.88 161.61 490.71 148.61 491.00 141.00 C 491.29 133.39 489.83 120.67 491.00 114.00 C 492.17 107.33 487.24 91.85 493.00 89.00
M 535.00 159.00 
C 533.53 161.97 524.98 162.04 523.00 160.00
C 522.75 159.74 523.00 159.00 523.00 159.00
C 518.09 152.37 523.74 139.55 522.00 131.00 C 520.26 122.45 523.31 109.91 522.00 101.00
C 519.54 99.28 513.76 102.29 511.00 101.00
C 508.33 91.25 513.36 87.75 522.00 89.00 C 530.64 90.25 537.52 88.07 546.00 89.00
C 546.00 93.00 546.00 97.00 546.00 101.00
C 542.33 101.00 538.67 101.00 535.00 101.00
C 535.00 120.33 535.00 139.67 535.00 159.00
M 566.00 159.00 
C 563.12 164.83 550.57 160.99 553.00 154.00 C 555.44 147.01 551.48 138.65 553.00 132.00 C 554.52 125.35 551.38 115.84 553.00 110.00 C 554.62 104.16 549.37 91.78 555.00 89.00
C 566.31 83.41 567.54 97.21 566.00 105.00 C 564.46 112.79 567.89 124.17 566.00 132.00 C 564.11 139.83 569.51 151.91 566.00 159.00
M 601.00 160.00 
C 595.95 161.60 588.98 161.23 584.00 160.00
C 577.68 158.43 576.29 156.21 575.00 150.00
C 572.16 136.31 571.64 112.54 575.00 99.00
C 579.88 79.30 614.54 89.42 610.00 106.00 C 605.46 122.58 620.34 153.89 601.00 160.00
M 643.00 125.00 
C 642.60 121.13 644.19 111.49 644.00 107.00 C 643.81 102.51 641.97 91.00 646.00 89.00
C 657.31 83.41 658.54 97.21 657.00 105.00 C 655.46 112.79 658.89 124.17 657.00 132.00 C 655.11 139.83 660.51 151.91 657.00 159.00
C 655.39 162.26 648.28 161.57 646.00 160.00
C 641.04 156.60 641.88 147.08 639.02 141.98 C 636.17 136.87 634.74 129.33 632.00 124.00
C 629.02 134.93 632.99 149.14 630.00 160.00
C 628.27 161.73 621.69 161.69 620.00 160.00
C 615.28 155.28 620.45 141.98 619.00 135.00 C 617.55 128.02 619.62 116.50 619.00 109.00 C 618.38 101.50 616.53 87.90 626.00 89.00 C 635.47 90.10 631.97 98.87 635.93 105.07 C 639.88 111.28 639.79 118.60 643.00 125.00
M 690.00 112.00 
C 687.90 109.90 689.89 106.65 689.00 104.00
C 683.25 92.88 673.18 109.50 678.00 117.00
C 685.37 120.80 702.36 120.14 702.00 131.00 C 701.64 141.86 705.16 157.46 692.00 160.00
C 686.91 161.26 680.02 161.52 675.00 160.00
C 664.66 156.86 665.37 146.59 666.00 137.00
C 670.00 137.00 674.00 137.00 678.00 137.00
C 678.77 140.50 676.14 146.02 680.00 148.00
C 681.08 148.54 686.86 148.45 688.00 148.00
C 688.84 147.27 688.85 147.23 689.00 146.00
C 689.30 143.56 690.13 136.11 689.00 134.00
C 685.04 128.88 665.74 130.69 666.01 121.99 C 666.27 113.29 662.48 96.94 670.25 91.25 C 678.02 85.56 691.21 88.39 698.75 93.25 C 706.29 98.11 701.14 123.14 690.00 112.00 Z"/>
</g>
<g fill="#7E8598" fill-opacity="1.00" stroke="None">
<path d="
M 1.00 80.00 
C 1.00 79.96 2.00 80.00 2.00 80.00
C 2.00 76.33 2.00 72.67 2.00 69.00
C 2.00 69.00 1.00 68.96 1.00 69.00
C 1.00 72.67 1.00 76.33 1.00 80.00 Z"/>
</g>
<g fill="#546B74" fill-opacity="1.00" stroke="None">
<path d="
M 1.00 125.00 
C 1.00 124.96 2.00 125.00 2.00 125.00
C 2.00 110.00 2.00 95.00 2.00 80.00
C 2.00 80.00 1.00 79.96 1.00 80.00
C 1.00 95.00 1.00 110.00 1.00 125.00 Z"/>
</g>
<g fill="#F6F6F8" fill-opacity="1.00" stroke="None">
<path d="
M 51.00 158.00 
C 52.05 160.44 60.53 161.59 63.00 159.00
C 64.92 156.18 62.71 149.43 65.00 147.00
C 68.76 143.01 80.67 145.61 82.00 150.00
C 82.72 152.39 81.66 156.94 83.00 159.00
C 85.62 161.86 91.75 158.91 95.00 160.00
C 95.00 159.00 95.00 158.00 95.00 157.00
C 94.29 147.42 90.52 139.42 89.00 130.00 C 87.48 120.58 85.10 112.90 83.93 103.07 C 82.75 93.25 78.49 84.96 66.00 89.00
C 63.49 100.19 59.32 111.84 58.33 123.33 C 57.33 134.81 50.49 146.51 51.00 158.00
M 74.00 110.00 
C 76.79 118.10 76.45 127.51 78.00 136.00
C 74.67 136.00 71.33 136.00 68.00 136.00
C 68.51 127.47 71.20 119.49 72.00 111.00
C 72.32 109.75 71.76 108.27 72.00 107.00
C 74.03 106.36 74.06 108.69 74.00 110.00 Z"/>
</g>
<g fill="#85819C" fill-opacity="1.00" stroke="None">
<path d="
M 104.00 159.00 
C 104.00 153.44 103.81 147.53 104.00 142.00 C 104.19 136.47 103.54 129.31 104.00 124.00 C 104.46 118.69 102.96 110.62 104.00 106.00 C 105.04 101.38 101.22 91.68 105.00 89.00
C 99.87 91.54 103.69 106.26 103.00 112.00 C 102.31 117.74 102.49 129.84 103.00 136.00 C 103.51 142.16 100.47 154.23 104.00 159.00 Z"/>
</g>
<g fill="#F9F9FA" fill-opacity="1.00" stroke="None">
<path d="
M 104.00 159.00 
C 104.00 159.00 103.75 159.74 104.00 160.00
C 108.46 160.40 115.71 160.83 120.00 160.00 C 124.29 159.17 133.59 162.38 137.00 160.00
C 138.74 158.26 138.78 150.78 137.00 149.00
C 132.61 145.93 119.31 152.73 116.00 148.00
C 112.95 143.65 117.37 135.68 116.00 130.00 C 114.63 124.32 116.39 120.13 116.00 113.00 C 115.61 105.87 120.18 81.49 105.00 89.00
C 101.22 91.68 105.04 101.38 104.00 106.00 C 102.96 110.62 104.46 118.69 104.00 124.00 C 103.54 129.31 104.19 136.47 104.00 142.00 C 103.81 147.53 104.00 153.44 104.00 159.00 Z"/>
</g>
<g fill="#9B97AD" fill-opacity="1.00" stroke="None">
<path d="
M 181.00 160.00 
C 177.33 162.57 169.63 158.73 165.00 160.00 C 160.37 161.27 152.89 159.05 148.00 160.00
C 148.66 136.42 146.67 112.13 149.00 89.00
C 142.92 92.01 148.74 108.53 147.00 115.00 C 145.26 121.47 148.38 135.04 147.00 142.00 C 145.62 148.96 146.03 164.35 155.00 161.00 C 163.97 157.65 174.79 166.21 181.00 160.00 Z"/>
</g>
<g fill="#FCFCFD" fill-opacity="1.00" stroke="None">
<path d="
M 181.00 160.00 
C 182.74 158.26 182.78 150.78 181.00 149.00
C 177.35 146.45 164.62 149.42 160.00 149.00
C 156.12 145.27 160.51 135.22 159.00 130.00 C 157.49 124.78 160.64 113.98 159.00 109.00 C 157.36 104.02 162.34 92.07 158.00 89.00
C 156.90 88.45 150.10 88.45 149.00 89.00
C 146.67 112.13 148.66 136.42 148.00 160.00
C 152.89 159.05 160.37 161.27 165.00 160.00 C 169.63 158.73 177.33 162.57 181.00 160.00 Z"/>
</g>
<g fill="#9D99AF" fill-opacity="1.00" stroke="None">
<path d="
M 160.00 149.00 
C 159.96 149.00 160.00 148.00 160.00 148.00
C 160.00 141.66 160.30 133.12 160.00 127.00 C 159.70 120.88 160.86 112.35 160.00 107.00 C 159.14 101.65 162.90 91.42 158.00 89.00
C 162.34 92.07 157.36 104.02 159.00 109.00 C 160.64 113.98 157.49 124.78 159.00 130.00 C 160.51 135.22 156.12 145.27 160.00 149.00 Z"/>
</g>
<g fill="#F7F7F8" fill-opacity="1.00" stroke="None">
<path d="
M 223.00 160.00 
C 227.82 160.60 234.18 160.60 239.00 160.00
C 247.15 157.98 253.33 146.76 249.00 138.00
C 247.70 136.17 238.28 136.19 237.00 138.00
C 235.25 141.55 238.86 145.22 235.00 148.00
C 224.96 155.24 222.95 137.99 225.00 131.00 C 227.05 124.01 221.66 109.01 226.00 103.00
C 232.68 96.12 240.20 105.28 237.00 113.00
C 241.00 113.00 245.00 113.00 249.00 113.00
C 253.21 95.59 242.44 86.86 226.01 89.01 C 209.57 91.15 212.10 110.08 213.00 123.00 C 213.90 135.92 207.41 156.14 223.00 160.00 Z"/>
</g>
<g fill="#FBFBFC" fill-opacity="1.00" stroke="None">
<path d="
M 267.00 160.00 
C 272.12 160.63 278.88 160.63 284.00 160.00
C 296.15 156.99 293.75 140.09 293.00 130.00 C 292.25 119.91 295.98 100.78 290.75 93.25 C 285.52 85.72 265.45 85.60 260.31 93.31 C 255.16 101.01 258.64 119.81 258.00 130.00 C 257.36 140.19 254.68 156.95 267.00 160.00
M 270.00 146.00 
C 267.35 140.88 269.01 131.12 269.00 125.00 C 268.99 118.88 267.38 109.07 270.00 104.00
C 274.84 94.63 283.36 104.12 282.00 112.00 C 280.64 119.88 280.64 130.12 282.00 138.00 C 283.36 145.88 274.85 155.38 270.00 146.00 Z"/>
</g>
<g fill="#F5F5F7" fill-opacity="1.00" stroke="None">
<path d="
M 302.00 159.00 
C 303.30 160.83 312.72 160.81 314.00 159.00
C 314.66 146.82 312.68 133.43 315.00 122.00
C 316.63 134.14 320.40 137.59 321.22 150.78 C 322.05 163.96 333.65 161.49 334.01 149.01 C 334.36 136.52 339.39 132.73 340.00 121.00
C 342.94 125.98 339.51 134.32 341.00 140.00 C 342.49 145.68 338.46 153.86 341.00 159.00
C 342.30 160.83 351.72 160.81 353.00 159.00
C 354.12 149.58 351.50 140.45 353.00 131.00 C 354.50 121.55 350.13 112.55 353.00 103.00 C 355.87 93.45 348.05 84.22 339.25 89.25 C 330.44 94.28 337.30 104.45 332.98 110.98 C 328.65 117.50 332.26 126.22 327.00 132.00
C 324.08 124.68 325.62 116.17 321.93 109.07 C 318.23 101.98 323.26 92.79 314.00 89.00 C 304.74 85.21 299.30 94.90 302.00 104.00 C 304.70 113.10 299.58 123.37 302.00 132.00 C 304.42 140.63 298.18 151.27 302.00 159.00 Z"/>
</g>
<g fill="#F9F9FA" fill-opacity="1.00" stroke="None">
<path d="
M 363.00 160.00 
C 363.75 160.53 372.25 160.53 373.00 160.00
C 377.80 155.20 370.31 142.27 374.00 137.00
C 375.88 134.31 384.83 136.39 388.00 136.00
C 394.29 134.44 396.55 131.63 397.00 125.00
C 397.52 117.33 397.70 108.65 397.00 101.00
C 395.94 95.88 391.51 87.09 385.00 89.00 C 378.49 90.91 365.93 85.15 362.33 90.33 C 358.73 95.51 363.00 107.77 362.00 114.00 C 361.00 120.23 361.57 131.99 362.00 138.00 C 362.43 144.01 359.16 156.16 363.00 160.00
M 374.00 125.00 
C 374.00 117.00 374.00 109.00 374.00 101.00
C 384.98 98.08 384.97 104.62 385.00 113.00 C 385.03 121.38 384.46 127.45 374.00 125.00 Z"/>
</g>
<g fill="#F9F8FA" fill-opacity="1.00" stroke="None">
<path d="
M 406.00 159.00 
C 408.70 162.83 418.56 158.77 423.00 160.00 C 427.44 161.23 436.17 159.07 441.00 160.00
C 441.00 156.67 441.00 153.33 441.00 150.00
C 436.31 146.52 421.25 152.65 418.00 148.00
C 418.00 142.33 418.00 136.67 418.00 131.00
C 422.78 129.32 432.32 133.68 436.00 130.00
C 436.53 129.25 436.53 120.75 436.00 120.00
C 430.99 117.68 423.83 119.66 418.00 119.00
C 418.00 113.00 418.00 107.00 418.00 101.00
C 424.76 97.47 441.73 107.81 442.00 96.00 C 442.27 84.19 430.91 91.63 421.00 89.00 C 411.09 86.37 402.71 92.17 406.00 103.00 C 409.29 113.83 403.19 121.42 406.00 131.00 C 408.81 140.58 401.81 150.52 406.00 159.00 Z"/>
</g>
<g fill="#F9F9FA" fill-opacity="1.00" stroke="None">
<path d="
M 461.00 160.00 
C 463.89 158.81 470.88 162.00 473.00 159.00
C 473.00 139.67 473.00 120.33 473.00 101.00
C 476.29 100.22 481.54 102.46 484.00 100.00
C 484.92 98.68 484.39 89.98 483.00 89.00
C 474.70 88.00 468.51 90.33 460.00 89.00 C 451.49 87.67 446.23 91.31 449.00 101.00
C 453.00 101.00 457.00 101.00 461.00 101.00
C 461.52 107.25 460.30 114.89 461.00 121.00 C 461.70 127.11 459.66 135.40 461.00 141.00 C 462.34 146.60 457.95 155.65 461.00 160.00 Z"/>
</g>
<g fill="#918EA7" fill-opacity="1.00" stroke="None">
<path d="
M 484.00 100.00 
C 485.98 98.02 485.94 90.45 483.00 89.00
C 484.39 89.98 484.92 98.68 484.00 100.00 Z"/>
</g>
<g fill="#9C98AE" fill-opacity="1.00" stroke="None">
<path d="
M 502.00 89.00 
C 505.81 91.70 501.94 101.36 503.00 106.00 C 504.06 110.64 502.50 118.63 503.00 124.00 C 503.50 129.37 502.74 136.33 503.00 142.00 C 503.26 147.67 502.81 154.25 503.00 160.00
C 499.33 160.00 495.67 160.00 492.00 160.00
C 492.66 136.42 490.67 112.13 493.00 89.00
C 487.24 91.85 492.17 107.33 491.00 114.00 C 489.83 120.67 491.29 133.39 491.00 141.00 C 490.71 148.61 487.88 161.61 498.00 161.00 C 508.12 160.38 503.67 147.55 504.00 140.00 C 504.33 132.45 504.77 119.62 504.00 113.00 C 503.23 106.38 507.48 91.71 502.00 89.00 Z"/>
</g>
<g fill="#FDFDFD" fill-opacity="1.00" stroke="None">
<path d="
M 502.00 89.00 
C 500.90 88.45 494.10 88.45 493.00 89.00
C 490.67 112.13 492.66 136.42 492.00 160.00
C 495.67 160.00 499.33 160.00 503.00 160.00
C 502.81 154.25 503.26 147.67 503.00 142.00 C 502.74 136.33 503.50 129.37 503.00 124.00 C 502.50 118.63 504.06 110.64 503.00 106.00 C 501.94 101.36 505.81 91.70 502.00 89.00 Z"/>
</g>
<g fill="#F7F7F9" fill-opacity="1.00" stroke="None">
<path d="
M 522.00 101.00 
C 525.85 103.69 522.03 113.85 523.00 119.00 C 523.97 124.15 522.63 133.13 523.00 139.00 C 523.37 144.87 523.00 152.93 523.00 159.00
C 523.00 159.00 522.75 159.74 523.00 160.00
C 525.37 160.21 533.48 161.14 535.00 159.00
C 535.00 139.67 535.00 120.33 535.00 101.00
C 538.67 101.00 542.33 101.00 546.00 101.00
C 546.00 97.00 546.00 93.00 546.00 89.00
C 537.52 88.07 530.64 90.25 522.00 89.00 C 513.36 87.75 508.33 91.25 511.00 101.00
C 513.76 102.29 519.54 99.28 522.00 101.00 Z"/>
</g>
<g fill="#8A85A0" fill-opacity="1.00" stroke="None">
<path d="
M 566.00 159.00 
C 563.87 162.02 556.88 158.79 554.00 160.00
C 554.66 136.42 552.67 112.13 555.00 89.00
C 549.37 91.78 554.62 104.16 553.00 110.00 C 551.38 115.84 554.52 125.35 553.00 132.00 C 551.48 138.65 555.44 147.01 553.00 154.00 C 550.57 160.99 563.12 164.83 566.00 159.00 Z"/>
</g>
<g fill="#F6F6F8" fill-opacity="1.00" stroke="None">
<path d="
M 566.00 159.00 
C 569.51 151.91 564.11 139.83 566.00 132.00 C 567.89 124.17 564.46 112.79 566.00 105.00 C 567.54 97.21 566.31 83.41 555.00 89.00
C 552.67 112.13 554.66 136.42 554.00 160.00
C 556.88 158.79 563.87 162.02 566.00 159.00 Z"/>
</g>
<g fill="#FBFBFC" fill-opacity="1.00" stroke="None">
<path d="
M 575.00 99.00 
C 573.05 114.69 573.57 134.24 575.00 150.00
C 576.29 156.21 577.68 158.43 584.00 160.00
C 588.90 160.61 596.14 160.87 601.00 160.00
C 620.34 153.89 605.46 122.58 610.00 106.00 C 614.54 89.42 579.88 79.30 575.00 99.00
M 598.00 104.00 
C 600.65 109.12 598.99 118.88 599.00 125.00 C 599.01 131.12 600.62 140.93 598.00 146.00
C 593.20 155.30 584.79 145.86 586.00 138.00 C 587.21 130.14 587.42 119.88 586.00 112.00 C 584.58 104.12 593.16 94.64 598.00 104.00 Z"/>
</g>
<g fill="#F7F7F8" fill-opacity="1.00" stroke="None">
<path d="
M 620.00 160.00 
C 620.75 160.53 629.25 160.53 630.00 160.00
C 632.99 149.14 629.02 134.93 632.00 124.00
C 634.74 129.33 636.17 136.87 639.02 141.98 C 641.88 147.08 641.04 156.60 646.00 160.00
C 647.63 160.76 655.89 160.58 657.00 159.00
C 660.51 151.91 655.11 139.83 657.00 132.00 C 658.89 124.17 655.46 112.79 657.00 105.00 C 658.54 97.21 657.31 83.41 646.00 89.00
C 641.85 91.94 646.40 103.12 645.00 108.00 C 643.60 112.88 646.05 122.67 645.00 128.00
C 643.71 127.56 642.79 126.42 643.00 125.00
C 639.79 118.60 639.88 111.28 635.93 105.07 C 631.97 98.87 635.47 90.10 626.00 89.00 C 616.53 87.90 618.38 101.50 619.00 109.00 C 619.62 116.50 617.55 128.02 619.00 135.00 C 620.45 141.98 615.28 155.28 620.00 160.00 Z"/>
</g>
<g fill="#736E8F" fill-opacity="1.00" stroke="None">
<path d="
M 643.00 125.00 
C 642.79 126.42 643.71 127.56 645.00 128.00
C 646.05 122.67 643.60 112.88 645.00 108.00 C 646.40 103.12 641.85 91.94 646.00 89.00
C 641.97 91.00 643.81 102.51 644.00 107.00 C 644.19 111.49 642.60 121.13 643.00 125.00 Z"/>
</g>
<g fill="#F6F6F8" fill-opacity="1.00" stroke="None">
<path d="
M 689.00 134.00 
C 691.15 136.77 690.14 143.20 689.00 146.00
C 688.85 147.23 688.84 147.27 688.00 148.00
C 686.06 149.69 681.93 149.39 680.00 148.00
C 676.14 146.02 678.77 140.50 678.00 137.00
C 674.00 137.00 670.00 137.00 666.00 137.00
C 665.37 146.59 664.66 156.86 675.00 160.00
C 679.91 160.83 687.06 160.61 692.00 160.00
C 705.16 157.46 701.64 141.86 702.00 131.00 C 702.36 120.14 685.37 120.80 678.00 117.00
C 673.18 109.50 683.25 92.88 689.00 104.00
C 689.98 105.89 688.88 110.40 690.00 112.00
C 701.14 123.14 706.29 98.11 698.75 93.25 C 691.21 88.39 678.02 85.56 670.25 91.25 C 662.48 96.94 666.27 113.29 666.01 121.99 C 665.74 130.69 685.04 128.88 689.00 134.00 Z"/>
</g>
<g fill="#9592AA" fill-opacity="1.00" stroke="None">
<path d="
M 575.00 150.00 
C 573.57 134.24 573.05 114.69 575.00 99.00
C 571.64 112.54 572.16 136.31 575.00 150.00 Z"/>
</g>
<g fill="#2F2757" fill-opacity="1.00" stroke="None">
<path d="
M 270.00 104.00 
C 268.12 109.55 270.00 119.09 270.00 125.00 C 270.00 130.91 268.12 140.45 270.00 146.00
C 274.85 155.38 283.36 145.88 282.00 138.00 C 280.64 130.12 280.64 119.88 282.00 112.00 C 283.36 104.12 274.84 94.63 270.00 104.00 Z"/>
</g>
<g fill="#302959" fill-opacity="1.00" stroke="None">
<path d="
M 374.00 125.00 
C 384.46 127.45 385.03 121.38 385.00 113.00 C 384.97 104.62 384.98 98.08 374.00 101.00
C 374.00 109.00 374.00 117.00 374.00 125.00 Z"/>
</g>
<g fill="#777291" fill-opacity="1.00" stroke="None">
<path d="
M 397.00 125.00 
C 398.29 117.79 398.51 108.28 397.00 101.00
C 397.70 108.65 397.52 117.33 397.00 125.00 Z"/>
</g>
<g fill="#8B87A2" fill-opacity="1.00" stroke="None">
<path d="
M 523.00 159.00 
C 523.00 152.93 523.37 144.87 523.00 139.00 C 522.63 133.13 523.97 124.15 523.00 119.00 C 522.03 113.85 525.85 103.69 522.00 101.00
C 523.31 109.91 520.26 122.45 522.00 131.00 C 523.74 139.55 518.09 152.37 523.00 159.00 Z"/>
</g>
<g fill="#302958" fill-opacity="1.00" stroke="None">
<path d="
M 598.00 146.00 
C 599.88 140.45 598.00 130.91 598.00 125.00 C 598.00 119.09 599.88 109.55 598.00 104.00
C 593.16 94.64 584.58 104.12 586.00 112.00 C 587.42 119.88 587.21 130.14 586.00 138.00 C 584.79 145.86 593.20 155.30 598.00 146.00 Z"/>
</g>
<g fill="#807B98" fill-opacity="1.00" stroke="None">
<path d="
M 235.00 148.00 
C 224.56 153.16 224.26 136.65 226.00 130.00 C 227.74 123.35 222.87 109.33 226.00 103.00
C 221.66 109.01 227.05 124.01 225.00 131.00 C 222.95 137.99 224.96 155.24 235.00 148.00 Z"/>
</g>
<g fill="#9A97AE" fill-opacity="1.00" stroke="None">
<path d="
M 270.00 146.00 
C 268.12 140.45 270.00 130.91 270.00 125.00 C 270.00 119.09 268.12 109.55 270.00 104.00
C 267.38 109.07 268.99 118.88 269.00 125.00 C 269.01 131.12 267.35 140.88 270.00 146.00 Z"/>
</g>
<g fill="#88839F" fill-opacity="1.00" stroke="None">
<path d="
M 598.00 146.00 
C 600.62 140.93 599.01 131.12 599.00 125.00 C 598.99 118.88 600.65 109.12 598.00 104.00
C 599.88 109.55 598.00 119.09 598.00 125.00 C 598.00 130.91 599.88 140.45 598.00 146.00 Z"/>
</g>
<g fill="#8F8BA5" fill-opacity="1.00" stroke="None">
<path d="
M 690.00 112.00 
C 688.88 110.40 689.98 105.89 689.00 104.00
C 689.89 106.65 687.90 109.90 690.00 112.00 Z"/>
</g>
<g fill="#7F7B98" fill-opacity="1.00" stroke="None">
<path d="
M 72.00 111.00 
C 72.16 110.71 73.96 110.14 74.00 110.00
C 74.06 108.69 74.03 106.36 72.00 107.00
C 71.76 108.27 72.32 109.75 72.00 111.00 Z"/>
</g>
<g fill="#332C5B" fill-opacity="1.00" stroke="None">
<path d="
M 72.00 111.00 
C 71.20 119.49 68.51 127.47 68.00 136.00
C 71.33 136.00 74.67 136.00 78.00 136.00
C 76.45 127.51 76.79 118.10 74.00 110.00
C 73.96 110.14 72.16 110.71 72.00 111.00 Z"/>
</g>
<g fill="#9793AA" fill-opacity="1.00" stroke="None">
<path d="
M 436.00 130.00 
C 437.69 128.31 437.73 121.73 436.00 120.00
C 436.53 120.75 436.53 129.25 436.00 130.00 Z"/>
</g>
<g fill="#8B7869" fill-opacity="1.00" stroke="None">
<path d="
M 1.00 160.00 
C 1.00 159.96 2.00 160.00 2.00 160.00
C 2.00 148.33 2.00 136.67 2.00 125.00
C 2.00 125.00 1.00 124.96 1.00 125.00
C 1.00 136.67 1.00 148.33 1.00 160.00 Z"/>
</g>
<g fill="#908CA6" fill-opacity="1.00" stroke="None">
<path d="
M 689.00 146.00 
C 690.14 143.20 691.15 136.77 689.00 134.00
C 690.13 136.11 689.30 143.56 689.00 146.00 Z"/>
</g>
<g fill="#857F9C" fill-opacity="1.00" stroke="None">
<path d="
M 237.00 138.00 
C 238.28 136.19 247.70 136.17 249.00 138.00
C 247.42 134.80 238.59 134.78 237.00 138.00 Z"/>
</g>
<g fill="#A09CB2" fill-opacity="1.00" stroke="None">
<path d="
M 374.00 137.00 
C 378.74 137.33 383.94 137.01 388.00 136.00
C 384.83 136.39 375.88 134.31 374.00 137.00 Z"/>
</g>
<g fill="#837E9B" fill-opacity="1.00" stroke="None">
<path d="
M 65.00 147.00 
C 70.33 147.00 75.67 147.00 81.00 147.00
C 80.37 148.33 81.67 149.26 82.00 150.00
C 80.67 145.61 68.76 143.01 65.00 147.00 Z"/>
</g>
<g fill="#757090" fill-opacity="1.00" stroke="None">
<path d="
M 137.00 149.00 
C 132.83 144.83 121.45 150.04 116.00 148.00
C 119.31 152.73 132.61 145.93 137.00 149.00 Z"/>
</g>
<g fill="#757090" fill-opacity="1.00" stroke="None">
<path d="
M 160.00 149.00 
C 164.62 149.42 177.35 146.45 181.00 149.00
C 178.17 146.17 164.32 147.61 160.00 148.00
C 160.00 148.00 159.96 149.00 160.00 149.00 Z"/>
</g>
<g fill="#767190" fill-opacity="1.00" stroke="None">
<path d="
M 441.00 150.00 
C 441.32 150.24 442.00 150.00 442.00 150.00
C 441.17 146.11 434.17 148.54 431.00 148.00 C 427.83 147.46 421.46 148.40 418.00 148.00
C 421.25 152.65 436.31 146.52 441.00 150.00 Z"/>
</g>
<g fill="#7F7A97" fill-opacity="1.00" stroke="None">
<path d="
M 688.00 148.00 
C 686.86 148.45 681.08 148.54 680.00 148.00
C 681.93 149.39 686.06 149.69 688.00 148.00 Z"/>
</g>
<g fill="#9B98AE" fill-opacity="1.00" stroke="None">
<path d="
M 406.00 159.00 
C 409.38 165.84 421.11 158.48 429.00 161.00 C 436.89 163.52 442.89 159.86 442.00 150.00
C 442.00 150.00 441.32 150.24 441.00 150.00
C 441.00 153.33 441.00 156.67 441.00 160.00
C 436.17 159.07 427.44 161.23 423.00 160.00 C 418.56 158.77 408.70 162.83 406.00 159.00 Z"/>
</g>
<g fill="#928EA7" fill-opacity="1.00" stroke="None">
<path d="
M 83.00 159.00 
C 86.19 163.90 95.20 161.61 95.00 157.00
C 95.00 158.00 95.00 159.00 95.00 160.00
C 91.75 158.91 85.62 161.86 83.00 159.00 Z"/>
</g>
<g fill="#918DA6" fill-opacity="1.00" stroke="None">
<path d="
M 63.00 159.00 
C 60.53 161.59 52.05 160.44 51.00 158.00
C 51.16 161.62 60.08 163.30 63.00 159.00 Z"/>
</g>
<g fill="#9592AA" fill-opacity="1.00" stroke="None">
<path d="
M 314.00 159.00 
C 312.72 160.81 303.30 160.83 302.00 159.00
C 303.58 162.20 312.41 162.22 314.00 159.00 Z"/>
</g>
<g fill="#9793AB" fill-opacity="1.00" stroke="None">
<path d="
M 353.00 159.00 
C 351.72 160.81 342.30 160.83 341.00 159.00
C 342.58 162.20 351.41 162.22 353.00 159.00 Z"/>
</g>
<g fill="#9794AB" fill-opacity="1.00" stroke="None">
<path d="
M 461.00 160.00 
C 462.63 162.33 471.66 161.71 473.00 159.00
C 470.88 162.00 463.89 158.81 461.00 160.00 Z"/>
</g>
<g fill="#9491A9" fill-opacity="1.00" stroke="None">
<path d="
M 523.00 160.00 
C 524.98 162.04 533.53 161.97 535.00 159.00
C 533.48 161.14 525.37 160.21 523.00 160.00 Z"/>
</g>
<g fill="#9894AC" fill-opacity="1.00" stroke="None">
<path d="
M 646.00 160.00 
C 648.28 161.57 655.39 162.26 657.00 159.00
C 655.89 160.58 647.63 160.76 646.00 160.00 Z"/>
</g>
<g fill="#546B74" fill-opacity="1.00" stroke="None">
<path d="
M 1.00 205.00 
C 1.00 204.96 2.00 205.00 2.00 205.00
C 2.00 190.00 2.00 175.00 2.00 160.00
C 2.00 160.00 1.00 159.96 1.00 160.00
C 1.00 175.00 1.00 190.00 1.00 205.00 Z"/>
</g>
<g fill="#9895AC" fill-opacity="1.00" stroke="None">
<path d="
M 137.00 160.00 
C 133.59 162.38 124.29 159.17 120.00 160.00 C 115.71 160.83 108.46 160.40 104.00 160.00
C 106.64 162.73 117.11 160.87 121.00 161.00 C 124.89 161.13 134.41 162.59 137.00 160.00 Z"/>
</g>
<g fill="#9490A9" fill-opacity="1.00" stroke="None">
<path d="
M 239.00 160.00 
C 234.18 160.60 227.82 160.60 223.00 160.00
C 227.92 161.22 234.02 161.23 239.00 160.00 Z"/>
</g>
<g fill="#928EA7" fill-opacity="1.00" stroke="None">
<path d="
M 284.00 160.00 
C 278.88 160.63 272.12 160.63 267.00 160.00
C 272.16 161.28 278.78 161.29 284.00 160.00 Z"/>
</g>
<g fill="#9794AB" fill-opacity="1.00" stroke="None">
<path d="
M 373.00 160.00 
C 372.25 160.53 363.75 160.53 363.00 160.00
C 364.69 161.69 371.27 161.73 373.00 160.00 Z"/>
</g>
<g fill="#928EA7" fill-opacity="1.00" stroke="None">
<path d="
M 601.00 160.00 
C 596.14 160.87 588.90 160.61 584.00 160.00
C 588.98 161.23 595.95 161.60 601.00 160.00 Z"/>
</g>
<g fill="#9794AB" fill-opacity="1.00" stroke="None">
<path d="
M 630.00 160.00 
C 629.25 160.53 620.75 160.53 620.00 160.00
C 621.69 161.69 628.27 161.73 630.00 160.00 Z"/>
</g>
<g fill="#928EA7" fill-opacity="1.00" stroke="None">
<path d="
M 692.00 160.00 
C 687.06 160.61 679.91 160.83 675.00 160.00
C 680.02 161.52 686.91 161.26 692.00 160.00 Z"/>
</g>
<g fill="#7C8497" fill-opacity="1.00" stroke="None">
<path d="
M 1.00 216.00 
C 1.32 212.96 2.00 208.77 2.00 205.00
C 2.00 205.00 1.00 204.96 1.00 205.00
C 1.00 208.67 1.00 212.33 1.00 216.00 Z"/>
</g>
<g fill="#815C72" fill-opacity="1.00" stroke="None">
<path d="
M 1.00 248.00 
C 2.80 239.80 1.88 229.26 1.00 221.00
C 1.00 230.00 1.00 239.00 1.00 248.00 Z"/>
</g>
<g fill="#4A506F" fill-opacity="1.00" stroke="None">
<path d="
M 68.00 251.00 
C 79.78 249.94 92.16 251.00 104.00 251.00
C 92.85 249.48 79.21 249.91 68.00 251.00 Z"/>
</g>
<g fill="#544142" fill-opacity="1.00" stroke="None">
<path d="
M 108.00 251.00 
C 112.67 251.00 117.33 251.00 122.00 251.00
C 117.60 250.57 112.51 250.39 108.00 251.00 Z"/>
</g>
<g fill="#554142" fill-opacity="1.00" stroke="None">
<path d="
M 235.00 251.00 
C 242.56 251.00 250.47 251.68 258.00 251.00
C 257.96 251.00 258.00 250.00 258.00 250.00
C 250.30 250.00 242.01 250.32 235.00 251.00 Z"/>
</g>
<g fill="#4D284A" fill-opacity="1.00" stroke="None">
<path d="
M 258.00 251.00 
C 266.51 250.23 276.49 250.23 285.00 251.00
C 276.76 250.20 267.00 250.00 258.00 250.00
C 258.00 250.00 257.96 251.00 258.00 251.00 Z"/>
</g>
<g fill="#534043" fill-opacity="1.00" stroke="None">
<path d="
M 367.00 251.00 
C 369.26 251.00 371.76 251.30 374.00 251.00
C 374.07 250.99 374.00 250.00 374.00 250.00
C 371.60 250.05 368.75 250.83 367.00 251.00 Z"/>
</g>
<g fill="#534C72" fill-opacity="1.00" stroke="None">
<path d="
M 374.00 251.00 
C 376.95 250.73 380.04 251.00 383.00 251.00
C 380.62 250.77 377.13 249.94 374.00 250.00
C 374.00 250.00 374.07 250.99 374.00 251.00 Z"/>
</g>
<g fill="#4C284A" fill-opacity="1.00" stroke="None">
<path d="
M 391.00 251.00 
C 402.51 251.00 414.55 252.04 426.00 251.00
C 425.96 251.00 426.00 250.00 426.00 250.00
C 414.36 250.00 401.93 249.94 391.00 251.00 Z"/>
</g>
<g fill="#4A4F6F" fill-opacity="1.00" stroke="None">
<path d="
M 426.00 251.00 
C 453.44 248.52 481.56 253.48 509.00 251.00
C 508.96 251.00 509.00 250.00 509.00 250.00
C 481.33 250.00 453.67 250.00 426.00 250.00
C 426.00 250.00 425.96 251.00 426.00 251.00 Z"/>
</g>
<g fill="#554242" fill-opacity="1.00" stroke="None">
<path d="
M 509.00 251.00 
C 520.57 249.95 532.43 252.05 544.00 251.00
C 543.96 251.00 544.00 250.00 544.00 250.00
C 532.33 250.00 520.67 250.00 509.00 250.00
C 509.00 250.00 508.96 251.00 509.00 251.00 Z"/>
</g>
<g fill="#4D2849" fill-opacity="1.00" stroke="None">
<path d="
M 544.00 251.00 
C 553.59 250.13 563.41 251.87 573.00 251.00
C 572.96 251.00 573.00 250.00 573.00 250.00
C 563.33 250.00 553.67 250.00 544.00 250.00
C 544.00 250.00 543.96 251.00 544.00 251.00 Z"/>
</g>
<g fill="#554242" fill-opacity="1.00" stroke="None">
<path d="
M 573.00 251.00 
C 584.57 249.95 596.43 252.05 608.00 251.00
C 607.96 251.00 608.00 250.00 608.00 250.00
C 596.33 250.00 584.67 250.00 573.00 250.00
C 573.00 250.00 572.96 251.00 573.00 251.00 Z"/>
</g>
<g fill="#4A4F6F" fill-opacity="1.00" stroke="None">
<path d="
M 608.00 251.00 
C 654.95 246.76 702.95 254.18 750.00 251.00
L 750.00 250.00
C 702.67 250.00 655.33 250.00 608.00 250.00
C 608.00 250.00 607.96 251.00 608.00 251.00 Z"/>
</g>
<g fill="#BFB4BE" fill-opacity="1.00" stroke="None">
<path d="
M 1.00 252.00 
L 68.00 252.00
C 68.00 251.50 68.00 251.00 68.00 251.00
C 45.87 253.14 23.15 249.00 1.00 251.00
C 1.00 251.00 1.00 251.50 1.00 252.00 Z"/>
</g>
<g fill="#C9CBCF" fill-opacity="1.00" stroke="None">
<path d="
M 68.00 252.00 
L 258.00 252.00
C 258.00 251.50 258.00 251.00 258.00 251.00
C 250.47 251.68 242.56 251.00 235.00 251.00
C 197.33 251.00 159.67 251.00 122.00 251.00
C 117.33 251.00 112.67 251.00 108.00 251.00
C 106.67 251.00 105.33 251.00 104.00 251.00
C 92.16 251.00 79.78 249.94 68.00 251.00
C 68.00 251.00 68.00 251.50 68.00 252.00 Z"/>
</g>
<g fill="#C9B6BE" fill-opacity="1.00" stroke="None">
<path d="
M 258.00 252.00 
L 285.00 252.00
C 285.00 251.50 285.00 251.00 285.00 251.00
C 276.49 250.23 266.51 250.23 258.00 251.00
C 258.00 251.00 258.00 251.50 258.00 252.00 Z"/>
</g>
<g fill="#C7CACF" fill-opacity="1.00" stroke="None">
<path d="
M 285.00 252.00 
L 374.00 252.00
C 374.00 251.50 374.00 251.00 374.00 251.00
C 371.76 251.30 369.26 251.00 367.00 251.00
C 340.04 251.00 311.83 248.57 285.00 251.00
C 285.00 251.00 285.00 251.50 285.00 252.00 Z"/>
</g>
<g fill="#CABAC3" fill-opacity="1.00" stroke="None">
<path d="
M 374.00 252.00 
L 426.00 252.00
C 426.00 251.50 426.00 251.00 426.00 251.00
C 414.55 252.04 402.51 251.00 391.00 251.00
C 388.33 251.00 385.67 251.00 383.00 251.00
C 380.04 251.00 376.95 250.73 374.00 251.00
C 374.00 251.00 374.00 251.50 374.00 252.00 Z"/>
</g>
<g fill="#C9CDD4" fill-opacity="1.00" stroke="None">
<path d="
M 426.00 252.00 
L 509.00 252.00
C 509.00 251.50 509.00 251.00 509.00 251.00
C 481.56 253.48 453.44 248.52 426.00 251.00
C 426.00 251.00 426.00 251.50 426.00 252.00 Z"/>
</g>
<g fill="#CFC6B9" fill-opacity="1.00" stroke="None">
<path d="
M 509.00 252.00 
L 544.00 252.00
C 544.00 251.50 544.00 251.00 544.00 251.00
C 532.43 252.05 520.57 249.95 509.00 251.00
C 509.00 251.00 509.00 251.50 509.00 252.00 Z"/>
</g>
<g fill="#CAB6BD" fill-opacity="1.00" stroke="None">
<path d="
M 544.00 252.00 
L 573.00 252.00
C 573.00 251.50 573.00 251.00 573.00 251.00
C 563.41 251.87 553.59 250.13 544.00 251.00
C 544.00 251.00 544.00 251.50 544.00 252.00 Z"/>
</g>
<g fill="#CFC6B9" fill-opacity="1.00" stroke="None">
<path d="
M 573.00 252.00 
L 608.00 252.00
C 608.00 251.50 608.00 251.00 608.00 251.00
C 596.43 252.05 584.57 249.95 573.00 251.00
C 573.00 251.00 573.00 251.50 573.00 252.00 Z"/>
</g>
<g fill="#C8CED4" fill-opacity="1.00" stroke="None">
<path d="
M 608.00 252.00 
L 750.00 252.00
L 750.00 251.00
C 702.95 254.18 654.95 246.76 608.00 251.00
C 608.00 251.00 608.00 251.50 608.00 252.00 Z"/>
</g>
</svg>