<svg xmlns="http://www.w3.org/2000/svg" xmlns:v="https://svgstorm.com"
viewBox = "0 0 225 225"
width="225"
height="225">
<g fill="None" fill-opacity="0.0" stroke="#FEFEFE" stroke-opacity="1.00" stroke-width="0.3"><path d="
M 0.00 225.00 
L 225.00 225.00
L 225.00 0.00
L 0.00 0.00
L 0.00 225.00
M 122.00 21.00 
C 155.21 21.00 187.49 43.56 189.98 80.02 C 192.46 116.49 151.60 136.00 119.00 136.00
C 113.93 136.49 108.03 136.61 103.00 136.00
C 90.13 135.74 71.45 131.68 60.92 125.08 C 50.40 118.47 36.95 111.81 32.25 99.75 C 27.54 87.70 38.09 71.54 43.25 60.25 C 48.42 48.97 58.68 39.87 69.75 32.75 C 80.81 25.63 98.15 21.00 112.00 21.00
C 115.14 20.70 118.92 20.70 122.00 21.00
M 28.00 115.00 
C 45.59 168.70 135.76 191.51 165.00 137.00
C 176.13 143.13 186.78 150.35 198.00 156.00
C 182.43 196.26 133.84 210.10 93.99 203.01 C 54.15 195.92 20.21 156.68 28.00 115.00 Z"/>
</g>
<g fill="None" fill-opacity="0.0" stroke="#807E86" stroke-opacity="1.00" stroke-width="0.3"><path d="
M 112.00 21.00 
C 115.33 21.00 118.67 21.00 122.00 21.00
C 118.92 20.70 115.14 20.70 112.00 21.00 Z"/>
</g>
<g fill="None" fill-opacity="0.0" stroke="#342C3E" stroke-opacity="1.00" stroke-width="0.3"><path d="
M 103.00 136.00 
C 108.33 136.11 113.67 136.00 119.00 136.00
C 151.60 136.00 192.46 116.49 189.98 80.02 C 187.49 43.56 155.21 21.00 122.00 21.00
C 118.67 21.00 115.33 21.00 112.00 21.00
C 98.15 21.00 80.81 25.63 69.75 32.75 C 58.68 39.87 48.42 48.97 43.25 60.25 C 38.09 71.54 27.54 87.70 32.25 99.75 C 36.95 111.81 50.40 118.47 60.92 125.08 C 71.45 131.68 90.13 135.74 103.00 136.00
M 126.00 59.00 
C 136.96 60.78 151.81 72.64 148.00 86.00 C 144.19 99.36 128.62 103.03 116.00 103.00 C 103.38 102.97 84.61 103.72 73.92 96.08 C 63.24 88.43 76.17 75.50 85.23 68.23 C 94.29 60.96 113.17 56.92 126.00 59.00 Z"/>
</g>
<g fill="None" fill-opacity="0.0" stroke="#FCFCFC" stroke-opacity="1.00" stroke-width="0.3"><path d="
M 126.00 59.00 
C 113.17 56.92 94.29 60.96 85.23 68.23 C 76.17 75.50 63.24 88.43 73.92 96.08 C 84.61 103.72 103.38 102.97 116.00 103.00 C 128.62 103.03 144.19 99.36 148.00 86.00 C 151.81 72.64 136.96 60.78 126.00 59.00 Z"/>
</g>
<g fill="None" fill-opacity="0.0" stroke="#2AB060" stroke-opacity="1.00" stroke-width="0.3"><path d="
M 28.00 115.00 
C 20.21 156.68 54.15 195.92 93.99 203.01 C 133.84 210.10 182.43 196.26 198.00 156.00
C 186.78 150.35 176.13 143.13 165.00 137.00
C 135.76 191.51 45.59 168.70 28.00 115.00 Z"/>
</g>
<g fill="None" fill-opacity="0.0" stroke="#8F8E95" stroke-opacity="1.00" stroke-width="0.3"><path d="
M 119.00 136.00 
C 113.67 136.00 108.33 136.11 103.00 136.00
C 108.03 136.61 113.93 136.49 119.00 136.00 Z"/>
</g>
<g fill="#FEFEFE" fill-opacity="1.00" stroke="None">
<path d="
M 0.00 225.00 
L 225.00 225.00
L 225.00 0.00
L 0.00 0.00
L 0.00 225.00
M 122.00 21.00 
C 155.21 21.00 187.49 43.56 189.98 80.02 C 192.46 116.49 151.60 136.00 119.00 136.00
C 113.93 136.49 108.03 136.61 103.00 136.00
C 90.13 135.74 71.45 131.68 60.92 125.08 C 50.40 118.47 36.95 111.81 32.25 99.75 C 27.54 87.70 38.09 71.54 43.25 60.25 C 48.42 48.97 58.68 39.87 69.75 32.75 C 80.81 25.63 98.15 21.00 112.00 21.00
C 115.14 20.70 118.92 20.70 122.00 21.00
M 28.00 115.00 
C 45.59 168.70 135.76 191.51 165.00 137.00
C 176.13 143.13 186.78 150.35 198.00 156.00
C 182.43 196.26 133.84 210.10 93.99 203.01 C 54.15 195.92 20.21 156.68 28.00 115.00 Z"/>
</g>
<g fill="#807E86" fill-opacity="1.00" stroke="None">
<path d="
M 112.00 21.00 
C 115.33 21.00 118.67 21.00 122.00 21.00
C 118.92 20.70 115.14 20.70 112.00 21.00 Z"/>
</g>
<g fill="#342C3E" fill-opacity="1.00" stroke="None">
<path d="
M 103.00 136.00 
C 108.33 136.11 113.67 136.00 119.00 136.00
C 151.60 136.00 192.46 116.49 189.98 80.02 C 187.49 43.56 155.21 21.00 122.00 21.00
C 118.67 21.00 115.33 21.00 112.00 21.00
C 98.15 21.00 80.81 25.63 69.75 32.75 C 58.68 39.87 48.42 48.97 43.25 60.25 C 38.09 71.54 27.54 87.70 32.25 99.75 C 36.95 111.81 50.40 118.47 60.92 125.08 C 71.45 131.68 90.13 135.74 103.00 136.00
M 126.00 59.00 
C 136.96 60.78 151.81 72.64 148.00 86.00 C 144.19 99.36 128.62 103.03 116.00 103.00 C 103.38 102.97 84.61 103.72 73.92 96.08 C 63.24 88.43 76.17 75.50 85.23 68.23 C 94.29 60.96 113.17 56.92 126.00 59.00 Z"/>
</g>
<g fill="#FCFCFC" fill-opacity="1.00" stroke="None">
<path d="
M 126.00 59.00 
C 113.17 56.92 94.29 60.96 85.23 68.23 C 76.17 75.50 63.24 88.43 73.92 96.08 C 84.61 103.72 103.38 102.97 116.00 103.00 C 128.62 103.03 144.19 99.36 148.00 86.00 C 151.81 72.64 136.96 60.78 126.00 59.00 Z"/>
</g>
<g fill="#2AB060" fill-opacity="1.00" stroke="None">
<path d="
M 28.00 115.00 
C 20.21 156.68 54.15 195.92 93.99 203.01 C 133.84 210.10 182.43 196.26 198.00 156.00
C 186.78 150.35 176.13 143.13 165.00 137.00
C 135.76 191.51 45.59 168.70 28.00 115.00 Z"/>
</g>
<g fill="#8F8E95" fill-opacity="1.00" stroke="None">
<path d="
M 119.00 136.00 
C 113.67 136.00 108.33 136.11 103.00 136.00
C 108.03 136.61 113.93 136.49 119.00 136.00 Z"/>
</g>
</svg>