<svg xmlns="http://www.w3.org/2000/svg" xmlns:v="https://svgstorm.com"
viewBox = "0 0 500 500"
width="500"
height="500">
<g fill="None" fill-opacity="0.0" stroke="#FEFEFE" stroke-opacity="1.00" stroke-width="0.3"><path d="
M 0.00 500.00 
L 500.00 500.00
L 500.00 0.00
L 0.00 0.00
L 0.00 500.00
M 316.00 158.00 
C 318.00 158.08 320.00 157.94 322.00 158.00
C 320.28 160.27 321.27 163.34 321.00 166.00
C 323.33 166.00 325.67 166.00 328.00 166.00
C 328.35 161.86 332.48 158.56 336.00 157.00
C 332.83 154.08 332.86 145.19 338.23 144.23 C 343.60 143.28 346.25 153.02 342.00 156.00
C 353.38 155.47 360.98 169.34 355.07 179.07 C 349.16 188.81 334.22 188.16 328.00 179.00
C 326.16 189.89 325.57 201.02 324.00 212.00
C 326.08 207.11 329.16 203.59 334.25 199.25 C 339.33 194.90 349.10 200.59 347.00 207.00 C 344.89 213.42 350.24 223.69 343.00 227.00
C 345.67 227.00 348.33 227.00 351.00 227.00
C 351.79 223.17 354.60 220.00 355.00 216.00
C 361.28 215.95 359.30 224.82 361.00 229.00
C 364.33 229.00 367.67 229.00 371.00 229.00
C 368.11 215.96 387.16 209.17 391.00 223.00
C 402.79 212.89 402.59 241.15 391.00 232.00
C 389.18 239.89 380.24 243.77 374.00 238.00
C 373.57 237.83 373.00 238.00 373.00 238.00
C 373.25 241.30 374.39 245.34 373.67 248.67 C 372.95 252.00 369.18 253.77 369.00 257.00
C 375.06 271.04 363.66 271.16 353.00 273.00
C 357.51 275.88 349.52 286.11 345.30 287.30 C 341.09 288.49 331.40 292.98 334.00 300.00
C 342.31 303.36 355.05 306.11 362.69 310.31 C 370.34 314.50 384.81 318.79 380.69 329.69 C 376.57 340.60 359.74 335.16 352.31 330.69 C 344.87 326.23 336.87 317.93 330.00 315.00
C 328.70 322.68 326.42 348.16 313.00 336.00
C 313.83 343.55 300.11 343.38 293.78 338.22 C 287.44 333.07 274.68 343.40 283.08 348.92 C 291.49 354.44 293.93 355.78 300.08 360.92 C 306.23 366.06 310.58 370.65 315.25 375.75 C 319.91 380.85 324.88 390.50 319.75 395.75 C 314.62 400.99 304.59 403.26 297.78 400.22 C 290.96 397.18 289.24 387.92 287.02 380.98 C 284.81 374.03 284.07 365.36 281.02 357.98 C 277.98 350.59 274.64 344.28 265.00 344.00 C 255.35 343.72 258.20 355.68 249.99 357.99 C 241.78 360.31 237.41 348.07 229.92 348.08 C 222.44 348.08 227.73 367.74 225.00 373.00
C 238.41 376.63 220.57 394.95 220.00 379.00
C 210.15 379.04 193.01 377.03 192.01 364.99 C 191.01 352.95 199.74 344.88 204.00 335.00
C 202.61 333.79 197.63 329.43 197.00 328.00
C 193.69 335.45 183.39 333.16 179.25 327.75 C 175.11 322.34 180.20 313.65 184.00 311.00
C 181.63 311.49 179.37 311.47 177.00 312.00
C 176.82 321.37 173.28 328.48 173.00 338.00 C 172.72 347.53 166.14 352.97 158.75 345.25 C 151.36 337.53 152.69 330.40 153.00 320.00
C 143.26 319.53 138.00 312.22 138.00 303.00
C 138.00 286.77 151.04 291.91 158.00 283.00
C 147.15 287.47 134.43 286.62 129.00 275.00
C 122.92 282.05 105.02 271.45 107.01 262.99 C 109.00 254.53 109.52 256.73 114.25 252.25 C 118.97 247.76 125.08 252.31 130.07 251.93 C 135.07 251.54 135.65 260.87 138.00 262.00
C 139.65 261.26 142.16 260.67 144.00 260.00
C 148.67 255.68 149.44 250.24 156.25 247.25 C 163.05 244.25 158.91 232.23 159.00 227.00
C 172.78 227.23 171.16 208.52 159.30 206.70 C 147.45 204.87 139.26 195.03 140.00 184.00 C 140.74 172.97 148.70 160.37 160.00 162.00 C 171.30 163.64 168.62 182.33 182.00 183.00
C 182.58 178.34 183.64 173.75 184.00 169.00
C 186.67 169.00 189.33 169.00 192.00 169.00
C 190.77 163.53 193.88 157.80 200.02 158.02 C 206.17 158.25 206.12 165.60 210.00 167.00
C 212.63 166.80 215.89 168.21 218.00 168.00
C 220.03 167.79 222.97 164.96 226.00 166.00 C 229.03 167.04 230.22 167.87 233.00 167.00
C 233.82 166.75 235.66 165.40 238.00 165.00
C 237.21 160.16 238.90 149.42 245.03 149.03 C 251.16 148.63 253.68 158.64 254.00 163.00
C 262.19 163.34 270.05 161.63 278.00 161.00
C 276.87 149.16 278.27 120.96 295.00 121.00 C 311.74 121.04 312.88 147.17 316.00 158.00
M 158.00 211.00 
C 164.30 212.10 162.86 225.10 155.99 223.99 C 149.12 222.88 151.22 209.82 158.00 211.00
M 123.00 231.00 
C 131.69 232.57 129.28 245.96 119.77 244.21 C 110.26 242.47 112.38 229.08 123.00 231.00
M 390.00 260.00 
C 395.64 262.73 391.38 276.48 384.78 272.22 C 378.18 267.97 384.02 257.11 390.00 260.00 Z"/>
</g>
<g fill="None" fill-opacity="0.0" stroke="#F8A229" stroke-opacity="1.00" stroke-width="0.3"><path d="
M 278.00 161.00 
C 281.31 160.74 284.68 161.20 288.00 161.00
C 287.61 163.36 285.62 167.16 288.00 169.00
C 287.00 158.41 296.62 160.67 303.00 160.00
C 307.02 159.58 311.15 157.81 316.00 158.00
C 312.88 147.17 311.74 121.04 295.00 121.00 C 278.27 120.96 276.87 149.16 278.00 161.00 Z"/>
</g>
<g fill="None" fill-opacity="0.0" stroke="#F8A22B" stroke-opacity="1.00" stroke-width="0.3"><path d="
M 328.00 166.00 
C 327.70 169.59 328.74 174.63 328.00 179.00
C 334.22 188.16 349.16 188.81 355.07 179.07 C 360.98 169.34 353.38 155.47 342.00 156.00
C 346.25 153.02 343.60 143.28 338.23 144.23 C 332.86 145.19 332.83 154.08 336.00 157.00
C 332.48 158.56 328.35 161.86 328.00 166.00 Z"/>
</g>
<g fill="None" fill-opacity="0.0" stroke="#F4A12E" stroke-opacity="1.00" stroke-width="0.3"><path d="
M 238.00 165.00 
C 242.19 164.28 246.51 163.60 251.00 164.00
C 251.56 166.52 249.81 170.30 252.00 172.00
C 254.04 169.80 254.15 166.13 254.00 163.00
C 253.68 158.64 251.16 148.63 245.03 149.03 C 238.90 149.42 237.21 160.16 238.00 165.00 Z"/>
</g>
<g fill="None" fill-opacity="0.0" stroke="#F3A235" stroke-opacity="1.00" stroke-width="0.3"><path d="
M 192.00 169.00 
C 197.60 168.51 204.82 167.40 210.00 167.00
C 206.12 165.60 206.17 158.25 200.02 158.02 C 193.88 157.80 190.77 163.53 192.00 169.00 Z"/>
</g>
<g fill="None" fill-opacity="0.0" stroke="#000000" stroke-opacity="1.00" stroke-width="0.3"><path d="
M 303.00 160.00 
C 300.27 163.67 301.72 175.30 301.00 180.00
C 298.93 193.58 301.12 214.47 289.00 222.00
C 290.61 208.33 292.59 194.74 294.00 181.00
C 294.56 177.11 295.50 173.18 295.00 169.00
C 292.67 169.00 290.33 169.00 288.00 169.00
C 285.62 167.16 287.61 163.36 288.00 161.00
C 284.68 161.20 281.31 160.74 278.00 161.00
C 270.05 161.63 262.19 163.34 254.00 163.00
C 254.15 166.13 254.04 169.80 252.00 172.00
C 249.81 170.30 251.56 166.52 251.00 164.00
C 246.51 163.60 242.19 164.28 238.00 165.00
C 235.66 165.40 233.82 166.75 233.00 167.00
C 229.22 172.69 232.43 182.71 230.00 189.00
C 225.79 184.70 228.43 172.55 219.00 175.00
C 219.29 172.51 217.36 170.61 218.00 168.00
C 215.89 168.21 212.63 166.80 210.00 167.00
C 204.82 167.40 197.60 168.51 192.00 169.00
C 189.33 169.00 186.67 169.00 184.00 169.00
C 183.64 173.75 182.58 178.34 182.00 183.00
C 179.27 204.99 176.78 227.01 174.00 249.00
C 176.84 249.59 180.98 247.78 183.00 250.00
C 169.58 251.73 156.92 256.22 144.00 260.00
C 142.16 260.67 139.65 261.26 138.00 262.00
C 133.39 264.06 127.86 269.19 129.00 275.00
C 134.43 286.62 147.15 287.47 158.00 283.00
C 151.04 291.91 138.00 286.77 138.00 303.00
C 139.40 307.91 148.86 312.63 153.00 314.00
C 153.00 316.00 153.00 318.00 153.00 320.00
C 152.69 330.40 151.36 337.53 158.75 345.25 C 166.14 352.97 172.72 347.53 173.00 338.00 C 173.28 328.48 176.82 321.37 177.00 312.00
C 179.37 311.47 181.63 311.49 184.00 311.00
C 188.23 310.12 193.35 308.70 198.00 308.00
C 198.62 311.58 196.38 314.40 197.00 318.00
C 196.89 320.32 197.00 322.68 197.00 325.00
C 197.00 325.72 196.71 327.35 197.00 328.00
C 197.63 329.43 202.61 333.79 204.00 335.00
C 212.93 342.78 224.03 330.95 231.70 325.70 C 239.36 320.45 251.25 314.99 255.00 306.00
C 258.12 306.57 260.76 308.68 264.00 309.00
C 249.30 312.18 233.15 325.33 248.75 337.25 C 264.36 349.16 276.48 335.66 291.08 329.08 C 305.69 322.51 310.11 302.07 294.00 294.00
C 296.79 286.44 305.45 281.94 312.00 288.00
C 310.90 303.43 298.53 323.85 313.00 336.00
C 326.42 348.16 328.70 322.68 330.00 315.00
C 331.80 304.37 332.92 298.23 333.99 286.99 C 335.06 275.76 342.60 274.79 353.00 273.00
C 363.66 271.16 375.06 271.04 369.00 257.00
C 364.95 247.61 363.65 243.81 373.00 238.00
C 373.00 238.00 373.57 237.83 374.00 238.00
C 375.69 236.64 382.89 234.48 382.92 231.92 C 382.94 229.35 372.98 229.11 371.00 229.00
C 367.67 229.00 364.33 229.00 361.00 229.00
C 359.30 224.82 361.28 215.95 355.00 216.00
C 354.60 220.00 351.79 223.17 351.00 227.00
C 348.33 227.00 345.67 227.00 343.00 227.00
C 340.00 227.00 337.00 227.00 334.00 227.00
C 332.86 230.20 337.33 231.08 337.00 234.00
C 339.99 237.64 348.30 242.34 341.00 247.00
C 335.34 250.61 327.46 247.68 320.98 250.98 C 314.49 254.27 308.50 248.99 305.00 244.00
C 318.47 239.84 322.97 224.54 324.00 212.00
C 325.57 201.02 326.16 189.89 328.00 179.00
C 328.74 174.63 327.70 169.59 328.00 166.00
C 325.67 166.00 323.33 166.00 321.00 166.00
C 321.27 163.34 320.28 160.27 322.00 158.00
C 320.00 157.94 318.00 158.08 316.00 158.00
C 311.15 157.81 307.02 159.58 303.00 160.00
M 277.00 237.00 
C 274.60 237.29 272.37 237.34 270.00 237.00
C 253.58 236.44 250.33 223.10 252.98 208.98 C 255.63 194.85 254.98 180.95 258.00 167.00
C 266.48 166.95 274.46 164.89 283.00 165.00
C 280.72 183.12 280.02 193.23 277.02 212.02 C 274.02 230.82 301.03 228.85 300.99 210.99 C 300.95 193.13 306.62 180.44 307.00 163.00
C 310.46 163.21 313.40 161.30 317.00 162.00
C 312.44 189.73 318.30 238.91 277.00 237.00
M 247.00 168.00 
C 244.33 192.07 240.45 215.85 238.00 240.00
C 231.26 237.48 215.41 246.55 211.08 239.92 C 206.76 233.28 206.96 223.91 203.07 216.93 C 199.19 209.94 199.34 200.54 195.00 194.00
C 193.39 210.75 190.54 227.21 189.00 244.00
C 185.92 245.18 182.42 245.09 179.00 245.00
C 179.79 234.14 181.12 225.01 182.00 214.00 C 182.88 202.99 186.47 194.91 186.00 183.00 C 185.53 171.09 197.75 172.13 208.07 171.07 C 218.40 170.02 217.31 185.51 220.98 193.02 C 224.64 200.54 225.78 211.78 230.00 219.00
C 232.25 202.41 235.02 185.93 236.00 169.00
C 239.87 169.48 243.05 167.29 247.00 168.00
M 368.00 234.00 
C 365.80 236.83 362.00 238.04 359.00 240.00
C 360.17 242.85 361.00 245.82 361.00 249.00
C 358.36 248.84 356.38 245.98 355.00 244.00
C 351.36 244.57 349.02 248.11 346.00 250.00
C 346.76 243.74 350.90 237.46 344.00 232.00
C 349.41 232.76 354.47 232.21 355.00 226.00
C 356.32 233.01 361.90 233.11 368.00 234.00
M 204.00 231.00 
C 205.42 236.06 207.07 241.07 209.00 246.00
C 212.57 244.97 215.59 247.22 215.00 251.00
C 210.77 248.58 206.00 247.72 201.00 248.00
C 202.76 242.62 201.73 235.87 204.00 231.00
M 277.00 249.00 
C 269.26 254.55 261.24 260.37 254.00 267.00
C 254.07 259.96 246.59 255.97 242.00 252.00
C 253.41 254.74 249.88 239.99 251.00 233.00
C 259.61 238.67 264.79 250.79 277.00 249.00
M 308.00 258.00 
C 318.26 255.81 328.46 253.23 339.00 252.00
C 335.23 256.77 335.99 265.57 341.70 260.70 C 347.40 255.82 347.89 254.16 354.00 251.00
C 355.83 254.74 360.77 256.57 362.00 260.00
C 353.19 262.37 347.80 265.82 337.78 265.78 C 327.75 265.74 325.74 274.58 324.67 282.67 C 323.60 290.76 321.51 303.32 321.00 310.00 C 320.49 316.68 318.19 331.78 312.25 328.74 C 306.31 325.70 312.17 309.59 312.98 303.98 C 313.79 298.36 319.10 284.65 311.25 280.75 C 303.40 276.85 296.74 270.83 290.08 280.08 C 283.42 289.34 279.24 282.79 284.92 274.92 C 290.59 267.04 292.66 264.35 298.00 257.00
C 283.42 260.25 271.44 274.71 264.00 287.00
C 273.09 290.22 285.23 289.73 292.25 297.75 C 299.27 305.77 292.05 317.48 282.25 321.25 C 272.46 325.03 268.02 333.12 254.93 332.93 C 241.83 332.73 245.95 318.37 257.68 316.68 C 269.40 314.99 275.52 308.48 283.00 302.00
C 271.20 301.15 245.54 300.49 248.93 284.93 C 252.31 269.36 264.43 265.00 274.23 256.23 C 284.03 247.46 306.19 240.33 308.00 258.00
M 208.00 253.00 
C 221.81 257.19 201.60 269.40 195.00 270.00
C 194.64 265.11 201.02 264.53 204.00 262.00
C 197.55 262.64 185.94 262.41 179.32 266.32 C 172.71 270.24 176.57 284.44 172.00 290.00
C 173.33 290.00 174.67 290.00 176.00 290.00
C 181.96 290.92 188.60 289.75 194.00 291.00
C 196.20 291.51 198.37 290.96 200.00 293.00
C 205.58 288.41 213.00 284.80 212.00 276.00
C 199.31 271.84 218.22 264.63 221.00 259.00
C 228.20 257.42 250.18 255.21 240.75 264.75 C 231.32 274.29 219.36 266.78 218.00 282.00
C 222.37 277.08 235.07 279.30 231.07 286.07 C 227.08 292.85 220.35 290.57 215.31 295.31 C 210.26 300.04 211.75 308.10 209.00 314.00
C 215.09 312.48 219.91 304.63 225.75 302.75 C 231.58 300.86 237.00 290.45 243.69 295.31 C 250.39 300.16 239.46 307.26 234.77 309.77 C 230.08 312.28 222.70 318.15 218.25 321.25 C 213.80 324.36 203.26 332.90 201.03 323.97 C 198.79 315.05 204.24 308.19 205.00 300.00
C 195.68 297.22 190.34 301.53 179.99 300.99 C 169.64 300.46 165.08 311.59 165.67 319.67 C 166.26 327.75 161.23 345.23 157.08 336.92 C 152.93 328.61 159.62 313.63 158.00 305.00
C 145.03 312.55 135.60 292.51 150.22 292.22 C 164.85 291.94 162.27 280.86 166.00 270.00
C 154.75 270.42 152.71 276.06 140.78 276.78 C 128.84 277.50 135.84 265.59 145.22 264.22 C 154.61 262.85 160.79 258.58 170.02 257.02 C 179.26 255.47 189.08 252.93 199.00 253.00
C 202.17 252.62 204.73 252.01 208.00 253.00
M 227.00 255.00 
C 223.73 255.46 220.29 254.66 217.00 255.00
C 219.10 252.92 223.15 254.50 226.00 254.00
C 227.27 253.90 230.02 252.03 232.00 253.00
C 230.89 254.20 228.71 254.66 227.00 255.00
M 250.00 273.00 
C 245.84 277.86 245.09 284.67 243.00 290.00
C 240.61 287.60 239.57 281.54 236.00 279.00
C 240.91 277.59 245.07 274.29 250.00 273.00
M 191.00 287.00 
C 188.94 286.96 185.20 287.84 184.00 286.00
C 183.77 285.65 183.89 284.48 184.00 284.00
C 184.66 281.04 186.39 278.27 186.00 275.00
C 189.28 274.57 192.47 273.52 196.00 274.00
C 196.50 278.92 202.28 280.01 206.00 278.00
C 209.27 286.06 197.04 288.14 191.00 287.00 Z"/>
</g>
<g fill="None" fill-opacity="0.0" stroke="#F5F4F3" stroke-opacity="1.00" stroke-width="0.3"><path d="
M 288.00 169.00 
C 290.33 169.00 292.67 169.00 295.00 169.00
C 295.50 173.18 294.56 177.11 294.00 181.00
C 295.42 178.79 299.05 178.45 301.00 180.00
C 301.72 175.30 300.27 163.67 303.00 160.00
C 296.62 160.67 287.00 158.41 288.00 169.00 Z"/>
</g>
<g fill="None" fill-opacity="0.0" stroke="#F7A127" stroke-opacity="1.00" stroke-width="0.3"><path d="
M 144.00 260.00 
C 156.92 256.22 169.58 251.73 183.00 250.00
C 180.98 247.78 176.84 249.59 174.00 249.00
C 176.78 227.01 179.27 204.99 182.00 183.00
C 168.62 182.33 171.30 163.64 160.00 162.00 C 148.70 160.37 140.74 172.97 140.00 184.00 C 139.26 195.03 147.45 204.87 159.30 206.70 C 171.16 208.52 172.78 227.23 159.00 227.00
C 158.91 232.23 163.05 244.25 156.25 247.25 C 149.44 250.24 148.67 255.68 144.00 260.00 Z"/>
</g>
<g fill="None" fill-opacity="0.0" stroke="#F9F9F9" stroke-opacity="1.00" stroke-width="0.3"><path d="
M 270.00 237.00 
C 272.32 237.08 274.68 237.04 277.00 237.00
C 318.30 238.91 312.44 189.73 317.00 162.00
C 313.40 161.30 310.46 163.21 307.00 163.00
C 306.62 180.44 300.95 193.13 300.99 210.99 C 301.03 228.85 274.02 230.82 277.02 212.02 C 280.02 193.23 280.72 183.12 283.00 165.00
C 274.46 164.89 266.48 166.95 258.00 167.00
C 254.98 180.95 255.63 194.85 252.98 208.98 C 250.33 223.10 253.58 236.44 270.00 237.00 Z"/>
</g>
<g fill="None" fill-opacity="0.0" stroke="#F09D28" stroke-opacity="1.00" stroke-width="0.3"><path d="
M 218.00 168.00 
C 217.36 170.61 219.29 172.51 219.00 175.00
C 228.43 172.55 225.79 184.70 230.00 189.00
C 232.43 182.71 229.22 172.69 233.00 167.00
C 230.22 167.87 229.03 167.04 226.00 166.00 C 222.97 164.96 220.03 167.79 218.00 168.00 Z"/>
</g>
<g fill="None" fill-opacity="0.0" stroke="#F8F8F8" stroke-opacity="1.00" stroke-width="0.3"><path d="
M 247.00 168.00 
C 243.05 167.29 239.87 169.48 236.00 169.00
C 235.02 185.93 232.25 202.41 230.00 219.00
C 225.78 211.78 224.64 200.54 220.98 193.02 C 217.31 185.51 218.40 170.02 208.07 171.07 C 197.75 172.13 185.53 171.09 186.00 183.00 C 186.47 194.91 182.88 202.99 182.00 214.00 C 181.12 225.01 179.79 234.14 179.00 245.00
C 182.42 245.09 185.92 245.18 189.00 244.00
C 190.54 227.21 193.39 210.75 195.00 194.00
C 199.34 200.54 199.19 209.94 203.07 216.93 C 206.96 223.91 206.76 233.28 211.08 239.92 C 215.41 246.55 231.26 237.48 238.00 240.00
C 240.45 215.85 244.33 192.07 247.00 168.00 Z"/>
</g>
<g fill="None" fill-opacity="0.0" stroke="#EF9B23" stroke-opacity="1.00" stroke-width="0.3"><path d="
M 294.00 181.00 
C 292.59 194.74 290.61 208.33 289.00 222.00
C 301.12 214.47 298.93 193.58 301.00 180.00
C 299.05 178.45 295.42 178.79 294.00 181.00 Z"/>
</g>
<g fill="None" fill-opacity="0.0" stroke="#F6A026" stroke-opacity="1.00" stroke-width="0.3"><path d="
M 324.00 212.00 
C 322.97 224.54 318.47 239.84 305.00 244.00
C 308.50 248.99 314.49 254.27 320.98 250.98 C 327.46 247.68 335.34 250.61 341.00 247.00
C 337.42 248.20 335.99 245.55 334.08 242.92 C 332.17 240.29 336.95 235.67 337.00 234.00
C 337.33 231.08 332.86 230.20 334.00 227.00
C 337.00 227.00 340.00 227.00 343.00 227.00
C 350.24 223.69 344.89 213.42 347.00 207.00 C 349.10 200.59 339.33 194.90 334.25 199.25 C 329.16 203.59 326.08 207.11 324.00 212.00 Z"/>
</g>
<g fill="None" fill-opacity="0.0" stroke="#F9A636" stroke-opacity="1.00" stroke-width="0.3"><path d="
M 158.00 211.00 
C 151.22 209.82 149.12 222.88 155.99 223.99 C 162.86 225.10 164.30 212.10 158.00 211.00 Z"/>
</g>
<g fill="None" fill-opacity="0.0" stroke="#F8A32D" stroke-opacity="1.00" stroke-width="0.3"><path d="
M 371.00 229.00 
C 372.98 229.11 382.94 229.35 382.92 231.92 C 382.89 234.48 375.69 236.64 374.00 238.00
C 380.24 243.77 389.18 239.89 391.00 232.00
C 402.59 241.15 402.79 212.89 391.00 223.00
C 387.16 209.17 368.11 215.96 371.00 229.00 Z"/>
</g>
<g fill="None" fill-opacity="0.0" stroke="#F09B21" stroke-opacity="1.00" stroke-width="0.3"><path d="
M 368.00 234.00 
C 361.90 233.11 356.32 233.01 355.00 226.00
C 354.47 232.21 349.41 232.76 344.00 232.00
C 350.90 237.46 346.76 243.74 346.00 250.00
C 349.02 248.11 351.36 244.57 355.00 244.00
C 356.38 245.98 358.36 248.84 361.00 249.00
C 361.00 245.82 360.17 242.85 359.00 240.00
C 362.00 238.04 365.80 236.83 368.00 234.00 Z"/>
</g>
<g fill="None" fill-opacity="0.0" stroke="#F9A739" stroke-opacity="1.00" stroke-width="0.3"><path d="
M 123.00 231.00 
C 112.38 229.08 110.26 242.47 119.77 244.21 C 129.28 245.96 131.69 232.57 123.00 231.00 Z"/>
</g>
<g fill="None" fill-opacity="0.0" stroke="#E89620" stroke-opacity="1.00" stroke-width="0.3"><path d="
M 204.00 231.00 
C 201.73 235.87 202.76 242.62 201.00 248.00
C 206.00 247.72 210.77 248.58 215.00 251.00
C 215.59 247.22 212.57 244.97 209.00 246.00
C 207.07 241.07 205.42 236.06 204.00 231.00 Z"/>
</g>
<g fill="None" fill-opacity="0.0" stroke="#F29C22" stroke-opacity="1.00" stroke-width="0.3"><path d="
M 277.00 249.00 
C 264.79 250.79 259.61 238.67 251.00 233.00
C 249.88 239.99 253.41 254.74 242.00 252.00
C 246.59 255.97 254.07 259.96 254.00 267.00
C 261.24 260.37 269.26 254.55 277.00 249.00 Z"/>
</g>
<g fill="None" fill-opacity="0.0" stroke="#FAF9F8" stroke-opacity="1.00" stroke-width="0.3"><path d="
M 341.00 247.00 
C 348.30 242.34 339.99 237.64 337.00 234.00
C 336.95 235.67 332.17 240.29 334.08 242.92 C 335.99 245.55 337.42 248.20 341.00 247.00 Z"/>
</g>
<g fill="None" fill-opacity="0.0" stroke="#666666" stroke-opacity="1.00" stroke-width="0.3"><path d="
M 277.00 237.00 
C 274.68 237.04 272.32 237.08 270.00 237.00
C 272.37 237.34 274.60 237.29 277.00 237.00 Z"/>
</g>
<g fill="None" fill-opacity="0.0" stroke="#F29F2C" stroke-opacity="1.00" stroke-width="0.3"><path d="
M 369.00 257.00 
C 369.18 253.77 372.95 252.00 373.67 248.67 C 374.39 245.34 373.25 241.30 373.00 238.00
C 363.65 243.81 364.95 247.61 369.00 257.00 Z"/>
</g>
<g fill="None" fill-opacity="0.0" stroke="#F29C22" stroke-opacity="1.00" stroke-width="0.3"><path d="
M 308.00 258.00 
C 306.19 240.33 284.03 247.46 274.23 256.23 C 264.43 265.00 252.31 269.36 248.93 284.93 C 245.54 300.49 271.20 301.15 283.00 302.00
C 275.52 308.48 269.40 314.99 257.68 316.68 C 245.95 318.37 241.83 332.73 254.93 332.93 C 268.02 333.12 272.46 325.03 282.25 321.25 C 292.05 317.48 299.27 305.77 292.25 297.75 C 285.23 289.73 273.09 290.22 264.00 287.00
C 271.44 274.71 283.42 260.25 298.00 257.00
C 292.66 264.35 290.59 267.04 284.92 274.92 C 279.24 282.79 283.42 289.34 290.08 280.08 C 296.74 270.83 303.40 276.85 311.25 280.75 C 319.10 284.65 313.79 298.36 312.98 303.98 C 312.17 309.59 306.31 325.70 312.25 328.74 C 318.19 331.78 320.49 316.68 321.00 310.00 C 321.51 303.32 323.60 290.76 324.67 282.67 C 325.74 274.58 327.75 265.74 337.78 265.78 C 347.80 265.82 353.19 262.37 362.00 260.00
C 360.77 256.57 355.83 254.74 354.00 251.00
C 347.89 254.16 347.40 255.82 341.70 260.70 C 335.99 265.57 335.23 256.77 339.00 252.00
C 328.46 253.23 318.26 255.81 308.00 258.00
M 320.00 270.00 
C 319.94 273.81 317.69 277.06 318.00 281.00
C 314.39 279.35 309.66 276.45 308.00 273.00
C 312.16 272.62 315.87 270.62 320.00 270.00 Z"/>
</g>
<g fill="None" fill-opacity="0.0" stroke="#F8A32D" stroke-opacity="1.00" stroke-width="0.3"><path d="
M 129.00 275.00 
C 127.86 269.19 133.39 264.06 138.00 262.00
C 135.65 260.87 135.07 251.54 130.07 251.93 C 125.08 252.31 118.97 247.76 114.25 252.25 C 109.52 256.73 109.00 254.53 107.01 262.99 C 105.02 271.45 122.92 282.05 129.00 275.00 Z"/>
</g>
<g fill="None" fill-opacity="0.0" stroke="#6D460F" stroke-opacity="1.00" stroke-width="0.3"><path d="
M 199.00 253.00 
C 201.83 252.94 205.21 252.53 208.00 253.00
C 204.73 252.01 202.17 252.62 199.00 253.00 Z"/>
</g>
<g fill="None" fill-opacity="0.0" stroke="#F39D22" stroke-opacity="1.00" stroke-width="0.3"><path d="
M 194.00 291.00 
C 187.94 290.32 181.39 291.63 176.00 290.00
C 174.67 290.00 173.33 290.00 172.00 290.00
C 176.57 284.44 172.71 270.24 179.32 266.32 C 185.94 262.41 197.55 262.64 204.00 262.00
C 201.02 264.53 194.64 265.11 195.00 270.00
C 201.60 269.40 221.81 257.19 208.00 253.00
C 205.21 252.53 201.83 252.94 199.00 253.00
C 189.08 252.93 179.26 255.47 170.02 257.02 C 160.79 258.58 154.61 262.85 145.22 264.22 C 135.84 265.59 128.84 277.50 140.78 276.78 C 152.71 276.06 154.75 270.42 166.00 270.00
C 162.27 280.86 164.85 291.94 150.22 292.22 C 135.60 292.51 145.03 312.55 158.00 305.00
C 159.62 313.63 152.93 328.61 157.08 336.92 C 161.23 345.23 166.26 327.75 165.67 319.67 C 165.08 311.59 169.64 300.46 179.99 300.99 C 190.34 301.53 195.68 297.22 205.00 300.00
C 204.24 308.19 198.79 315.05 201.03 323.97 C 203.26 332.90 213.80 324.36 218.25 321.25 C 222.70 318.15 230.08 312.28 234.77 309.77 C 239.46 307.26 250.39 300.16 243.69 295.31 C 237.00 290.45 231.58 300.86 225.75 302.75 C 219.91 304.63 215.09 312.48 209.00 314.00
C 211.75 308.10 210.26 300.04 215.31 295.31 C 220.35 290.57 227.08 292.85 231.07 286.07 C 235.07 279.30 222.37 277.08 218.00 282.00
C 219.36 266.78 231.32 274.29 240.75 264.75 C 250.18 255.21 228.20 257.42 221.00 259.00
C 218.22 264.63 199.31 271.84 212.00 276.00
C 213.00 284.80 205.58 288.41 200.00 293.00
C 198.37 290.96 196.20 291.51 194.00 291.00 Z"/>
</g>
<g fill="None" fill-opacity="0.0" stroke="#6E470F" stroke-opacity="1.00" stroke-width="0.3"><path d="
M 226.00 254.00 
C 226.35 254.05 226.81 254.98 227.00 255.00
C 228.71 254.66 230.89 254.20 232.00 253.00
C 230.02 252.03 227.27 253.90 226.00 254.00 Z"/>
</g>
<g fill="None" fill-opacity="0.0" stroke="#B17219" stroke-opacity="1.00" stroke-width="0.3"><path d="
M 227.00 255.00 
C 226.81 254.98 226.35 254.05 226.00 254.00
C 223.15 254.50 219.10 252.92 217.00 255.00
C 220.29 254.66 223.73 255.46 227.00 255.00 Z"/>
</g>
<g fill="None" fill-opacity="0.0" stroke="#F9A737" stroke-opacity="1.00" stroke-width="0.3"><path d="
M 390.00 260.00 
C 384.02 257.11 378.18 267.97 384.78 272.22 C 391.38 276.48 395.64 262.73 390.00 260.00 Z"/>
</g>
<g fill="None" fill-opacity="0.0" stroke="#010000" stroke-opacity="1.00" stroke-width="0.3"><path d="
M 320.00 270.00 
C 315.87 270.62 312.16 272.62 308.00 273.00
C 309.66 276.45 314.39 279.35 318.00 281.00
C 317.69 277.06 319.94 273.81 320.00 270.00 Z"/>
</g>
<g fill="None" fill-opacity="0.0" stroke="#E79520" stroke-opacity="1.00" stroke-width="0.3"><path d="
M 250.00 273.00 
C 245.07 274.29 240.91 277.59 236.00 279.00
C 239.57 281.54 240.61 287.60 243.00 290.00
C 245.09 284.67 245.84 277.86 250.00 273.00 Z"/>
</g>
<g fill="None" fill-opacity="0.0" stroke="#F7A22B" stroke-opacity="1.00" stroke-width="0.3"><path d="
M 330.00 315.00 
C 336.87 317.93 344.87 326.23 352.31 330.69 C 359.74 335.16 376.57 340.60 380.69 329.69 C 384.81 318.79 370.34 314.50 362.69 310.31 C 355.05 306.11 342.31 303.36 334.00 300.00
C 331.40 292.98 341.09 288.49 345.30 287.30 C 349.52 286.11 357.51 275.88 353.00 273.00
C 342.60 274.79 335.06 275.76 333.99 286.99 C 332.92 298.23 331.80 304.37 330.00 315.00 Z"/>
</g>
<g fill="None" fill-opacity="0.0" stroke="#F19C25" stroke-opacity="1.00" stroke-width="0.3"><path d="
M 184.00 284.00 
C 185.72 283.29 188.94 285.14 190.00 286.00
C 190.28 286.23 190.77 286.95 191.00 287.00
C 197.04 288.14 209.27 286.06 206.00 278.00
C 202.28 280.01 196.50 278.92 196.00 274.00
C 192.47 273.52 189.28 274.57 186.00 275.00
C 186.39 278.27 184.66 281.04 184.00 284.00 Z"/>
</g>
<g fill="None" fill-opacity="0.0" stroke="#F7F4EF" stroke-opacity="1.00" stroke-width="0.3"><path d="
M 184.00 286.00 
C 184.96 286.82 188.71 285.70 190.00 286.00
C 188.94 285.14 185.72 283.29 184.00 284.00
C 183.89 284.48 183.77 285.65 184.00 286.00 Z"/>
</g>
<g fill="None" fill-opacity="0.0" stroke="#F7A129" stroke-opacity="1.00" stroke-width="0.3"><path d="
M 204.00 335.00 
C 199.74 344.88 191.01 352.95 192.01 364.99 C 193.01 377.03 210.15 379.04 220.00 379.00
C 220.57 394.95 238.41 376.63 225.00 373.00
C 227.73 367.74 222.44 348.08 229.92 348.08 C 237.41 348.07 241.78 360.31 249.99 357.99 C 258.20 355.68 255.35 343.72 265.00 344.00 C 274.64 344.28 277.98 350.59 281.02 357.98 C 284.07 365.36 284.81 374.03 287.02 380.98 C 289.24 387.92 290.96 397.18 297.78 400.22 C 304.59 403.26 314.62 400.99 319.75 395.75 C 324.88 390.50 319.91 380.85 315.25 375.75 C 310.58 370.65 306.23 366.06 300.08 360.92 C 293.93 355.78 291.49 354.44 283.08 348.92 C 274.68 343.40 287.44 333.07 293.78 338.22 C 300.11 343.38 313.83 343.55 313.00 336.00
C 298.53 323.85 310.90 303.43 312.00 288.00
C 305.45 281.94 296.79 286.44 294.00 294.00
C 310.11 302.07 305.69 322.51 291.08 329.08 C 276.48 335.66 264.36 349.16 248.75 337.25 C 233.15 325.33 249.30 312.18 264.00 309.00
C 260.76 308.68 258.12 306.57 255.00 306.00
C 251.25 314.99 239.36 320.45 231.70 325.70 C 224.03 330.95 212.93 342.78 204.00 335.00 Z"/>
</g>
<g fill="None" fill-opacity="0.0" stroke="#737373" stroke-opacity="1.00" stroke-width="0.3"><path d="
M 191.00 287.00 
C 190.77 286.95 190.28 286.23 190.00 286.00
C 188.71 285.70 184.96 286.82 184.00 286.00
C 185.20 287.84 188.94 286.96 191.00 287.00 Z"/>
</g>
<g fill="None" fill-opacity="0.0" stroke="#7F5211" stroke-opacity="1.00" stroke-width="0.3"><path d="
M 194.00 291.00 
C 188.60 289.75 181.96 290.92 176.00 290.00
C 181.39 291.63 187.94 290.32 194.00 291.00 Z"/>
</g>
<g fill="None" fill-opacity="0.0" stroke="#F5A232" stroke-opacity="1.00" stroke-width="0.3"><path d="
M 153.00 320.00 
C 153.00 318.00 153.00 316.00 153.00 314.00
C 148.86 312.63 139.40 307.91 138.00 303.00
C 138.00 312.22 143.26 319.53 153.00 320.00 Z"/>
</g>
<g fill="None" fill-opacity="0.0" stroke="#F6A12C" stroke-opacity="1.00" stroke-width="0.3"><path d="
M 184.00 311.00 
C 180.20 313.65 175.11 322.34 179.25 327.75 C 183.39 333.16 193.69 335.45 197.00 328.00
C 196.71 327.35 197.00 325.72 197.00 325.00
C 196.41 322.31 196.58 320.58 197.00 318.00
C 196.38 314.40 198.62 311.58 198.00 308.00
C 193.35 308.70 188.23 310.12 184.00 311.00 Z"/>
</g>
<g fill="None" fill-opacity="0.0" stroke="#794E11" stroke-opacity="1.00" stroke-width="0.3"><path d="
M 197.00 325.00 
C 197.00 322.68 196.89 320.32 197.00 318.00
C 196.58 320.58 196.41 322.31 197.00 325.00 Z"/>
</g>
<g fill="#FEFEFE" fill-opacity="1.00" stroke="None">
<path d="
M 0.00 500.00 
L 500.00 500.00
L 500.00 0.00
L 0.00 0.00
L 0.00 500.00
M 316.00 158.00 
C 318.00 158.08 320.00 157.94 322.00 158.00
C 320.28 160.27 321.27 163.34 321.00 166.00
C 323.33 166.00 325.67 166.00 328.00 166.00
C 328.35 161.86 332.48 158.56 336.00 157.00
C 332.83 154.08 332.86 145.19 338.23 144.23 C 343.60 143.28 346.25 153.02 342.00 156.00
C 353.38 155.47 360.98 169.34 355.07 179.07 C 349.16 188.81 334.22 188.16 328.00 179.00
C 326.16 189.89 325.57 201.02 324.00 212.00
C 326.08 207.11 329.16 203.59 334.25 199.25 C 339.33 194.90 349.10 200.59 347.00 207.00 C 344.89 213.42 350.24 223.69 343.00 227.00
C 345.67 227.00 348.33 227.00 351.00 227.00
C 351.79 223.17 354.60 220.00 355.00 216.00
C 361.28 215.95 359.30 224.82 361.00 229.00
C 364.33 229.00 367.67 229.00 371.00 229.00
C 368.11 215.96 387.16 209.17 391.00 223.00
C 402.79 212.89 402.59 241.15 391.00 232.00
C 389.18 239.89 380.24 243.77 374.00 238.00
C 373.57 237.83 373.00 238.00 373.00 238.00
C 373.25 241.30 374.39 245.34 373.67 248.67 C 372.95 252.00 369.18 253.77 369.00 257.00
C 375.06 271.04 363.66 271.16 353.00 273.00
C 357.51 275.88 349.52 286.11 345.30 287.30 C 341.09 288.49 331.40 292.98 334.00 300.00
C 342.31 303.36 355.05 306.11 362.69 310.31 C 370.34 314.50 384.81 318.79 380.69 329.69 C 376.57 340.60 359.74 335.16 352.31 330.69 C 344.87 326.23 336.87 317.93 330.00 315.00
C 328.70 322.68 326.42 348.16 313.00 336.00
C 313.83 343.55 300.11 343.38 293.78 338.22 C 287.44 333.07 274.68 343.40 283.08 348.92 C 291.49 354.44 293.93 355.78 300.08 360.92 C 306.23 366.06 310.58 370.65 315.25 375.75 C 319.91 380.85 324.88 390.50 319.75 395.75 C 314.62 400.99 304.59 403.26 297.78 400.22 C 290.96 397.18 289.24 387.92 287.02 380.98 C 284.81 374.03 284.07 365.36 281.02 357.98 C 277.98 350.59 274.64 344.28 265.00 344.00 C 255.35 343.72 258.20 355.68 249.99 357.99 C 241.78 360.31 237.41 348.07 229.92 348.08 C 222.44 348.08 227.73 367.74 225.00 373.00
C 238.41 376.63 220.57 394.95 220.00 379.00
C 210.15 379.04 193.01 377.03 192.01 364.99 C 191.01 352.95 199.74 344.88 204.00 335.00
C 202.61 333.79 197.63 329.43 197.00 328.00
C 193.69 335.45 183.39 333.16 179.25 327.75 C 175.11 322.34 180.20 313.65 184.00 311.00
C 181.63 311.49 179.37 311.47 177.00 312.00
C 176.82 321.37 173.28 328.48 173.00 338.00 C 172.72 347.53 166.14 352.97 158.75 345.25 C 151.36 337.53 152.69 330.40 153.00 320.00
C 143.26 319.53 138.00 312.22 138.00 303.00
C 138.00 286.77 151.04 291.91 158.00 283.00
C 147.15 287.47 134.43 286.62 129.00 275.00
C 122.92 282.05 105.02 271.45 107.01 262.99 C 109.00 254.53 109.52 256.73 114.25 252.25 C 118.97 247.76 125.08 252.31 130.07 251.93 C 135.07 251.54 135.65 260.87 138.00 262.00
C 139.65 261.26 142.16 260.67 144.00 260.00
C 148.67 255.68 149.44 250.24 156.25 247.25 C 163.05 244.25 158.91 232.23 159.00 227.00
C 172.78 227.23 171.16 208.52 159.30 206.70 C 147.45 204.87 139.26 195.03 140.00 184.00 C 140.74 172.97 148.70 160.37 160.00 162.00 C 171.30 163.64 168.62 182.33 182.00 183.00
C 182.58 178.34 183.64 173.75 184.00 169.00
C 186.67 169.00 189.33 169.00 192.00 169.00
C 190.77 163.53 193.88 157.80 200.02 158.02 C 206.17 158.25 206.12 165.60 210.00 167.00
C 212.63 166.80 215.89 168.21 218.00 168.00
C 220.03 167.79 222.97 164.96 226.00 166.00 C 229.03 167.04 230.22 167.87 233.00 167.00
C 233.82 166.75 235.66 165.40 238.00 165.00
C 237.21 160.16 238.90 149.42 245.03 149.03 C 251.16 148.63 253.68 158.64 254.00 163.00
C 262.19 163.34 270.05 161.63 278.00 161.00
C 276.87 149.16 278.27 120.96 295.00 121.00 C 311.74 121.04 312.88 147.17 316.00 158.00
M 158.00 211.00 
C 164.30 212.10 162.86 225.10 155.99 223.99 C 149.12 222.88 151.22 209.82 158.00 211.00
M 123.00 231.00 
C 131.69 232.57 129.28 245.96 119.77 244.21 C 110.26 242.47 112.38 229.08 123.00 231.00
M 390.00 260.00 
C 395.64 262.73 391.38 276.48 384.78 272.22 C 378.18 267.97 384.02 257.11 390.00 260.00 Z"/>
</g>
<g fill="#F8A229" fill-opacity="1.00" stroke="None">
<path d="
M 278.00 161.00 
C 281.31 160.74 284.68 161.20 288.00 161.00
C 287.61 163.36 285.62 167.16 288.00 169.00
C 287.00 158.41 296.62 160.67 303.00 160.00
C 307.02 159.58 311.15 157.81 316.00 158.00
C 312.88 147.17 311.74 121.04 295.00 121.00 C 278.27 120.96 276.87 149.16 278.00 161.00 Z"/>
</g>
<g fill="#F8A22B" fill-opacity="1.00" stroke="None">
<path d="
M 328.00 166.00 
C 327.70 169.59 328.74 174.63 328.00 179.00
C 334.22 188.16 349.16 188.81 355.07 179.07 C 360.98 169.34 353.38 155.47 342.00 156.00
C 346.25 153.02 343.60 143.28 338.23 144.23 C 332.86 145.19 332.83 154.08 336.00 157.00
C 332.48 158.56 328.35 161.86 328.00 166.00 Z"/>
</g>
<g fill="#F4A12E" fill-opacity="1.00" stroke="None">
<path d="
M 238.00 165.00 
C 242.19 164.28 246.51 163.60 251.00 164.00
C 251.56 166.52 249.81 170.30 252.00 172.00
C 254.04 169.80 254.15 166.13 254.00 163.00
C 253.68 158.64 251.16 148.63 245.03 149.03 C 238.90 149.42 237.21 160.16 238.00 165.00 Z"/>
</g>
<g fill="#F3A235" fill-opacity="1.00" stroke="None">
<path d="
M 192.00 169.00 
C 197.60 168.51 204.82 167.40 210.00 167.00
C 206.12 165.60 206.17 158.25 200.02 158.02 C 193.88 157.80 190.77 163.53 192.00 169.00 Z"/>
</g>
<g fill="#000000" fill-opacity="1.00" stroke="None">
<path d="
M 303.00 160.00 
C 300.27 163.67 301.72 175.30 301.00 180.00
C 298.93 193.58 301.12 214.47 289.00 222.00
C 290.61 208.33 292.59 194.74 294.00 181.00
C 294.56 177.11 295.50 173.18 295.00 169.00
C 292.67 169.00 290.33 169.00 288.00 169.00
C 285.62 167.16 287.61 163.36 288.00 161.00
C 284.68 161.20 281.31 160.74 278.00 161.00
C 270.05 161.63 262.19 163.34 254.00 163.00
C 254.15 166.13 254.04 169.80 252.00 172.00
C 249.81 170.30 251.56 166.52 251.00 164.00
C 246.51 163.60 242.19 164.28 238.00 165.00
C 235.66 165.40 233.82 166.75 233.00 167.00
C 229.22 172.69 232.43 182.71 230.00 189.00
C 225.79 184.70 228.43 172.55 219.00 175.00
C 219.29 172.51 217.36 170.61 218.00 168.00
C 215.89 168.21 212.63 166.80 210.00 167.00
C 204.82 167.40 197.60 168.51 192.00 169.00
C 189.33 169.00 186.67 169.00 184.00 169.00
C 183.64 173.75 182.58 178.34 182.00 183.00
C 179.27 204.99 176.78 227.01 174.00 249.00
C 176.84 249.59 180.98 247.78 183.00 250.00
C 169.58 251.73 156.92 256.22 144.00 260.00
C 142.16 260.67 139.65 261.26 138.00 262.00
C 133.39 264.06 127.86 269.19 129.00 275.00
C 134.43 286.62 147.15 287.47 158.00 283.00
C 151.04 291.91 138.00 286.77 138.00 303.00
C 139.40 307.91 148.86 312.63 153.00 314.00
C 153.00 316.00 153.00 318.00 153.00 320.00
C 152.69 330.40 151.36 337.53 158.75 345.25 C 166.14 352.97 172.72 347.53 173.00 338.00 C 173.28 328.48 176.82 321.37 177.00 312.00
C 179.37 311.47 181.63 311.49 184.00 311.00
C 188.23 310.12 193.35 308.70 198.00 308.00
C 198.62 311.58 196.38 314.40 197.00 318.00
C 196.89 320.32 197.00 322.68 197.00 325.00
C 197.00 325.72 196.71 327.35 197.00 328.00
C 197.63 329.43 202.61 333.79 204.00 335.00
C 212.93 342.78 224.03 330.95 231.70 325.70 C 239.36 320.45 251.25 314.99 255.00 306.00
C 258.12 306.57 260.76 308.68 264.00 309.00
C 249.30 312.18 233.15 325.33 248.75 337.25 C 264.36 349.16 276.48 335.66 291.08 329.08 C 305.69 322.51 310.11 302.07 294.00 294.00
C 296.79 286.44 305.45 281.94 312.00 288.00
C 310.90 303.43 298.53 323.85 313.00 336.00
C 326.42 348.16 328.70 322.68 330.00 315.00
C 331.80 304.37 332.92 298.23 333.99 286.99 C 335.06 275.76 342.60 274.79 353.00 273.00
C 363.66 271.16 375.06 271.04 369.00 257.00
C 364.95 247.61 363.65 243.81 373.00 238.00
C 373.00 238.00 373.57 237.83 374.00 238.00
C 375.69 236.64 382.89 234.48 382.92 231.92 C 382.94 229.35 372.98 229.11 371.00 229.00
C 367.67 229.00 364.33 229.00 361.00 229.00
C 359.30 224.82 361.28 215.95 355.00 216.00
C 354.60 220.00 351.79 223.17 351.00 227.00
C 348.33 227.00 345.67 227.00 343.00 227.00
C 340.00 227.00 337.00 227.00 334.00 227.00
C 332.86 230.20 337.33 231.08 337.00 234.00
C 339.99 237.64 348.30 242.34 341.00 247.00
C 335.34 250.61 327.46 247.68 320.98 250.98 C 314.49 254.27 308.50 248.99 305.00 244.00
C 318.47 239.84 322.97 224.54 324.00 212.00
C 325.57 201.02 326.16 189.89 328.00 179.00
C 328.74 174.63 327.70 169.59 328.00 166.00
C 325.67 166.00 323.33 166.00 321.00 166.00
C 321.27 163.34 320.28 160.27 322.00 158.00
C 320.00 157.94 318.00 158.08 316.00 158.00
C 311.15 157.81 307.02 159.58 303.00 160.00
M 277.00 237.00 
C 274.60 237.29 272.37 237.34 270.00 237.00
C 253.58 236.44 250.33 223.10 252.98 208.98 C 255.63 194.85 254.98 180.95 258.00 167.00
C 266.48 166.95 274.46 164.89 283.00 165.00
C 280.72 183.12 280.02 193.23 277.02 212.02 C 274.02 230.82 301.03 228.85 300.99 210.99 C 300.95 193.13 306.62 180.44 307.00 163.00
C 310.46 163.21 313.40 161.30 317.00 162.00
C 312.44 189.73 318.30 238.91 277.00 237.00
M 247.00 168.00 
C 244.33 192.07 240.45 215.85 238.00 240.00
C 231.26 237.48 215.41 246.55 211.08 239.92 C 206.76 233.28 206.96 223.91 203.07 216.93 C 199.19 209.94 199.34 200.54 195.00 194.00
C 193.39 210.75 190.54 227.21 189.00 244.00
C 185.92 245.18 182.42 245.09 179.00 245.00
C 179.79 234.14 181.12 225.01 182.00 214.00 C 182.88 202.99 186.47 194.91 186.00 183.00 C 185.53 171.09 197.75 172.13 208.07 171.07 C 218.40 170.02 217.31 185.51 220.98 193.02 C 224.64 200.54 225.78 211.78 230.00 219.00
C 232.25 202.41 235.02 185.93 236.00 169.00
C 239.87 169.48 243.05 167.29 247.00 168.00
M 368.00 234.00 
C 365.80 236.83 362.00 238.04 359.00 240.00
C 360.17 242.85 361.00 245.82 361.00 249.00
C 358.36 248.84 356.38 245.98 355.00 244.00
C 351.36 244.57 349.02 248.11 346.00 250.00
C 346.76 243.74 350.90 237.46 344.00 232.00
C 349.41 232.76 354.47 232.21 355.00 226.00
C 356.32 233.01 361.90 233.11 368.00 234.00
M 204.00 231.00 
C 205.42 236.06 207.07 241.07 209.00 246.00
C 212.57 244.97 215.59 247.22 215.00 251.00
C 210.77 248.58 206.00 247.72 201.00 248.00
C 202.76 242.62 201.73 235.87 204.00 231.00
M 277.00 249.00 
C 269.26 254.55 261.24 260.37 254.00 267.00
C 254.07 259.96 246.59 255.97 242.00 252.00
C 253.41 254.74 249.88 239.99 251.00 233.00
C 259.61 238.67 264.79 250.79 277.00 249.00
M 308.00 258.00 
C 318.26 255.81 328.46 253.23 339.00 252.00
C 335.23 256.77 335.99 265.57 341.70 260.70 C 347.40 255.82 347.89 254.16 354.00 251.00
C 355.83 254.74 360.77 256.57 362.00 260.00
C 353.19 262.37 347.80 265.82 337.78 265.78 C 327.75 265.74 325.74 274.58 324.67 282.67 C 323.60 290.76 321.51 303.32 321.00 310.00 C 320.49 316.68 318.19 331.78 312.25 328.74 C 306.31 325.70 312.17 309.59 312.98 303.98 C 313.79 298.36 319.10 284.65 311.25 280.75 C 303.40 276.85 296.74 270.83 290.08 280.08 C 283.42 289.34 279.24 282.79 284.92 274.92 C 290.59 267.04 292.66 264.35 298.00 257.00
C 283.42 260.25 271.44 274.71 264.00 287.00
C 273.09 290.22 285.23 289.73 292.25 297.75 C 299.27 305.77 292.05 317.48 282.25 321.25 C 272.46 325.03 268.02 333.12 254.93 332.93 C 241.83 332.73 245.95 318.37 257.68 316.68 C 269.40 314.99 275.52 308.48 283.00 302.00
C 271.20 301.15 245.54 300.49 248.93 284.93 C 252.31 269.36 264.43 265.00 274.23 256.23 C 284.03 247.46 306.19 240.33 308.00 258.00
M 208.00 253.00 
C 221.81 257.19 201.60 269.40 195.00 270.00
C 194.64 265.11 201.02 264.53 204.00 262.00
C 197.55 262.64 185.94 262.41 179.32 266.32 C 172.71 270.24 176.57 284.44 172.00 290.00
C 173.33 290.00 174.67 290.00 176.00 290.00
C 181.96 290.92 188.60 289.75 194.00 291.00
C 196.20 291.51 198.37 290.96 200.00 293.00
C 205.58 288.41 213.00 284.80 212.00 276.00
C 199.31 271.84 218.22 264.63 221.00 259.00
C 228.20 257.42 250.18 255.21 240.75 264.75 C 231.32 274.29 219.36 266.78 218.00 282.00
C 222.37 277.08 235.07 279.30 231.07 286.07 C 227.08 292.85 220.35 290.57 215.31 295.31 C 210.26 300.04 211.75 308.10 209.00 314.00
C 215.09 312.48 219.91 304.63 225.75 302.75 C 231.58 300.86 237.00 290.45 243.69 295.31 C 250.39 300.16 239.46 307.26 234.77 309.77 C 230.08 312.28 222.70 318.15 218.25 321.25 C 213.80 324.36 203.26 332.90 201.03 323.97 C 198.79 315.05 204.24 308.19 205.00 300.00
C 195.68 297.22 190.34 301.53 179.99 300.99 C 169.64 300.46 165.08 311.59 165.67 319.67 C 166.26 327.75 161.23 345.23 157.08 336.92 C 152.93 328.61 159.62 313.63 158.00 305.00
C 145.03 312.55 135.60 292.51 150.22 292.22 C 164.85 291.94 162.27 280.86 166.00 270.00
C 154.75 270.42 152.71 276.06 140.78 276.78 C 128.84 277.50 135.84 265.59 145.22 264.22 C 154.61 262.85 160.79 258.58 170.02 257.02 C 179.26 255.47 189.08 252.93 199.00 253.00
C 202.17 252.62 204.73 252.01 208.00 253.00
M 227.00 255.00 
C 223.73 255.46 220.29 254.66 217.00 255.00
C 219.10 252.92 223.15 254.50 226.00 254.00
C 227.27 253.90 230.02 252.03 232.00 253.00
C 230.89 254.20 228.71 254.66 227.00 255.00
M 250.00 273.00 
C 245.84 277.86 245.09 284.67 243.00 290.00
C 240.61 287.60 239.57 281.54 236.00 279.00
C 240.91 277.59 245.07 274.29 250.00 273.00
M 191.00 287.00 
C 188.94 286.96 185.20 287.84 184.00 286.00
C 183.77 285.65 183.89 284.48 184.00 284.00
C 184.66 281.04 186.39 278.27 186.00 275.00
C 189.28 274.57 192.47 273.52 196.00 274.00
C 196.50 278.92 202.28 280.01 206.00 278.00
C 209.27 286.06 197.04 288.14 191.00 287.00 Z"/>
</g>
<g fill="#F5F4F3" fill-opacity="1.00" stroke="None">
<path d="
M 288.00 169.00 
C 290.33 169.00 292.67 169.00 295.00 169.00
C 295.50 173.18 294.56 177.11 294.00 181.00
C 295.42 178.79 299.05 178.45 301.00 180.00
C 301.72 175.30 300.27 163.67 303.00 160.00
C 296.62 160.67 287.00 158.41 288.00 169.00 Z"/>
</g>
<g fill="#F7A127" fill-opacity="1.00" stroke="None">
<path d="
M 144.00 260.00 
C 156.92 256.22 169.58 251.73 183.00 250.00
C 180.98 247.78 176.84 249.59 174.00 249.00
C 176.78 227.01 179.27 204.99 182.00 183.00
C 168.62 182.33 171.30 163.64 160.00 162.00 C 148.70 160.37 140.74 172.97 140.00 184.00 C 139.26 195.03 147.45 204.87 159.30 206.70 C 171.16 208.52 172.78 227.23 159.00 227.00
C 158.91 232.23 163.05 244.25 156.25 247.25 C 149.44 250.24 148.67 255.68 144.00 260.00 Z"/>
</g>
<g fill="#F9F9F9" fill-opacity="1.00" stroke="None">
<path d="
M 270.00 237.00 
C 272.32 237.08 274.68 237.04 277.00 237.00
C 318.30 238.91 312.44 189.73 317.00 162.00
C 313.40 161.30 310.46 163.21 307.00 163.00
C 306.62 180.44 300.95 193.13 300.99 210.99 C 301.03 228.85 274.02 230.82 277.02 212.02 C 280.02 193.23 280.72 183.12 283.00 165.00
C 274.46 164.89 266.48 166.95 258.00 167.00
C 254.98 180.95 255.63 194.85 252.98 208.98 C 250.33 223.10 253.58 236.44 270.00 237.00 Z"/>
</g>
<g fill="#F09D28" fill-opacity="1.00" stroke="None">
<path d="
M 218.00 168.00 
C 217.36 170.61 219.29 172.51 219.00 175.00
C 228.43 172.55 225.79 184.70 230.00 189.00
C 232.43 182.71 229.22 172.69 233.00 167.00
C 230.22 167.87 229.03 167.04 226.00 166.00 C 222.97 164.96 220.03 167.79 218.00 168.00 Z"/>
</g>
<g fill="#F8F8F8" fill-opacity="1.00" stroke="None">
<path d="
M 247.00 168.00 
C 243.05 167.29 239.87 169.48 236.00 169.00
C 235.02 185.93 232.25 202.41 230.00 219.00
C 225.78 211.78 224.64 200.54 220.98 193.02 C 217.31 185.51 218.40 170.02 208.07 171.07 C 197.75 172.13 185.53 171.09 186.00 183.00 C 186.47 194.91 182.88 202.99 182.00 214.00 C 181.12 225.01 179.79 234.14 179.00 245.00
C 182.42 245.09 185.92 245.18 189.00 244.00
C 190.54 227.21 193.39 210.75 195.00 194.00
C 199.34 200.54 199.19 209.94 203.07 216.93 C 206.96 223.91 206.76 233.28 211.08 239.92 C 215.41 246.55 231.26 237.48 238.00 240.00
C 240.45 215.85 244.33 192.07 247.00 168.00 Z"/>
</g>
<g fill="#EF9B23" fill-opacity="1.00" stroke="None">
<path d="
M 294.00 181.00 
C 292.59 194.74 290.61 208.33 289.00 222.00
C 301.12 214.47 298.93 193.58 301.00 180.00
C 299.05 178.45 295.42 178.79 294.00 181.00 Z"/>
</g>
<g fill="#F6A026" fill-opacity="1.00" stroke="None">
<path d="
M 324.00 212.00 
C 322.97 224.54 318.47 239.84 305.00 244.00
C 308.50 248.99 314.49 254.27 320.98 250.98 C 327.46 247.68 335.34 250.61 341.00 247.00
C 337.42 248.20 335.99 245.55 334.08 242.92 C 332.17 240.29 336.95 235.67 337.00 234.00
C 337.33 231.08 332.86 230.20 334.00 227.00
C 337.00 227.00 340.00 227.00 343.00 227.00
C 350.24 223.69 344.89 213.42 347.00 207.00 C 349.10 200.59 339.33 194.90 334.25 199.25 C 329.16 203.59 326.08 207.11 324.00 212.00 Z"/>
</g>
<g fill="#F9A636" fill-opacity="1.00" stroke="None">
<path d="
M 158.00 211.00 
C 151.22 209.82 149.12 222.88 155.99 223.99 C 162.86 225.10 164.30 212.10 158.00 211.00 Z"/>
</g>
<g fill="#F8A32D" fill-opacity="1.00" stroke="None">
<path d="
M 371.00 229.00 
C 372.98 229.11 382.94 229.35 382.92 231.92 C 382.89 234.48 375.69 236.64 374.00 238.00
C 380.24 243.77 389.18 239.89 391.00 232.00
C 402.59 241.15 402.79 212.89 391.00 223.00
C 387.16 209.17 368.11 215.96 371.00 229.00 Z"/>
</g>
<g fill="#F09B21" fill-opacity="1.00" stroke="None">
<path d="
M 368.00 234.00 
C 361.90 233.11 356.32 233.01 355.00 226.00
C 354.47 232.21 349.41 232.76 344.00 232.00
C 350.90 237.46 346.76 243.74 346.00 250.00
C 349.02 248.11 351.36 244.57 355.00 244.00
C 356.38 245.98 358.36 248.84 361.00 249.00
C 361.00 245.82 360.17 242.85 359.00 240.00
C 362.00 238.04 365.80 236.83 368.00 234.00 Z"/>
</g>
<g fill="#F9A739" fill-opacity="1.00" stroke="None">
<path d="
M 123.00 231.00 
C 112.38 229.08 110.26 242.47 119.77 244.21 C 129.28 245.96 131.69 232.57 123.00 231.00 Z"/>
</g>
<g fill="#E89620" fill-opacity="1.00" stroke="None">
<path d="
M 204.00 231.00 
C 201.73 235.87 202.76 242.62 201.00 248.00
C 206.00 247.72 210.77 248.58 215.00 251.00
C 215.59 247.22 212.57 244.97 209.00 246.00
C 207.07 241.07 205.42 236.06 204.00 231.00 Z"/>
</g>
<g fill="#F29C22" fill-opacity="1.00" stroke="None">
<path d="
M 277.00 249.00 
C 264.79 250.79 259.61 238.67 251.00 233.00
C 249.88 239.99 253.41 254.74 242.00 252.00
C 246.59 255.97 254.07 259.96 254.00 267.00
C 261.24 260.37 269.26 254.55 277.00 249.00 Z"/>
</g>
<g fill="#FAF9F8" fill-opacity="1.00" stroke="None">
<path d="
M 341.00 247.00 
C 348.30 242.34 339.99 237.64 337.00 234.00
C 336.95 235.67 332.17 240.29 334.08 242.92 C 335.99 245.55 337.42 248.20 341.00 247.00 Z"/>
</g>
<g fill="#666666" fill-opacity="1.00" stroke="None">
<path d="
M 277.00 237.00 
C 274.68 237.04 272.32 237.08 270.00 237.00
C 272.37 237.34 274.60 237.29 277.00 237.00 Z"/>
</g>
<g fill="#F29F2C" fill-opacity="1.00" stroke="None">
<path d="
M 369.00 257.00 
C 369.18 253.77 372.95 252.00 373.67 248.67 C 374.39 245.34 373.25 241.30 373.00 238.00
C 363.65 243.81 364.95 247.61 369.00 257.00 Z"/>
</g>
<g fill="#F29C22" fill-opacity="1.00" stroke="None">
<path d="
M 308.00 258.00 
C 306.19 240.33 284.03 247.46 274.23 256.23 C 264.43 265.00 252.31 269.36 248.93 284.93 C 245.54 300.49 271.20 301.15 283.00 302.00
C 275.52 308.48 269.40 314.99 257.68 316.68 C 245.95 318.37 241.83 332.73 254.93 332.93 C 268.02 333.12 272.46 325.03 282.25 321.25 C 292.05 317.48 299.27 305.77 292.25 297.75 C 285.23 289.73 273.09 290.22 264.00 287.00
C 271.44 274.71 283.42 260.25 298.00 257.00
C 292.66 264.35 290.59 267.04 284.92 274.92 C 279.24 282.79 283.42 289.34 290.08 280.08 C 296.74 270.83 303.40 276.85 311.25 280.75 C 319.10 284.65 313.79 298.36 312.98 303.98 C 312.17 309.59 306.31 325.70 312.25 328.74 C 318.19 331.78 320.49 316.68 321.00 310.00 C 321.51 303.32 323.60 290.76 324.67 282.67 C 325.74 274.58 327.75 265.74 337.78 265.78 C 347.80 265.82 353.19 262.37 362.00 260.00
C 360.77 256.57 355.83 254.74 354.00 251.00
C 347.89 254.16 347.40 255.82 341.70 260.70 C 335.99 265.57 335.23 256.77 339.00 252.00
C 328.46 253.23 318.26 255.81 308.00 258.00
M 320.00 270.00 
C 319.94 273.81 317.69 277.06 318.00 281.00
C 314.39 279.35 309.66 276.45 308.00 273.00
C 312.16 272.62 315.87 270.62 320.00 270.00 Z"/>
</g>
<g fill="#F8A32D" fill-opacity="1.00" stroke="None">
<path d="
M 129.00 275.00 
C 127.86 269.19 133.39 264.06 138.00 262.00
C 135.65 260.87 135.07 251.54 130.07 251.93 C 125.08 252.31 118.97 247.76 114.25 252.25 C 109.52 256.73 109.00 254.53 107.01 262.99 C 105.02 271.45 122.92 282.05 129.00 275.00 Z"/>
</g>
<g fill="#6D460F" fill-opacity="1.00" stroke="None">
<path d="
M 199.00 253.00 
C 201.83 252.94 205.21 252.53 208.00 253.00
C 204.73 252.01 202.17 252.62 199.00 253.00 Z"/>
</g>
<g fill="#F39D22" fill-opacity="1.00" stroke="None">
<path d="
M 194.00 291.00 
C 187.94 290.32 181.39 291.63 176.00 290.00
C 174.67 290.00 173.33 290.00 172.00 290.00
C 176.57 284.44 172.71 270.24 179.32 266.32 C 185.94 262.41 197.55 262.64 204.00 262.00
C 201.02 264.53 194.64 265.11 195.00 270.00
C 201.60 269.40 221.81 257.19 208.00 253.00
C 205.21 252.53 201.83 252.94 199.00 253.00
C 189.08 252.93 179.26 255.47 170.02 257.02 C 160.79 258.58 154.61 262.85 145.22 264.22 C 135.84 265.59 128.84 277.50 140.78 276.78 C 152.71 276.06 154.75 270.42 166.00 270.00
C 162.27 280.86 164.85 291.94 150.22 292.22 C 135.60 292.51 145.03 312.55 158.00 305.00
C 159.62 313.63 152.93 328.61 157.08 336.92 C 161.23 345.23 166.26 327.75 165.67 319.67 C 165.08 311.59 169.64 300.46 179.99 300.99 C 190.34 301.53 195.68 297.22 205.00 300.00
C 204.24 308.19 198.79 315.05 201.03 323.97 C 203.26 332.90 213.80 324.36 218.25 321.25 C 222.70 318.15 230.08 312.28 234.77 309.77 C 239.46 307.26 250.39 300.16 243.69 295.31 C 237.00 290.45 231.58 300.86 225.75 302.75 C 219.91 304.63 215.09 312.48 209.00 314.00
C 211.75 308.10 210.26 300.04 215.31 295.31 C 220.35 290.57 227.08 292.85 231.07 286.07 C 235.07 279.30 222.37 277.08 218.00 282.00
C 219.36 266.78 231.32 274.29 240.75 264.75 C 250.18 255.21 228.20 257.42 221.00 259.00
C 218.22 264.63 199.31 271.84 212.00 276.00
C 213.00 284.80 205.58 288.41 200.00 293.00
C 198.37 290.96 196.20 291.51 194.00 291.00 Z"/>
</g>
<g fill="#6E470F" fill-opacity="1.00" stroke="None">
<path d="
M 226.00 254.00 
C 226.35 254.05 226.81 254.98 227.00 255.00
C 228.71 254.66 230.89 254.20 232.00 253.00
C 230.02 252.03 227.27 253.90 226.00 254.00 Z"/>
</g>
<g fill="#B17219" fill-opacity="1.00" stroke="None">
<path d="
M 227.00 255.00 
C 226.81 254.98 226.35 254.05 226.00 254.00
C 223.15 254.50 219.10 252.92 217.00 255.00
C 220.29 254.66 223.73 255.46 227.00 255.00 Z"/>
</g>
<g fill="#F9A737" fill-opacity="1.00" stroke="None">
<path d="
M 390.00 260.00 
C 384.02 257.11 378.18 267.97 384.78 272.22 C 391.38 276.48 395.64 262.73 390.00 260.00 Z"/>
</g>
<g fill="#010000" fill-opacity="1.00" stroke="None">
<path d="
M 320.00 270.00 
C 315.87 270.62 312.16 272.62 308.00 273.00
C 309.66 276.45 314.39 279.35 318.00 281.00
C 317.69 277.06 319.94 273.81 320.00 270.00 Z"/>
</g>
<g fill="#E79520" fill-opacity="1.00" stroke="None">
<path d="
M 250.00 273.00 
C 245.07 274.29 240.91 277.59 236.00 279.00
C 239.57 281.54 240.61 287.60 243.00 290.00
C 245.09 284.67 245.84 277.86 250.00 273.00 Z"/>
</g>
<g fill="#F7A22B" fill-opacity="1.00" stroke="None">
<path d="
M 330.00 315.00 
C 336.87 317.93 344.87 326.23 352.31 330.69 C 359.74 335.16 376.57 340.60 380.69 329.69 C 384.81 318.79 370.34 314.50 362.69 310.31 C 355.05 306.11 342.31 303.36 334.00 300.00
C 331.40 292.98 341.09 288.49 345.30 287.30 C 349.52 286.11 357.51 275.88 353.00 273.00
C 342.60 274.79 335.06 275.76 333.99 286.99 C 332.92 298.23 331.80 304.37 330.00 315.00 Z"/>
</g>
<g fill="#F19C25" fill-opacity="1.00" stroke="None">
<path d="
M 184.00 284.00 
C 185.72 283.29 188.94 285.14 190.00 286.00
C 190.28 286.23 190.77 286.95 191.00 287.00
C 197.04 288.14 209.27 286.06 206.00 278.00
C 202.28 280.01 196.50 278.92 196.00 274.00
C 192.47 273.52 189.28 274.57 186.00 275.00
C 186.39 278.27 184.66 281.04 184.00 284.00 Z"/>
</g>
<g fill="#F7F4EF" fill-opacity="1.00" stroke="None">
<path d="
M 184.00 286.00 
C 184.96 286.82 188.71 285.70 190.00 286.00
C 188.94 285.14 185.72 283.29 184.00 284.00
C 183.89 284.48 183.77 285.65 184.00 286.00 Z"/>
</g>
<g fill="#F7A129" fill-opacity="1.00" stroke="None">
<path d="
M 204.00 335.00 
C 199.74 344.88 191.01 352.95 192.01 364.99 C 193.01 377.03 210.15 379.04 220.00 379.00
C 220.57 394.95 238.41 376.63 225.00 373.00
C 227.73 367.74 222.44 348.08 229.92 348.08 C 237.41 348.07 241.78 360.31 249.99 357.99 C 258.20 355.68 255.35 343.72 265.00 344.00 C 274.64 344.28 277.98 350.59 281.02 357.98 C 284.07 365.36 284.81 374.03 287.02 380.98 C 289.24 387.92 290.96 397.18 297.78 400.22 C 304.59 403.26 314.62 400.99 319.75 395.75 C 324.88 390.50 319.91 380.85 315.25 375.75 C 310.58 370.65 306.23 366.06 300.08 360.92 C 293.93 355.78 291.49 354.44 283.08 348.92 C 274.68 343.40 287.44 333.07 293.78 338.22 C 300.11 343.38 313.83 343.55 313.00 336.00
C 298.53 323.85 310.90 303.43 312.00 288.00
C 305.45 281.94 296.79 286.44 294.00 294.00
C 310.11 302.07 305.69 322.51 291.08 329.08 C 276.48 335.66 264.36 349.16 248.75 337.25 C 233.15 325.33 249.30 312.18 264.00 309.00
C 260.76 308.68 258.12 306.57 255.00 306.00
C 251.25 314.99 239.36 320.45 231.70 325.70 C 224.03 330.95 212.93 342.78 204.00 335.00 Z"/>
</g>
<g fill="#737373" fill-opacity="1.00" stroke="None">
<path d="
M 191.00 287.00 
C 190.77 286.95 190.28 286.23 190.00 286.00
C 188.71 285.70 184.96 286.82 184.00 286.00
C 185.20 287.84 188.94 286.96 191.00 287.00 Z"/>
</g>
<g fill="#7F5211" fill-opacity="1.00" stroke="None">
<path d="
M 194.00 291.00 
C 188.60 289.75 181.96 290.92 176.00 290.00
C 181.39 291.63 187.94 290.32 194.00 291.00 Z"/>
</g>
<g fill="#F5A232" fill-opacity="1.00" stroke="None">
<path d="
M 153.00 320.00 
C 153.00 318.00 153.00 316.00 153.00 314.00
C 148.86 312.63 139.40 307.91 138.00 303.00
C 138.00 312.22 143.26 319.53 153.00 320.00 Z"/>
</g>
<g fill="#F6A12C" fill-opacity="1.00" stroke="None">
<path d="
M 184.00 311.00 
C 180.20 313.65 175.11 322.34 179.25 327.75 C 183.39 333.16 193.69 335.45 197.00 328.00
C 196.71 327.35 197.00 325.72 197.00 325.00
C 196.41 322.31 196.58 320.58 197.00 318.00
C 196.38 314.40 198.62 311.58 198.00 308.00
C 193.35 308.70 188.23 310.12 184.00 311.00 Z"/>
</g>
<g fill="#794E11" fill-opacity="1.00" stroke="None">
<path d="
M 197.00 325.00 
C 197.00 322.68 196.89 320.32 197.00 318.00
C 196.58 320.58 196.41 322.31 197.00 325.00 Z"/>
</g>
</svg>