<svg xmlns="http://www.w3.org/2000/svg" xmlns:v="https://svgstorm.com"
viewBox = "0 0 225 225"
width="225"
height="225">
<g fill="None" fill-opacity="0.0" stroke="#FEFEFE" stroke-opacity="1.00" stroke-width="0.3"><path d="
M 0.00 225.00 
L 225.00 225.00
L 225.00 0.00
L 0.00 0.00
L 0.00 225.00
M 120.00 29.00 
C 130.71 37.21 141.84 48.04 150.75 58.25 C 159.66 68.46 174.61 78.11 179.00 90.00
C 183.01 100.87 186.85 119.15 181.74 129.74 C 176.64 140.33 168.82 149.46 160.25 156.25 C 151.68 163.04 144.45 180.17 132.77 172.23 C 121.09 164.28 138.36 150.89 145.25 144.25 C 152.14 137.61 164.26 126.70 166.00 117.00
C 168.41 103.56 157.50 87.54 144.00 86.00
C 140.37 86.33 136.63 85.63 133.00 86.00
C 122.26 88.38 115.39 98.68 107.25 105.25 C 99.10 111.81 93.63 126.63 82.31 120.69 C 70.99 114.76 82.94 100.78 90.75 94.75 C 98.56 88.73 105.82 77.29 115.00 73.00
C 119.48 69.77 124.52 66.93 130.00 66.00
C 129.21 60.88 120.60 57.78 117.75 53.25 C 114.90 48.72 108.87 45.24 105.25 40.75 C 101.63 36.26 102.82 26.38 110.00 25.00
C 115.14 24.01 116.67 26.45 120.00 29.00
M 95.00 64.00 
C 89.83 79.30 67.86 87.49 61.00 102.00
C 59.67 111.65 58.48 119.99 64.00 129.00
C 70.36 137.29 90.99 144.21 100.08 136.08 C 109.18 127.95 118.24 122.92 125.25 112.25 C 132.26 101.57 154.03 100.64 146.00 118.00
C 141.53 127.67 131.14 132.74 124.25 141.25 C 117.35 149.76 105.93 156.46 95.00 158.00
C 102.91 164.13 105.51 173.14 114.75 179.25 C 124.00 185.36 124.34 203.99 109.00 199.00
C 99.13 195.36 93.00 183.27 84.75 176.25 C 76.50 169.23 68.14 159.76 61.00 152.00
C 60.76 151.74 60.20 151.32 60.00 151.00
C 43.06 137.81 36.75 120.55 42.00 100.00
C 43.54 89.46 50.22 83.63 56.75 75.75 C 63.27 67.86 70.31 64.73 76.75 56.75 C 83.20 48.77 99.67 50.19 95.00 64.00 Z"/>
</g>
<g fill="None" fill-opacity="0.0" stroke="#F98368" stroke-opacity="1.00" stroke-width="0.3"><path d="
M 130.00 66.00 
C 130.21 67.37 120.67 70.78 118.00 72.00
C 124.33 71.03 130.47 72.39 136.22 73.78 C 141.97 75.17 143.12 80.88 148.00 82.00
C 148.98 84.91 146.15 85.31 144.00 85.00
C 144.03 85.00 144.00 86.00 144.00 86.00
C 157.50 87.54 168.41 103.56 166.00 117.00
C 166.19 117.96 165.85 119.03 166.00 120.00
C 173.76 106.24 172.87 84.96 163.00 72.00
C 161.93 70.97 160.93 70.13 160.00 69.00
C 147.36 56.11 132.09 44.24 121.00 30.00
C 120.68 29.80 120.27 29.13 120.00 29.00
C 117.55 27.80 112.45 24.78 110.00 25.00
C 102.82 26.38 101.63 36.26 105.25 40.75 C 108.87 45.24 114.90 48.72 117.75 53.25 C 120.60 57.78 129.21 60.88 130.00 66.00 Z"/>
</g>
<g fill="None" fill-opacity="0.0" stroke="#F2B9B0" stroke-opacity="1.00" stroke-width="0.3"><path d="
M 120.00 29.00 
C 116.67 26.45 115.14 24.01 110.00 25.00
C 112.45 24.78 117.55 27.80 120.00 29.00 Z"/>
</g>
<g fill="None" fill-opacity="0.0" stroke="#FCE6DE" stroke-opacity="1.00" stroke-width="0.3"><path d="
M 121.00 30.00 
C 128.57 34.68 134.12 43.27 140.75 49.25 C 147.38 55.23 154.36 62.21 160.00 69.00
C 160.93 70.13 161.93 70.97 163.00 72.00
C 168.29 77.10 175.48 84.19 179.00 90.00
C 174.61 78.11 159.66 68.46 150.75 58.25 C 141.84 48.04 130.71 37.21 120.00 29.00
C 120.27 29.13 120.68 29.80 121.00 30.00 Z"/>
</g>
<g fill="None" fill-opacity="0.0" stroke="#F9C7BC" stroke-opacity="1.00" stroke-width="0.3"><path d="
M 160.00 69.00 
C 154.36 62.21 147.38 55.23 140.75 49.25 C 134.12 43.27 128.57 34.68 121.00 30.00
C 132.09 44.24 147.36 56.11 160.00 69.00 Z"/>
</g>
<g fill="None" fill-opacity="0.0" stroke="#6EEDD1" stroke-opacity="1.00" stroke-width="0.3"><path d="
M 42.00 100.00 
C 40.48 110.40 41.31 120.87 44.77 130.23 C 48.24 139.59 54.94 142.82 60.00 151.00
C 60.20 151.32 60.76 151.74 61.00 152.00
C 59.41 149.59 58.66 142.56 55.00 145.00
C 53.84 130.35 51.00 112.93 61.00 100.00
C 62.17 92.91 72.94 87.17 77.25 81.25 C 81.56 75.32 91.92 70.98 95.00 64.00
C 99.67 50.19 83.20 48.77 76.75 56.75 C 70.31 64.73 63.27 67.86 56.75 75.75 C 50.22 83.63 43.54 89.46 42.00 100.00 Z"/>
</g>
<g fill="None" fill-opacity="0.0" stroke="#B9F3E8" stroke-opacity="1.00" stroke-width="0.3"><path d="
M 61.00 100.00 
C 60.92 100.49 61.07 101.51 61.00 102.00
C 67.86 87.49 89.83 79.30 95.00 64.00
C 91.92 70.98 81.56 75.32 77.25 81.25 C 72.94 87.17 62.17 92.91 61.00 100.00 Z"/>
</g>
<g fill="None" fill-opacity="0.0" stroke="#FAD6C9" stroke-opacity="1.00" stroke-width="0.3"><path d="
M 115.00 73.00 
C 116.16 72.46 116.69 72.20 118.00 72.00
C 120.67 70.78 130.21 67.37 130.00 66.00
C 124.52 66.93 119.48 69.77 115.00 73.00 Z"/>
</g>
<g fill="None" fill-opacity="0.0" stroke="#F97261" stroke-opacity="1.00" stroke-width="0.3"><path d="
M 115.00 73.00 
C 105.82 77.29 98.56 88.73 90.75 94.75 C 82.94 100.78 70.99 114.76 82.31 120.69 C 93.63 126.63 99.10 111.81 107.25 105.25 C 115.39 98.68 122.26 88.38 133.00 86.00
C 136.18 85.29 140.15 84.65 144.00 85.00
C 146.15 85.31 148.98 84.91 148.00 82.00
C 143.12 80.88 141.97 75.17 136.22 73.78 C 130.47 72.39 124.33 71.03 118.00 72.00
C 116.69 72.20 116.16 72.46 115.00 73.00 Z"/>
</g>
<g fill="None" fill-opacity="0.0" stroke="#FA9E8B" stroke-opacity="1.00" stroke-width="0.3"><path d="
M 166.00 117.00 
C 164.26 126.70 152.14 137.61 145.25 144.25 C 138.36 150.89 121.09 164.28 132.77 172.23 C 144.45 180.17 151.68 163.04 160.25 156.25 C 168.82 149.46 176.64 140.33 181.74 129.74 C 186.85 119.15 183.01 100.87 179.00 90.00
C 175.48 84.19 168.29 77.10 163.00 72.00
C 172.87 84.96 173.76 106.24 166.00 120.00
C 165.85 119.03 166.19 117.96 166.00 117.00 Z"/>
</g>
<g fill="None" fill-opacity="0.0" stroke="#F6D2C4" stroke-opacity="1.00" stroke-width="0.3"><path d="
M 133.00 86.00 
C 136.63 85.63 140.37 86.33 144.00 86.00
C 144.00 86.00 144.03 85.00 144.00 85.00
C 140.15 84.65 136.18 85.29 133.00 86.00 Z"/>
</g>
<g fill="None" fill-opacity="0.0" stroke="#B7F2E7" stroke-opacity="1.00" stroke-width="0.3"><path d="
M 60.00 151.00 
C 54.94 142.82 48.24 139.59 44.77 130.23 C 41.31 120.87 40.48 110.40 42.00 100.00
C 36.75 120.55 43.06 137.81 60.00 151.00 Z"/>
</g>
<g fill="None" fill-opacity="0.0" stroke="#46DCC1" stroke-opacity="1.00" stroke-width="0.3"><path d="
M 61.00 152.00 
C 68.14 159.76 76.50 169.23 84.75 176.25 C 93.00 183.27 99.13 195.36 109.00 199.00
C 124.72 202.18 121.90 184.51 113.25 178.75 C 104.60 172.99 100.64 164.38 93.00 158.00
C 97.16 156.05 102.63 156.18 106.00 153.00
C 90.57 155.62 72.04 142.12 64.00 129.00
C 58.48 119.99 59.67 111.65 61.00 102.00
C 61.07 101.51 60.92 100.49 61.00 100.00
C 51.00 112.93 53.84 130.35 55.00 145.00
C 58.66 142.56 59.41 149.59 61.00 152.00 Z"/>
</g>
<g fill="None" fill-opacity="0.0" stroke="#3CC6B2" stroke-opacity="1.00" stroke-width="0.3"><path d="
M 64.00 129.00 
C 72.04 142.12 90.57 155.62 106.00 153.00
C 113.58 149.53 121.40 143.88 126.75 136.75 C 132.11 129.63 141.13 125.11 146.00 118.00
C 154.03 100.64 132.26 101.57 125.25 112.25 C 118.24 122.92 109.18 127.95 100.08 136.08 C 90.99 144.21 70.36 137.29 64.00 129.00 Z"/>
</g>
<g fill="None" fill-opacity="0.0" stroke="#B9F2EA" stroke-opacity="1.00" stroke-width="0.3"><path d="
M 106.00 153.00 
C 102.63 156.18 97.16 156.05 93.00 158.00
C 100.64 164.38 104.60 172.99 113.25 178.75 C 121.90 184.51 124.72 202.18 109.00 199.00
C 124.34 203.99 124.00 185.36 114.75 179.25 C 105.51 173.14 102.91 164.13 95.00 158.00
C 105.93 156.46 117.35 149.76 124.25 141.25 C 131.14 132.74 141.53 127.67 146.00 118.00
C 141.13 125.11 132.11 129.63 126.75 136.75 C 121.40 143.88 113.58 149.53 106.00 153.00 Z"/>
</g>
<g fill="#FEFEFE" fill-opacity="1.00" stroke="None">
<path d="
M 0.00 225.00 
L 225.00 225.00
L 225.00 0.00
L 0.00 0.00
L 0.00 225.00
M 120.00 29.00 
C 130.71 37.21 141.84 48.04 150.75 58.25 C 159.66 68.46 174.61 78.11 179.00 90.00
C 183.01 100.87 186.85 119.15 181.74 129.74 C 176.64 140.33 168.82 149.46 160.25 156.25 C 151.68 163.04 144.45 180.17 132.77 172.23 C 121.09 164.28 138.36 150.89 145.25 144.25 C 152.14 137.61 164.26 126.70 166.00 117.00
C 168.41 103.56 157.50 87.54 144.00 86.00
C 140.37 86.33 136.63 85.63 133.00 86.00
C 122.26 88.38 115.39 98.68 107.25 105.25 C 99.10 111.81 93.63 126.63 82.31 120.69 C 70.99 114.76 82.94 100.78 90.75 94.75 C 98.56 88.73 105.82 77.29 115.00 73.00
C 119.48 69.77 124.52 66.93 130.00 66.00
C 129.21 60.88 120.60 57.78 117.75 53.25 C 114.90 48.72 108.87 45.24 105.25 40.75 C 101.63 36.26 102.82 26.38 110.00 25.00
C 115.14 24.01 116.67 26.45 120.00 29.00
M 95.00 64.00 
C 89.83 79.30 67.86 87.49 61.00 102.00
C 59.67 111.65 58.48 119.99 64.00 129.00
C 70.36 137.29 90.99 144.21 100.08 136.08 C 109.18 127.95 118.24 122.92 125.25 112.25 C 132.26 101.57 154.03 100.64 146.00 118.00
C 141.53 127.67 131.14 132.74 124.25 141.25 C 117.35 149.76 105.93 156.46 95.00 158.00
C 102.91 164.13 105.51 173.14 114.75 179.25 C 124.00 185.36 124.34 203.99 109.00 199.00
C 99.13 195.36 93.00 183.27 84.75 176.25 C 76.50 169.23 68.14 159.76 61.00 152.00
C 60.76 151.74 60.20 151.32 60.00 151.00
C 43.06 137.81 36.75 120.55 42.00 100.00
C 43.54 89.46 50.22 83.63 56.75 75.75 C 63.27 67.86 70.31 64.73 76.75 56.75 C 83.20 48.77 99.67 50.19 95.00 64.00 Z"/>
</g>
<g fill="#F98368" fill-opacity="1.00" stroke="None">
<path d="
M 130.00 66.00 
C 130.21 67.37 120.67 70.78 118.00 72.00
C 124.33 71.03 130.47 72.39 136.22 73.78 C 141.97 75.17 143.12 80.88 148.00 82.00
C 148.98 84.91 146.15 85.31 144.00 85.00
C 144.03 85.00 144.00 86.00 144.00 86.00
C 157.50 87.54 168.41 103.56 166.00 117.00
C 166.19 117.96 165.85 119.03 166.00 120.00
C 173.76 106.24 172.87 84.96 163.00 72.00
C 161.93 70.97 160.93 70.13 160.00 69.00
C 147.36 56.11 132.09 44.24 121.00 30.00
C 120.68 29.80 120.27 29.13 120.00 29.00
C 117.55 27.80 112.45 24.78 110.00 25.00
C 102.82 26.38 101.63 36.26 105.25 40.75 C 108.87 45.24 114.90 48.72 117.75 53.25 C 120.60 57.78 129.21 60.88 130.00 66.00 Z"/>
</g>
<g fill="#F2B9B0" fill-opacity="1.00" stroke="None">
<path d="
M 120.00 29.00 
C 116.67 26.45 115.14 24.01 110.00 25.00
C 112.45 24.78 117.55 27.80 120.00 29.00 Z"/>
</g>
<g fill="#FCE6DE" fill-opacity="1.00" stroke="None">
<path d="
M 121.00 30.00 
C 128.57 34.68 134.12 43.27 140.75 49.25 C 147.38 55.23 154.36 62.21 160.00 69.00
C 160.93 70.13 161.93 70.97 163.00 72.00
C 168.29 77.10 175.48 84.19 179.00 90.00
C 174.61 78.11 159.66 68.46 150.75 58.25 C 141.84 48.04 130.71 37.21 120.00 29.00
C 120.27 29.13 120.68 29.80 121.00 30.00 Z"/>
</g>
<g fill="#F9C7BC" fill-opacity="1.00" stroke="None">
<path d="
M 160.00 69.00 
C 154.36 62.21 147.38 55.23 140.75 49.25 C 134.12 43.27 128.57 34.68 121.00 30.00
C 132.09 44.24 147.36 56.11 160.00 69.00 Z"/>
</g>
<g fill="#6EEDD1" fill-opacity="1.00" stroke="None">
<path d="
M 42.00 100.00 
C 40.48 110.40 41.31 120.87 44.77 130.23 C 48.24 139.59 54.94 142.82 60.00 151.00
C 60.20 151.32 60.76 151.74 61.00 152.00
C 59.41 149.59 58.66 142.56 55.00 145.00
C 53.84 130.35 51.00 112.93 61.00 100.00
C 62.17 92.91 72.94 87.17 77.25 81.25 C 81.56 75.32 91.92 70.98 95.00 64.00
C 99.67 50.19 83.20 48.77 76.75 56.75 C 70.31 64.73 63.27 67.86 56.75 75.75 C 50.22 83.63 43.54 89.46 42.00 100.00 Z"/>
</g>
<g fill="#B9F3E8" fill-opacity="1.00" stroke="None">
<path d="
M 61.00 100.00 
C 60.92 100.49 61.07 101.51 61.00 102.00
C 67.86 87.49 89.83 79.30 95.00 64.00
C 91.92 70.98 81.56 75.32 77.25 81.25 C 72.94 87.17 62.17 92.91 61.00 100.00 Z"/>
</g>
<g fill="#FAD6C9" fill-opacity="1.00" stroke="None">
<path d="
M 115.00 73.00 
C 116.16 72.46 116.69 72.20 118.00 72.00
C 120.67 70.78 130.21 67.37 130.00 66.00
C 124.52 66.93 119.48 69.77 115.00 73.00 Z"/>
</g>
<g fill="#F97261" fill-opacity="1.00" stroke="None">
<path d="
M 115.00 73.00 
C 105.82 77.29 98.56 88.73 90.75 94.75 C 82.94 100.78 70.99 114.76 82.31 120.69 C 93.63 126.63 99.10 111.81 107.25 105.25 C 115.39 98.68 122.26 88.38 133.00 86.00
C 136.18 85.29 140.15 84.65 144.00 85.00
C 146.15 85.31 148.98 84.91 148.00 82.00
C 143.12 80.88 141.97 75.17 136.22 73.78 C 130.47 72.39 124.33 71.03 118.00 72.00
C 116.69 72.20 116.16 72.46 115.00 73.00 Z"/>
</g>
<g fill="#FA9E8B" fill-opacity="1.00" stroke="None">
<path d="
M 166.00 117.00 
C 164.26 126.70 152.14 137.61 145.25 144.25 C 138.36 150.89 121.09 164.28 132.77 172.23 C 144.45 180.17 151.68 163.04 160.25 156.25 C 168.82 149.46 176.64 140.33 181.74 129.74 C 186.85 119.15 183.01 100.87 179.00 90.00
C 175.48 84.19 168.29 77.10 163.00 72.00
C 172.87 84.96 173.76 106.24 166.00 120.00
C 165.85 119.03 166.19 117.96 166.00 117.00 Z"/>
</g>
<g fill="#F6D2C4" fill-opacity="1.00" stroke="None">
<path d="
M 133.00 86.00 
C 136.63 85.63 140.37 86.33 144.00 86.00
C 144.00 86.00 144.03 85.00 144.00 85.00
C 140.15 84.65 136.18 85.29 133.00 86.00 Z"/>
</g>
<g fill="#B7F2E7" fill-opacity="1.00" stroke="None">
<path d="
M 60.00 151.00 
C 54.94 142.82 48.24 139.59 44.77 130.23 C 41.31 120.87 40.48 110.40 42.00 100.00
C 36.75 120.55 43.06 137.81 60.00 151.00 Z"/>
</g>
<g fill="#46DCC1" fill-opacity="1.00" stroke="None">
<path d="
M 61.00 152.00 
C 68.14 159.76 76.50 169.23 84.75 176.25 C 93.00 183.27 99.13 195.36 109.00 199.00
C 124.72 202.18 121.90 184.51 113.25 178.75 C 104.60 172.99 100.64 164.38 93.00 158.00
C 97.16 156.05 102.63 156.18 106.00 153.00
C 90.57 155.62 72.04 142.12 64.00 129.00
C 58.48 119.99 59.67 111.65 61.00 102.00
C 61.07 101.51 60.92 100.49 61.00 100.00
C 51.00 112.93 53.84 130.35 55.00 145.00
C 58.66 142.56 59.41 149.59 61.00 152.00 Z"/>
</g>
<g fill="#3CC6B2" fill-opacity="1.00" stroke="None">
<path d="
M 64.00 129.00 
C 72.04 142.12 90.57 155.62 106.00 153.00
C 113.58 149.53 121.40 143.88 126.75 136.75 C 132.11 129.63 141.13 125.11 146.00 118.00
C 154.03 100.64 132.26 101.57 125.25 112.25 C 118.24 122.92 109.18 127.95 100.08 136.08 C 90.99 144.21 70.36 137.29 64.00 129.00 Z"/>
</g>
<g fill="#B9F2EA" fill-opacity="1.00" stroke="None">
<path d="
M 106.00 153.00 
C 102.63 156.18 97.16 156.05 93.00 158.00
C 100.64 164.38 104.60 172.99 113.25 178.75 C 121.90 184.51 124.72 202.18 109.00 199.00
C 124.34 203.99 124.00 185.36 114.75 179.25 C 105.51 173.14 102.91 164.13 95.00 158.00
C 105.93 156.46 117.35 149.76 124.25 141.25 C 131.14 132.74 141.53 127.67 146.00 118.00
C 141.13 125.11 132.11 129.63 126.75 136.75 C 121.40 143.88 113.58 149.53 106.00 153.00 Z"/>
</g>
</svg>